<?xml version="1.0" encoding="utf-8"?>
<!-- Generator: Adobe Illustrator 16.0.0, SVG Export Plug-In . SVG Version: 6.00 Build 0)  -->
<!DOCTYPE svg PUBLIC "-//W3C//DTD SVG 1.1//EN" "http://www.w3.org/Graphics/SVG/1.1/DTD/svg11.dtd">
<svg version="1.1" id="Layer_1" xmlns="http://www.w3.org/2000/svg" xmlns:xlink="http://www.w3.org/1999/xlink" x="0px" y="0px"
	viewBox="0 0 445 372" enable-background="new 0 0 445 372" xml:space="preserve">
<g>
	<defs>
		<rect id="SVGID_1_" width="445" height="372"/>
	</defs>
	<clipPath id="SVGID_2_">
		<use xlink:href="#SVGID_1_"  overflow="visible"/>
	</clipPath>
	<path clip-path="url(#SVGID_2_)" fill="#FFFFFF" d="M209.486,15.848h11.636c0.536,0,0.969-0.434,0.969-0.97
		c0-0.536-0.433-0.969-0.969-0.969h-11.636c-0.536,0-0.97,0.433-0.97,0.969C208.516,15.414,208.95,15.848,209.486,15.848"/>
	<path clip-path="url(#SVGID_2_)" fill="#FFFFFF" d="M445,236.302v-6.676h-8.498c-0.115-2.172-1.902-3.909-4.103-3.909h-0.605
		v-8.475h-6.676v8.475h-2.41v-8.475h-6.676v8.475h-2.409v-8.475h-6.676v8.475h-2.41v-8.475h-6.676v8.475h-2.409v-8.475h-6.676v8.475
		h-2.41v-8.475h-6.676v8.475h-2.409v-8.475h-6.676v8.475h-2.41v-8.475h-6.676v8.475h-0.194c-2.274,0-4.125,1.852-4.125,4.125v0.025
		h-1.109c0.069-0.133,0.117-0.278,0.117-0.438V105.843c0-4.651-3.785-8.437-8.436-8.437H317.44c-0.536,0-0.97,0.434-0.97,0.97
		s0.434,0.969,0.97,0.969h30.332c3.581,0,6.496,2.915,6.496,6.498v123.586c0,0.16,0.048,0.306,0.116,0.438h-5.659v6.676h8.475v2.409
		h-8.475v6.676h8.475v2.408h-8.475v6.677h8.475v2.17h-8.475v6.676h8.475v6.145c-2.542-2.313-5.907-3.735-9.605-3.735
		c-6.616,0-12.182,4.521-13.812,10.631h-16.884c-0.221,0-0.413,0.086-0.575,0.209V79.305c0-6.711-5.459-12.171-12.17-12.171H192.157
		c-6.71,0-12.17,5.46-12.17,12.171v122.383c-2.422-2.208-4.974-4.229-7.634-6.064c-0.005-0.004-0.01-0.008-0.016-0.011
		c-9.029-6.229-19.333-10.273-30.294-11.842v-77.928c0-0.632,0.138-2.829,1.903-4.594c1.228-1.227,2.86-1.904,4.595-1.904h30.331
		c0.536,0,0.97-0.433,0.97-0.969s-0.434-0.97-0.97-0.97h-30.331c-2.252,0-4.372,0.877-5.966,2.472
		c-2.23,2.229-2.471,4.914-2.471,5.965v78.781c0,0.536,0.434,0.969,0.97,0.969c0.007,0,0.012-0.003,0.02-0.004
		c10.45,1.393,20.301,5.1,28.995,10.843c-4.139,2.759-8.519,5.051-13.084,6.846c-4.464-8.331-10.031-14.501-16.303-17.568
		c-0.277-0.133-0.579-0.112-0.837,0.01c0.145-0.656,0.227-1.337,0.227-2.037c0-5.208-4.238-9.446-9.447-9.446
		c-5.208,0-9.446,4.238-9.446,9.446c0,0.015,0.003,0.031,0.003,0.046c-11.066,1.539-21.468,5.602-30.575,11.884
		c-0.008,0.004-0.015,0.01-0.022,0.015c-2.752,1.9-5.392,3.992-7.889,6.29c-0.03,0.028-0.044,0.065-0.07,0.095
		c-0.911-0.586-1.993-0.931-3.155-0.931c-3.226,0-5.851,2.625-5.851,5.853c0,1.323,0.446,2.54,1.19,3.522
		c-0.009,0.009-0.02,0.013-0.028,0.022c-7.695,9.814-12.7,21.504-14.476,33.809c-0.024,0.169,0.009,0.328,0.067,0.478
		c-5.351,0.089-9.677,4.462-9.677,9.832c0,5.347,4.288,9.702,9.605,9.829c-0.021,0.104-0.034,0.212-0.019,0.324
		c1.678,11.811,6.353,23.113,13.521,32.689c0.025,0.032,0.055,0.058,0.083,0.087c-0.898,1.028-1.447,2.37-1.447,3.838
		c0,3.228,2.625,5.853,5.853,5.853c1.214,0,2.344-0.373,3.281-1.01c11.046,10.606,25.382,17.462,40.517,19.377
		c0.151,5.078,4.319,9.166,9.433,9.166c5.119,0,9.291-4.097,9.433-9.183c15.089-1.938,29.377-8.785,40.393-19.36
		c0.936,0.637,2.066,1.01,3.281,1.01c3.226,0,5.851-2.625,5.851-5.853c0-0.145-0.011-0.286-0.022-0.428h113.675
		c6.711,0,12.17-5.458,12.17-12.168v-10.44c0.162,0.123,0.354,0.209,0.575,0.209h16.503c-0.069,0.573-0.117,1.151-0.117,1.742v8.559
		h-0.417c-2.54,0-4.606,2.066-4.606,4.607v25.836c0,2.539,2.066,4.605,4.606,4.605h30.065c2.54,0,4.606-2.066,4.606-4.605V303.77
		c0.063,0.019,0.127,0.04,0.196,0.04h3.074v8.475h6.677v-8.475h2.409v8.475h6.676v-8.475h2.41v8.475h6.676v-8.475h2.408v8.475h6.677
		v-8.475h2.41v8.475h6.676v-8.475h2.409v8.475h6.676v-8.475h2.409v8.475H432v-8.475h0.399c2.2,0,3.988-1.737,4.103-3.908H445v-6.677
		h-8.476v-2.408H445v-6.677h-8.476v-2.411H445v-6.676h-8.476v-2.409H445v-6.676h-8.476v-2.409H445v-6.676h-8.476v-2.409H445v-6.676
		h-8.476v-2.411H445v-6.674h-8.476v-2.411H445z M436.526,231.081h7.02v3.767h-7.02V231.081z M183.469,203.021
		c2.157,0,3.912,1.756,3.912,3.912c0,2.157-1.755,3.912-3.912,3.912c-2.157,0-3.911-1.755-3.911-3.912
		C179.558,204.777,181.312,203.021,183.469,203.021 M171.811,197.612c2.461,1.733,4.829,3.627,7.077,5.691
		c-0.792,0.999-1.27,2.26-1.27,3.63c0,3.228,2.625,5.853,5.851,5.853c1.204,0,2.323-0.366,3.254-0.992
		c1.715,2.197,3.287,4.492,4.719,6.865c-6.364,4.186-15.277,7.562-25.725,9.873c-1.791-8.823-4.456-16.81-7.813-23.521
		C162.767,203.083,167.424,200.605,171.811,197.612 M91.734,254.594c0.002-2.155,1.757-3.908,3.913-3.908
		c2.157,0,3.912,1.755,3.912,3.911c0,2.157-1.755,3.913-3.912,3.913c-2.156,0-3.911-1.754-3.913-3.91
		c0-0.001,0.001-0.002,0.001-0.003S91.734,254.595,91.734,254.594 M131.15,236.903c-2.157,0-3.912-1.754-3.912-3.912
		c0-2.157,1.755-3.912,3.912-3.912c2.157,0,3.912,1.755,3.912,3.912C135.062,235.149,133.307,236.903,131.15,236.903
		 M136.928,233.869c0.029,0.003,0.053,0.016,0.083,0.016h0.029c9.61-0.279,18.821-1.338,27.161-3.053
		c1.049,5.683,1.739,11.701,2.012,17.943c0.001,0.026,0.016,0.05,0.018,0.075c-2.395,0.451-4.275,2.365-4.68,4.777H132.12v-14.873
		C134.599,238.338,136.55,236.361,136.928,233.869 M130.18,227.227c-2.417,0.406-4.335,2.295-4.78,4.699
		c-9.306-0.302-18.211-1.336-26.271-2.992c1.766-8.758,4.397-16.66,7.712-23.25c7.425,2.716,15.288,4.178,23.339,4.313V227.227z
		 M125.372,233.866c0.376,2.494,2.327,4.472,4.808,4.889v14.873h-28.769c-0.405-2.412-2.285-4.326-4.681-4.777
		c0.003-0.025,0.017-0.049,0.019-0.075c0.272-6.242,0.963-12.261,2.012-17.943C106.941,232.514,115.96,233.562,125.372,233.866
		 M101.411,255.567h28.769v13.829c-2.386,0.483-4.242,2.426-4.612,4.852c-9.574,0.299-18.746,1.369-27.047,3.092
		c-0.947-5.427-1.564-11.126-1.796-16.995C99.124,259.896,101.006,257.981,101.411,255.567 M125.595,276.189
		c0.43,2.343,2.257,4.203,4.585,4.676v21.027c-7.673,0.021-15.242,1.273-22.434,3.666c-3.9-7.278-6.965-16.29-8.881-26.315
		C107.051,277.543,116.116,276.486,125.595,276.189 M127.434,275.13c0-2.157,1.755-3.912,3.912-3.912
		c2.157,0,3.912,1.755,3.912,3.912s-1.755,3.913-3.912,3.913C129.189,279.043,127.434,277.287,127.434,275.13 M132.12,280.925
		c2.515-0.334,4.527-2.269,4.978-4.746c9.577,0.285,18.735,1.35,26.999,3.064c-1.916,10.025-4.981,19.037-8.881,26.315
		c-7.254-2.412-14.89-3.67-22.631-3.67c-0.172,0-0.325,0.058-0.465,0.137V280.925z M137.122,274.238
		c-0.393-2.552-2.435-4.562-5.002-4.902v-13.769h29.431c0.405,2.414,2.287,4.329,4.685,4.777
		c-0.231,5.869-0.849,11.568-1.796,16.995C156.061,275.601,146.795,274.526,137.122,274.238 M163.403,254.597
		c0-2.156,1.755-3.911,3.911-3.911c2.158,0,3.913,1.755,3.913,3.911c0,2.157-1.755,3.913-3.913,3.913
		C165.158,258.51,163.403,256.754,163.403,254.597 M168.176,260.379c2.5-0.372,4.486-2.327,4.903-4.812h18.982
		c0.205,0,0.385-0.078,0.542-0.188c0.358,4.525,3.787,8.189,8.2,8.916c-0.022,0.061-0.055,0.115-0.065,0.182
		c-1.174,8.271-3.867,16.281-7.882,23.598c-6.522-4.38-15.709-7.91-26.484-10.318C167.322,272.229,167.94,266.406,168.176,260.379
		 M194.502,254.597c0-4.355,3.545-7.901,7.901-7.901c4.358,0,7.902,3.546,7.902,7.901c0,4.356-3.544,7.901-7.902,7.901
		C198.047,262.498,194.502,258.953,194.502,254.597 M192.603,253.814c-0.157-0.109-0.337-0.187-0.542-0.187h-18.982
		c-0.42-2.499-2.426-4.462-4.947-4.817c0.004-0.041,0.02-0.076,0.019-0.118c-0.278-6.349-0.986-12.472-2.064-18.263
		c10.659-2.356,19.781-5.808,26.333-10.094c4.232,7.479,7.066,15.7,8.297,24.228c0.017,0.119,0.056,0.231,0.112,0.331
		C196.403,245.612,192.962,249.28,192.603,253.814 M163.833,228.934c-8.228,1.69-17.333,2.735-26.85,3.013
		c-0.028,0.001-0.051,0.015-0.078,0.019c-0.431-2.423-2.355-4.331-4.785-4.738V210.01c8.282-0.064,16.372-1.536,24.001-4.326
		C159.436,212.273,162.067,220.176,163.833,228.934 M139.85,187.451c5.886,2.878,11.13,8.661,15.368,16.5
		c-7.347,2.657-15.132,4.055-23.098,4.119v-14.434c0-0.23-0.092-0.434-0.226-0.6c3.468-0.462,6.341-2.806,7.562-5.973
		C139.549,187.222,139.672,187.364,139.85,187.451 M130.645,176.175c4.14,0,7.508,3.367,7.508,7.507s-3.368,7.508-7.508,7.508
		c-4.139,0-7.506-3.368-7.506-7.508S126.506,176.175,130.645,176.175 M130.354,193.114c-0.101,0.152-0.174,0.326-0.174,0.522v14.421
		c-7.735-0.135-15.293-1.523-22.437-4.106c4.022-7.439,8.952-13.016,14.475-16.026C123.734,190.924,126.797,193.005,130.354,193.114
		 M121.411,185.659c0.032,0.149,0.074,0.293,0.113,0.438c-5.971,3.181-11.28,9.178-15.568,17.18
		c-4.564-1.795-8.944-4.087-13.083-6.846C101.439,190.772,111.131,187.096,121.411,185.659 M79.491,203.021
		c2.157,0,3.913,1.756,3.913,3.912c0,2.157-1.756,3.912-3.913,3.912c-2.157,0-3.911-1.755-3.911-3.912
		C75.58,204.777,77.334,203.021,79.491,203.021 M76.238,211.795c0.931,0.625,2.05,0.991,3.253,0.991
		c3.227,0,5.852-2.625,5.852-5.853c0-1.37-0.477-2.631-1.269-3.63c2.248-2.064,4.615-3.958,7.077-5.691
		c4.387,2.993,9.044,5.471,13.906,7.398c-3.356,6.711-6.022,14.698-7.812,23.521c-10.448-2.312-19.361-5.688-25.725-9.873
		C72.951,216.286,74.523,213.991,76.238,211.795 M62.245,244.563c1.231-8.527,4.065-16.749,8.297-24.228
		c6.551,4.285,15.674,7.737,26.333,10.094c-1.078,5.79-1.787,11.914-2.064,18.263c-0.002,0.042,0.015,0.077,0.019,0.118
		c-2.522,0.354-4.528,2.318-4.948,4.817H70.9c-0.205,0-0.384,0.077-0.541,0.187c-0.359-4.534-3.8-8.202-8.226-8.92
		C62.188,244.795,62.228,244.683,62.245,244.563 M52.656,254.597c0-4.355,3.545-7.901,7.902-7.901s7.901,3.546,7.901,7.901
		c0,4.356-3.544,7.901-7.901,7.901S52.656,258.953,52.656,254.597 M62.223,264.478c-0.01-0.066-0.043-0.12-0.065-0.182
		c4.413-0.726,7.842-4.391,8.201-8.916c0.157,0.109,0.336,0.188,0.541,0.188h18.982c0.417,2.485,2.403,4.439,4.904,4.812
		c0.235,6.027,0.854,11.85,1.804,17.378c-10.775,2.408-19.963,5.938-26.485,10.318C66.091,280.759,63.397,272.748,62.223,264.478
		 M78.312,305.278c-2.158,0-3.914-1.756-3.914-3.914c0-2.157,1.756-3.91,3.914-3.91c2.157,0,3.911,1.753,3.911,3.91
		C82.223,303.522,80.469,305.278,78.312,305.278 M92.884,312.737c-3.518-2.314-6.834-4.947-9.891-7.876
		c0.731-0.978,1.17-2.186,1.17-3.497c0-3.225-2.625-5.85-5.851-5.85c-1.065,0-2.062,0.29-2.923,0.789
		c-0.006-0.009-0.007-0.02-0.013-0.027c-1.564-2.09-2.999-4.268-4.313-6.512c6.327-4.281,15.303-7.737,25.865-10.104
		c1.908,10.134,4.963,19.191,8.885,26.571c-4.351,1.587-8.554,3.592-12.54,6.013C93.081,312.362,92.958,312.541,92.884,312.737
		 M94.508,313.771c3.896-2.348,8-4.293,12.251-5.824c4.088,7.162,9.036,12.565,14.575,15.57
		C111.823,322.169,102.664,318.817,94.508,313.771 M108.705,307.282c6.892-2.253,14.135-3.43,21.475-3.45v11.728
		c0,0.141,0.033,0.272,0.087,0.394c-3.495,0.475-6.382,2.865-7.574,6.078C117.442,319.319,112.68,314.176,108.705,307.282
		 M131.543,332.811c-4.14,0-7.507-3.366-7.507-7.508c0-4.14,3.367-7.507,7.507-7.507c4.139,0,7.506,3.367,7.506,7.507
		C139.049,329.444,135.682,332.811,131.543,332.811 M140.373,321.978c-1.292-3.417-4.505-5.89-8.319-6.095
		c0.037-0.103,0.066-0.209,0.066-0.323v-11.866c0.14,0.079,0.293,0.135,0.465,0.135c7.408,0,14.718,1.182,21.671,3.454
		C150.308,314.131,145.583,319.252,140.373,321.978 M141.627,323.518c5.539-3.005,10.487-8.409,14.575-15.57
		c4.251,1.531,8.355,3.477,12.251,5.825C160.297,318.817,151.138,322.169,141.627,323.518 M184.65,305.278
		c-2.157,0-3.912-1.756-3.912-3.914c0-2.157,1.755-3.91,3.912-3.91c2.158,0,3.912,1.753,3.912,3.91
		C188.562,303.522,186.808,305.278,184.65,305.278 M187.586,296.276c-0.007,0.008-0.007,0.019-0.014,0.027
		c-0.861-0.499-1.857-0.789-2.922-0.789c-3.226,0-5.851,2.625-5.851,5.85c0,1.312,0.439,2.519,1.17,3.497
		c-3.058,2.929-6.373,5.562-9.893,7.876c-0.074-0.196-0.196-0.375-0.389-0.492c-3.985-2.421-8.188-4.426-12.539-6.013
		c3.923-7.381,6.977-16.438,8.885-26.572c10.563,2.367,19.538,5.823,25.866,10.104C190.584,292.009,189.15,294.187,187.586,296.276
		 M314.384,288.769c0,5.64-4.589,10.229-10.229,10.229H189.996c-0.239-0.538-0.559-1.032-0.941-1.47
		c0.028-0.03,0.059-0.056,0.084-0.088c7.167-9.576,11.842-20.881,13.519-32.689c0.016-0.112,0.002-0.22-0.019-0.324
		c5.317-0.127,9.605-4.481,9.605-9.829c0-5.37-4.326-9.743-9.675-9.832c0.057-0.149,0.091-0.309,0.067-0.478
		c-1.776-12.305-6.782-23.994-14.476-33.809c-0.008-0.01-0.02-0.014-0.028-0.023c0.743-0.981,1.188-2.198,1.188-3.521
		c0-3.228-2.624-5.853-5.851-5.853c-0.534,0-1.05,0.079-1.542,0.214V79.305c0-5.642,4.589-10.231,10.23-10.231h111.997
		c5.641,0,10.229,4.589,10.229,10.231V288.769z M426.573,218.696h3.767v7.021h-3.767V218.696z M417.487,218.696h3.767v7.021h-3.767
		V218.696z M408.401,218.696h3.767v7.021h-3.767V218.696z M399.316,218.696h3.767v7.021h-3.767V218.696z M390.23,218.696h3.767
		v7.021h-3.767V218.696z M381.145,218.696h3.768v7.021h-3.768V218.696z M372.06,218.696h3.768v7.021h-3.768V218.696z
		 M362.974,218.696h3.768v7.021h-3.768V218.696z M350.181,231.321h7.021v3.767h-7.021V231.321z M350.181,240.406h7.021v3.767h-7.021
		V240.406z M350.181,249.491h7.021v3.767h-7.021V249.491z M350.181,258.338h7.021v3.768h-7.021V258.338z M334.74,280.279
		c0-7.089,5.767-12.856,12.854-12.856s12.854,5.768,12.854,12.856v8.559H334.74V280.279z M366.085,319.281
		c0,1.738-1.413,3.151-3.151,3.151h-30.065c-1.738,0-3.152-1.413-3.152-3.151v-25.836c0-1.739,1.414-3.152,3.152-3.152h30.065
		c1.738,0,3.151,1.413,3.151,3.152V319.281z M376.032,310.83h-3.768v-7.021h3.768V310.83z M385.117,310.83h-3.768v-7.021h3.768
		V310.83z M394.203,310.83h-3.768v-7.021h3.768V310.83z M403.288,310.83h-3.767v-7.021h3.767V310.83z M412.374,310.83h-3.767v-7.021
		h3.767V310.83z M421.459,310.83h-3.767v-7.021h3.767V310.83z M430.545,310.83h-3.767v-7.021h3.767V310.83z M435.069,299.687
		c0,1.472-1.197,2.669-2.67,2.669H432h-6.677h-2.409h-6.676h-2.409h-6.676h-2.41h-6.677h-2.408h-6.676h-2.41h-6.676h-2.409h-6.677
		h-3.074c-0.069,0-0.133,0.021-0.196,0.039v-8.949c0-2.541-2.066-4.607-4.606-4.607h-1.03v-8.559c0-3.547-1.305-6.79-3.448-9.292
		c0.122-0.131,0.2-0.305,0.2-0.497v-6.932v-6.676v-2.17v-6.677v-2.408v-6.676v-2.409v-6.676v-0.025c0-1.472,1.197-2.67,2.67-2.67
		h0.194h6.676h2.41h6.676h2.409h6.676h2.41h6.676h2.409h6.676h2.41h6.676h2.409h6.676h2.41h6.676h0.605
		c1.473,0,2.67,1.198,2.67,2.67V299.687z M436.526,294.679h7.02v3.769h-7.02V294.679z M436.526,285.594h7.02v3.769h-7.02V285.594z
		 M436.526,276.507h7.02v3.769h-7.02V276.507z M436.526,267.423h7.02v3.768h-7.02V267.423z M436.526,258.338h7.02v3.768h-7.02
		V258.338z M436.526,249.253h7.02v3.767h-7.02V249.253z M436.526,240.168h7.02v3.765h-7.02V240.168z"/>
	<path clip-path="url(#SVGID_2_)" fill="#FFFFFF" d="M163.099,38.468c0.55,0.55,1.281,0.853,2.058,0.853
		c0.777,0,1.508-0.303,2.056-0.853l1.143-1.143c1.135-1.135,1.135-2.98,0-4.114l-1.143-1.144c-1.134-1.132-2.979-1.132-4.114,0
		l-1.142,1.144c-1.135,1.134-1.135,2.979,0,4.114L163.099,38.468z M163.328,34.582l1.142-1.144c0.189-0.188,0.438-0.282,0.688-0.282
		c0.248,0,0.495,0.095,0.684,0.282l1.143,1.144c0.378,0.379,0.378,0.993,0,1.371l-1.144,1.144c-0.365,0.368-1.002,0.368-1.37,0
		l-1.143-1.144C162.95,35.575,162.95,34.961,163.328,34.582"/>
	<path clip-path="url(#SVGID_2_)" fill="#FFFFFF" d="M228.194,97.56c2.968,0,5.383-2.414,5.383-5.384
		c0-2.968-2.415-5.382-5.383-5.382s-5.383,2.414-5.383,5.382C222.812,95.146,225.227,97.56,228.194,97.56 M228.194,88.732
		c1.899,0,3.443,1.545,3.443,3.443c0,1.899-1.544,3.445-3.443,3.445c-1.898,0-3.444-1.546-3.444-3.445
		C224.75,90.278,226.296,88.732,228.194,88.732"/>
	<path clip-path="url(#SVGID_2_)" fill="#FFDA68" d="M152.122,38.468c0.549,0.55,1.28,0.853,2.058,0.853
		c0.776,0,1.507-0.303,2.056-0.853l1.143-1.143c1.135-1.135,1.135-2.98,0-4.114l-1.144-1.144c-1.135-1.132-2.981-1.132-4.112,0
		l-1.143,1.144c-1.134,1.134-1.134,2.979,0,4.114L152.122,38.468z M152.351,34.582l1.143-1.144c0.189-0.188,0.438-0.282,0.686-0.282
		s0.496,0.093,0.685,0.282l1.143,1.144c0.378,0.379,0.378,0.993,0,1.371l-1.143,1.144c-0.367,0.369-1.003,0.369-1.371,0
		l-1.143-1.144C151.973,35.575,151.973,34.961,152.351,34.582"/>
	<path clip-path="url(#SVGID_2_)" fill="#FFDA68" d="M58.508,65.514h5.501v10.887c0,1,0.812,1.813,1.811,1.813h6.576
		c0.999,0,1.812-0.813,1.812-1.813V65.514h5.499c0.705,0,1.351-0.413,1.647-1.054c0.295-0.642,0.188-1.401-0.27-1.935L70.487,50.127
		c-0.687-0.808-2.067-0.813-2.755-0.003L57.135,62.522c-0.461,0.532-0.567,1.294-0.272,1.939
		C57.159,65.101,57.804,65.514,58.508,65.514 M69.108,51.499L79.43,63.574h-7.162l0.128,12.701h-6.448V63.574h-7.162L69.108,51.499z
		"/>
	<path clip-path="url(#SVGID_2_)" fill="#FFFFFF" d="M277.769,147.795h-59.226c-0.536,0-0.969,0.434-0.969,0.97
		c0,0.535,0.433,0.969,0.969,0.969h59.226c0.536,0,0.971-0.434,0.971-0.969C278.739,148.229,278.305,147.795,277.769,147.795"/>
	<path clip-path="url(#SVGID_2_)" fill="#FFDA68" d="M277.769,239.312h-59.226c-0.536,0-0.969,0.435-0.969,0.969
		c0,0.536,0.433,0.971,0.969,0.971h59.226c0.536,0,0.971-0.435,0.971-0.971C278.739,239.746,278.305,239.312,277.769,239.312"/>
	<path clip-path="url(#SVGID_2_)" fill="#FFFFFF" d="M277.769,170.673h-59.226c-0.536,0-0.969,0.434-0.969,0.97
		s0.433,0.969,0.969,0.969h59.226c0.536,0,0.971-0.433,0.971-0.969S278.305,170.673,277.769,170.673"/>
	<path clip-path="url(#SVGID_2_)" fill="#FFFFFF" d="M277.769,193.554h-59.226c-0.536,0-0.969,0.434-0.969,0.97
		c0,0.535,0.433,0.969,0.969,0.969h59.226c0.536,0,0.971-0.434,0.971-0.969C278.739,193.987,278.305,193.554,277.769,193.554"/>
	<path clip-path="url(#SVGID_2_)" fill="#FFFFFF" d="M141.145,38.468c0.567,0.569,1.312,0.851,2.057,0.851
		c0.745,0,1.49-0.284,2.057-0.851l1.143-1.143h0.001c1.132-1.135,1.132-2.98-0.001-4.114l-1.144-1.144
		c-1.133-1.132-2.98-1.132-4.113,0l-1.143,1.144c-1.135,1.134-1.135,2.979,0,4.114L141.145,38.468z M141.373,34.582l1.142-1.144
		c0.19-0.188,0.439-0.282,0.688-0.282c0.248,0,0.496,0.095,0.685,0.282l1.142,1.144c0.378,0.379,0.378,0.993,0,1.371l-1.142,1.144
		c-0.378,0.379-0.992,0.379-1.372,0l-1.143-1.144C140.995,35.575,140.995,34.961,141.373,34.582"/>
	<path clip-path="url(#SVGID_2_)" fill="#FFDA68" d="M277.769,216.432h-59.226c-0.536,0-0.969,0.434-0.969,0.97
		s0.433,0.969,0.969,0.969h59.226c0.536,0,0.971-0.433,0.971-0.969S278.305,216.432,277.769,216.432"/>
	<path clip-path="url(#SVGID_2_)" fill="#FFFFFF" d="M153.21,127.559c0,2.968,2.414,5.383,5.383,5.383
		c2.968,0,5.382-2.415,5.382-5.383c0-2.97-2.414-5.384-5.382-5.384C155.624,122.175,153.21,124.589,153.21,127.559 M162.036,127.559
		c0,1.898-1.544,3.443-3.443,3.443c-1.898,0-3.444-1.545-3.444-3.443c0-1.899,1.546-3.445,3.444-3.445
		C160.492,124.114,162.036,125.66,162.036,127.559"/>
	<path clip-path="url(#SVGID_2_)" fill="#FFFFFF" d="M429.041,190.157l-1.143,1.145c-1.135,1.134-1.135,2.979,0,4.113l1.143,1.144
		c0.55,0.549,1.281,0.852,2.057,0.852c0.778,0,1.509-0.303,2.057-0.852l1.144-1.144c1.134-1.135,1.134-2.979,0-4.113l-1.144-1.145
		C432.02,189.024,430.175,189.024,429.041,190.157 M432.927,194.044l-1.144,1.144c-0.365,0.367-1.002,0.367-1.371,0l-1.143-1.144
		c-0.378-0.378-0.378-0.992,0-1.371l1.143-1.145c0.188-0.187,0.438-0.281,0.687-0.281c0.248,0,0.496,0.095,0.686,0.281l1.143,1.145
		C433.305,193.052,433.305,193.666,432.927,194.044"/>
	<path clip-path="url(#SVGID_2_)" fill="#FFFFFF" d="M337.719,132.942c2.969,0,5.384-2.415,5.384-5.383
		c0-2.97-2.415-5.384-5.384-5.384c-2.968,0-5.383,2.414-5.383,5.384C332.336,130.527,334.751,132.942,337.719,132.942
		 M337.719,124.114c1.898,0,3.444,1.545,3.444,3.445c0,1.898-1.546,3.443-3.444,3.443s-3.442-1.545-3.442-3.443
		C334.276,125.659,335.82,124.114,337.719,124.114"/>
	<path clip-path="url(#SVGID_2_)" fill="#FFFFFF" d="M417.276,95.317c0-0.536-0.434-0.97-0.97-0.97h-11.635
		c-0.537,0-0.971,0.434-0.971,0.97c0,0.536,0.434,0.97,0.971,0.97h11.635C416.843,96.288,417.276,95.854,417.276,95.317"/>
	<path clip-path="url(#SVGID_2_)" fill="#FFFFFF" d="M374.427,76.081c0.132,0.061,0.27,0.089,0.404,0.089
		c0.367,0,0.718-0.209,0.882-0.565c0.225-0.486,0.012-1.063-0.475-1.286c-13.412-6.175-22.078-19.701-22.078-34.463
		c0-20.908,17.011-37.917,37.918-37.917c20.449,0,37.159,16.272,37.884,36.547l-7.013-5.036c-0.434-0.315-1.041-0.213-1.354,0.221
		c-0.312,0.436-0.213,1.042,0.224,1.354l8.967,6.441l1.282-0.134l7.442-8.174c0.361-0.396,0.333-1.01-0.063-1.371
		c-0.395-0.358-1.008-0.332-1.369,0.064l-6.173,6.78C430.253,17.22,412.645,0,391.078,0c-21.978,0-39.857,17.88-39.857,39.856
		C351.221,55.371,360.33,69.591,374.427,76.081"/>
	<path clip-path="url(#SVGID_2_)" fill="#FFFFFF" d="M232.758,15.848h11.636c0.536,0,0.97-0.434,0.97-0.97
		c0-0.536-0.434-0.969-0.97-0.969h-11.636c-0.536,0-0.97,0.433-0.97,0.969C231.788,15.414,232.222,15.848,232.758,15.848"/>
	<path clip-path="url(#SVGID_2_)" fill="#FFDA68" d="M246.849,97.56c2.97,0,5.385-2.414,5.385-5.384
		c0-2.968-2.415-5.382-5.385-5.382c-2.969,0-5.383,2.414-5.383,5.382C241.466,95.146,243.88,97.56,246.849,97.56 M246.849,88.732
		c1.899,0,3.444,1.545,3.444,3.443c0,1.899-1.545,3.445-3.444,3.445c-1.897,0-3.443-1.546-3.443-3.445
		C243.405,90.278,244.951,88.732,246.849,88.732"/>
	<path clip-path="url(#SVGID_2_)" fill="#FFFFFF" d="M426.973,95.317c0,0.536,0.435,0.97,0.971,0.97h11.635
		c0.537,0,0.97-0.434,0.97-0.97c0-0.536-0.433-0.97-0.97-0.97h-11.635C427.407,94.348,426.973,94.782,426.973,95.317"/>
	<path clip-path="url(#SVGID_2_)" fill="#FFFFFF" d="M418.063,196.559c0.549,0.55,1.28,0.852,2.058,0.852
		c0.776,0,1.508-0.302,2.057-0.852l1.143-1.145c1.135-1.134,1.135-2.979,0-4.112l-1.144-1.145c-1.136-1.132-2.981-1.132-4.112,0
		l-1.143,1.145c-1.136,1.134-1.136,2.979,0,4.112L418.063,196.559z M418.293,192.673l1.143-1.145
		c0.188-0.187,0.438-0.282,0.686-0.282s0.496,0.094,0.686,0.282l1.143,1.145c0.378,0.379,0.378,0.992,0,1.371l-1.143,1.144
		c-0.367,0.369-1.004,0.367-1.371,0l-1.143-1.144C417.914,193.665,417.914,193.052,418.293,192.673"/>
	<path clip-path="url(#SVGID_2_)" fill="#FFFFFF" d="M295.971,20.929c0.191,0.241,0.474,0.365,0.76,0.365
		c0.212,0,0.425-0.068,0.603-0.21l6.843-5.447c0.229-0.182,0.363-0.458,0.366-0.75c0.003-0.291-0.126-0.568-0.351-0.755
		l-6.553-5.445c-0.414-0.341-1.024-0.286-1.366,0.127c-0.343,0.41-0.285,1.022,0.127,1.365l5.636,4.684l-5.91,4.702
		C295.707,19.901,295.639,20.51,295.971,20.929"/>
	<path clip-path="url(#SVGID_2_)" fill="#FFFFFF" d="M407.087,190.157l-1.144,1.145c-1.135,1.134-1.135,2.979,0,4.113l1.144,1.144
		c0.566,0.568,1.312,0.851,2.056,0.851c0.746,0,1.491-0.283,2.059-0.851l1.143-1.144h0.001c1.131-1.135,1.131-2.979-0.001-4.113
		l-1.145-1.145C410.066,189.024,408.22,189.024,407.087,190.157 M410.972,194.044l-1.142,1.144c-0.378,0.379-0.993,0.379-1.372,0
		l-1.144-1.144c-0.378-0.378-0.378-0.992,0-1.371l1.143-1.145c0.188-0.187,0.438-0.281,0.687-0.281c0.248,0,0.496,0.095,0.687,0.281
		l1.142,1.145C411.35,193.052,411.35,193.666,410.972,194.044"/>
	<path clip-path="url(#SVGID_2_)" fill="#FFFFFF" d="M256.029,15.848h11.637c0.536,0,0.97-0.434,0.97-0.97
		c0-0.536-0.434-0.969-0.97-0.969h-11.637c-0.535,0-0.97,0.433-0.97,0.969C255.06,15.414,255.494,15.848,256.029,15.848"/>
	<path clip-path="url(#SVGID_2_)" fill="#FFFFFF" d="M12.313,71c0,10.555,8.586,19.142,19.141,19.142h36.685v10.219
		c-2.948,0.404-5.324,2.61-5.977,5.471c-0.015-0.001-0.027-0.009-0.041-0.009H24.065c-0.536,0-0.969,0.434-0.969,0.97
		s0.433,0.969,0.969,0.969h37.93c0.182,3.771,3.298,6.785,7.112,6.785c3.815,0,6.931-3.014,7.114-6.785h37.929
		c0.536,0,0.97-0.433,0.97-0.969s-0.434-0.97-0.97-0.97H76.053c-0.656-2.856-3.03-5.059-5.975-5.462V90.142h38.91
		c9.327,0,16.916-7.587,16.916-16.914c0-5.835-3.047-11.29-7.992-14.377c0.018-0.432,0.026-0.862,0.026-1.286
		C117.938,39.608,103.325,25,85.36,25c-9.234,0-18.036,3.97-24.161,10.745c-2.556-2.082-6.15-2.796-9.221-1.816
		c-1.897-5.272-6.945-8.869-12.627-8.869c-0.645,0-1.291,0.048-1.93,0.14c-3.334-4.901-8.808-7.808-14.772-7.808
		c-9.859,0-17.88,8.017-17.88,17.873c0,0.558,0.028,1.126,0.082,1.695C1.92,38.354,0,41.353,0,44.643
		c0,4.688,3.814,8.502,8.501,8.502h16.068C17.408,55.916,12.313,62.872,12.313,71 M74.3,107.416c0,2.862-2.329,5.191-5.192,5.191
		c-2.862,0-5.191-2.329-5.191-5.191c0-2.683,2.048-4.897,4.663-5.162c0.154,0.103,0.329,0.177,0.528,0.177
		c0.2,0,0.375-0.074,0.529-0.177C72.251,102.519,74.3,104.732,74.3,107.416 M8.5,51.205c-3.618,0-6.561-2.943-6.561-6.562
		c0-2.741,1.726-5.218,4.295-6.164l0.732-0.269l-0.107-0.773c-0.099-0.727-0.151-1.458-0.151-2.172
		c0-8.786,7.151-15.933,15.941-15.933c5.511,0,10.553,2.783,13.488,7.448l0.355,0.562l0.652-0.128
		C37.871,27.071,38.613,27,39.352,27c5.167,0,9.723,3.477,11.077,8.454l0.297,1.096l1.036-0.465c2.615-1.171,5.902-0.699,8.179,1.14
		c-0.176,0.219-0.359,0.432-0.529,0.657c-0.646-0.051-1.295-0.076-1.942-0.076c-9.368,0-17.889,5.207-22.212,13.399H8.5z
		 M31.454,53.797c1.243,0,2.477,0.133,3.671,0.394l0.777,0.17l0.319-0.729c0.081-0.183,0.175-0.357,0.26-0.539
		c0.412-0.111,0.721-0.471,0.721-0.919c0-0.13-0.027-0.254-0.074-0.367c4.038-7.386,11.811-12.062,20.342-12.062
		c0.767,0,1.536,0.037,2.3,0.113l0.552,0.057l0.327-0.449c0.292-0.399,0.599-0.784,0.909-1.167c0.208-0.015,0.416-0.083,0.582-0.234
		c0.231-0.212,0.321-0.507,0.297-0.797c5.767-6.508,14.138-10.33,22.924-10.33c16.894,0,30.638,13.738,30.638,30.626
		c0,0.58-0.017,1.17-0.052,1.761l-0.035,0.599l0.519,0.299c4.647,2.678,7.534,7.661,7.534,13.004
		c0,8.257-6.719,14.974-14.977,14.974H31.454c-9.485,0-17.202-7.717-17.202-17.202C14.251,61.516,21.969,53.797,31.454,53.797"/>
	<path clip-path="url(#SVGID_2_)" fill="#FFDA68" d="M383.716,44.825c0,4.208,3.424,7.632,7.633,7.632
		c3.881,0,7.085-2.911,7.564-6.662h15.161c0.536,0,0.969-0.434,0.969-0.97c0-0.536-0.433-0.97-0.969-0.97h-15.161
		c-0.44-3.45-3.188-6.184-6.646-6.602c0.022-0.083,0.052-0.165,0.052-0.255V16.934c0-0.536-0.435-0.97-0.971-0.97
		c-0.535,0-0.97,0.434-0.97,0.97v20.064c0,0.09,0.029,0.172,0.052,0.255C386.654,37.708,383.716,40.928,383.716,44.825
		 M391.349,39.131c3.141,0,5.694,2.553,5.694,5.693c0,3.14-2.554,5.693-5.694,5.693c-3.14,0-5.693-2.553-5.693-5.693
		C385.655,41.685,388.209,39.131,391.349,39.131"/>
	<path clip-path="url(#SVGID_2_)" fill="#FFFFFF" d="M279.302,15.848h12.136c0.536,0,0.971-0.434,0.971-0.97
		c0-0.536-0.435-0.969-0.971-0.969h-12.136c-0.536,0-0.97,0.433-0.97,0.969C278.332,15.414,278.766,15.848,279.302,15.848"/>
	<path clip-path="url(#SVGID_2_)" fill="#FFFFFF" d="M420.247,238.696h-46.77c-1.471,0-2.667,1.196-2.667,2.666v47.834
		c0,1.47,1.196,2.667,2.667,2.667h46.77c1.47,0,2.667-1.197,2.667-2.667v-47.834C422.914,239.893,421.717,238.696,420.247,238.696
		 M421.459,289.196c0,0.669-0.543,1.212-1.212,1.212h-46.77c-0.669,0-1.213-0.543-1.213-1.212v-47.834
		c0-0.668,0.544-1.212,1.213-1.212h46.77c0.669,0,1.212,0.544,1.212,1.212V289.196z"/>
	<path clip-path="url(#SVGID_2_)" fill="#FFFFFF" d="M293.294,270.765c-4.902,0-8.891,3.989-8.891,8.89
		c0,4.904,3.988,8.893,8.891,8.893s8.891-3.988,8.891-8.893C302.185,274.754,298.196,270.765,293.294,270.765 M293.294,286.607
		c-3.833,0-6.951-3.119-6.951-6.953c0-3.833,3.118-6.949,6.951-6.949s6.952,3.116,6.952,6.949
		C300.246,283.488,297.127,286.607,293.294,286.607"/>
	<path clip-path="url(#SVGID_2_)" fill="#FFFFFF" d="M397.626,332.481c-1.134-1.136-2.979-1.136-4.115,0l-1.143,1.142
		c-1.135,1.136-1.135,2.981,0,4.115l1.143,1.144c0.567,0.567,1.313,0.849,2.058,0.849c0.744,0,1.489-0.281,2.058-0.849l1.143-1.144
		h0.001c1.133-1.134,1.133-2.979-0.001-4.115L397.626,332.481z M397.397,336.367l-1.144,1.144c-0.378,0.379-0.993,0.378-1.372,0
		l-1.143-1.144c-0.379-0.379-0.379-0.994,0-1.373l1.143-1.142c0.189-0.189,0.438-0.284,0.687-0.284s0.497,0.095,0.686,0.284
		l1.143,1.142C397.775,335.373,397.775,335.988,397.397,336.367"/>
	<path clip-path="url(#SVGID_2_)" fill="#FFFFFF" d="M334.022,365.796c-0.438-0.308-1.045-0.201-1.35,0.24
		c-0.306,0.44-0.199,1.043,0.24,1.351l6.361,4.438c0.169,0.118,0.363,0.175,0.555,0.175c0.306,0,0.607-0.144,0.796-0.415
		c0.306-0.438,0.199-1.044-0.24-1.351L334.022,365.796z"/>
	<path clip-path="url(#SVGID_2_)" fill="#FFFFFF" d="M328.989,354.803c-0.536,0-0.97,0.436-0.97,0.97v7.759
		c0,0.536,0.434,0.969,0.97,0.969s0.97-0.433,0.97-0.969v-7.759C329.959,355.238,329.525,354.803,328.989,354.803"/>
	<path clip-path="url(#SVGID_2_)" fill="#FFFFFF" d="M323.956,365.796l-6.361,4.438c-0.439,0.307-0.547,0.912-0.24,1.351
		c0.188,0.271,0.49,0.415,0.796,0.415c0.191,0,0.386-0.057,0.554-0.175l6.362-4.438c0.438-0.308,0.546-0.91,0.24-1.351
		C324.999,365.597,324.396,365.49,323.956,365.796"/>
	<path clip-path="url(#SVGID_2_)" fill="#FFDA68" d="M408.603,332.481c-1.099-1.1-3.018-1.096-4.113,0l-1.144,1.142
		c-1.135,1.136-1.135,2.981,0,4.115l1.143,1.144c0.549,0.549,1.279,0.851,2.057,0.851s1.508-0.302,2.058-0.851l1.143-1.144
		c1.135-1.134,1.135-2.979,0-4.115L408.603,332.481z M408.374,336.367l-1.143,1.144c-0.367,0.369-1.004,0.366-1.371,0l-1.144-1.144
		c-0.379-0.379-0.379-0.994,0-1.373l1.145-1.142c0.183-0.184,0.425-0.284,0.684-0.284s0.502,0.101,0.687,0.284l1.143,1.142
		C408.753,335.373,408.753,335.988,408.374,336.367"/>
	<path clip-path="url(#SVGID_2_)" fill="#FFDA68" d="M397.094,261.953c4.131,0,7.49-3.36,7.49-7.49c0-4.131-3.359-7.491-7.49-7.491
		c-4.13,0-7.489,3.36-7.489,7.491C389.604,258.593,392.964,261.953,397.094,261.953 M397.094,248.427
		c3.329,0,6.036,2.708,6.036,6.036c0,3.327-2.707,6.035-6.036,6.035c-3.328,0-6.035-2.708-6.035-6.035
		C391.059,251.135,393.766,248.427,397.094,248.427"/>
	<path clip-path="url(#SVGID_2_)" fill="#FFDA68" d="M411.603,280.007h-29.017c-0.401,0-0.727,0.326-0.727,0.729
		c0,0.4,0.325,0.727,0.727,0.727h29.017c0.402,0,0.729-0.326,0.729-0.727C412.331,280.333,412.005,280.007,411.603,280.007"/>
	<path clip-path="url(#SVGID_2_)" fill="#FFFFFF" d="M347.901,302.251c-2.267,0-4.112,1.845-4.112,4.111
		c0,2.268,1.846,4.112,4.112,4.112s4.112-1.845,4.112-4.112C352.014,304.096,350.168,302.251,347.901,302.251 M347.901,309.02
		c-1.465,0-2.657-1.19-2.657-2.657c0-1.466,1.192-2.656,2.657-2.656s2.657,1.19,2.657,2.656
		C350.559,307.829,349.366,309.02,347.901,309.02"/>
	<path clip-path="url(#SVGID_2_)" fill="#FFFFFF" d="M79.548,140.53c-0.536,0-0.969,0.434-0.969,0.969
		c0,0.536,0.433,0.97,0.969,0.97h11.636c0.536,0,0.97-0.434,0.97-0.97c0-0.535-0.434-0.969-0.97-0.969H79.548z"/>
	<path clip-path="url(#SVGID_2_)" fill="#FFFFFF" d="M419.58,332.481c-1.098-1.096-3.015-1.1-4.114,0l-1.143,1.142
		c-1.135,1.136-1.135,2.981,0,4.115l1.143,1.144c0.549,0.549,1.28,0.851,2.057,0.851c0.777,0,1.509-0.302,2.057-0.851l1.144-1.144
		c1.135-1.134,1.135-2.979,0-4.115L419.58,332.481z M419.352,336.367l-1.145,1.144c-0.364,0.364-1.002,0.369-1.37,0l-1.143-1.144
		c-0.379-0.379-0.379-0.994,0-1.373l1.143-1.142c0.184-0.184,0.427-0.284,0.686-0.284c0.26,0,0.502,0.101,0.686,0.284l1.144,1.142
		C419.73,335.373,419.73,335.988,419.352,336.367"/>
	<path clip-path="url(#SVGID_2_)" fill="#FFDA68" d="M415.39,271.79h-36.592c-0.4,0-0.727,0.325-0.727,0.728
		c0,0.4,0.326,0.727,0.727,0.727h36.592c0.401,0,0.728-0.326,0.728-0.727C416.117,272.115,415.791,271.79,415.39,271.79"/>
	<path clip-path="url(#SVGID_2_)" fill="#FFFFFF" d="M38.945,314.411l-6.362,4.439c-0.439,0.307-0.546,0.912-0.241,1.351
		c0.189,0.271,0.491,0.415,0.797,0.415c0.191,0,0.386-0.058,0.554-0.175l6.362-4.439c0.439-0.307,0.546-0.909,0.24-1.35
		C39.989,314.213,39.383,314.108,38.945,314.411"/>
	<path clip-path="url(#SVGID_2_)" fill="#FFDA68" d="M34.202,192.334L34.202,192.334c1.133-1.135,1.133-2.981-0.002-4.116
		l-1.142-1.141c-1.097-1.1-3.015-1.1-4.114,0l-1.143,1.141c-1.135,1.135-1.135,2.981,0,4.116l1.143,1.142
		c0.549,0.549,1.28,0.853,2.056,0.853c0.778,0,1.509-0.304,2.057-0.853L34.202,192.334z M31.685,192.104
		c-0.364,0.367-1.001,0.367-1.37,0l-1.143-1.142c-0.379-0.379-0.379-0.994,0-1.374l1.143-1.142c0.183-0.184,0.427-0.283,0.685-0.283
		c0.26,0,0.502,0.1,0.687,0.283l1.142,1.142c0.379,0.38,0.379,0.995,0.001,1.374L31.685,192.104z"/>
	<path clip-path="url(#SVGID_2_)" fill="#FFFFFF" d="M22.081,187.076c-1.135-1.133-2.979-1.133-4.114,0l-1.143,1.142
		c-1.135,1.135-1.135,2.981,0,4.116l1.143,1.142c0.567,0.566,1.311,0.85,2.057,0.85c0.745,0,1.489-0.283,2.057-0.85l1.143-1.142
		c1.134-1.135,1.134-2.981,0-4.116L22.081,187.076z M21.852,190.963l-1.143,1.142c-0.378,0.379-0.992,0.379-1.371,0l-1.143-1.142
		c-0.379-0.379-0.379-0.994,0-1.374l1.143-1.142c0.189-0.189,0.437-0.283,0.686-0.283c0.248,0,0.496,0.094,0.685,0.283l1.143,1.142
		C22.23,189.969,22.23,190.584,21.852,190.963"/>
	<path clip-path="url(#SVGID_2_)" fill="#FFDA68" d="M265.505,97.56c2.969,0,5.384-2.414,5.384-5.384
		c0-2.968-2.415-5.382-5.384-5.382c-2.968,0-5.383,2.414-5.383,5.382C260.122,95.146,262.537,97.56,265.505,97.56 M265.505,88.732
		c1.899,0,3.444,1.545,3.444,3.443c0,1.899-1.545,3.445-3.444,3.445c-1.898,0-3.444-1.546-3.444-3.445
		C262.061,90.278,263.606,88.732,265.505,88.732"/>
	<path clip-path="url(#SVGID_2_)" fill="#FFFFFF" d="M56.276,140.53c-0.536,0-0.97,0.434-0.97,0.969c0,0.536,0.434,0.97,0.97,0.97
		h11.636c0.536,0,0.97-0.434,0.97-0.97c0-0.535-0.434-0.969-0.97-0.969H56.276z"/>
	<path clip-path="url(#SVGID_2_)" fill="#FFFFFF" d="M277.769,124.915h-59.226c-0.536,0-0.969,0.434-0.969,0.97
		c0,0.535,0.433,0.969,0.969,0.969h59.226c0.536,0,0.971-0.434,0.971-0.969C278.739,125.349,278.305,124.915,277.769,124.915"/>
	<path clip-path="url(#SVGID_2_)" fill="#FFFFFF" d="M49.012,314.411c-0.439-0.305-1.046-0.2-1.351,0.241
		c-0.305,0.44-0.198,1.043,0.241,1.35l6.361,4.439c0.169,0.117,0.363,0.175,0.555,0.175c0.305,0,0.608-0.144,0.796-0.415
		c0.306-0.438,0.199-1.044-0.241-1.351L49.012,314.411z"/>
	<path clip-path="url(#SVGID_2_)" fill="#FFFFFF" d="M206.282,359.534c-0.333-0.419-0.942-0.492-1.363-0.154l-6.842,5.444
		c-0.229,0.183-0.363,0.456-0.366,0.75c-0.003,0.291,0.125,0.568,0.35,0.756l6.553,5.446c0.181,0.15,0.401,0.224,0.619,0.224
		c0.278,0,0.555-0.118,0.746-0.351c0.343-0.411,0.286-1.022-0.125-1.365l-5.636-4.684l5.91-4.702
		C206.546,360.564,206.615,359.953,206.282,359.534"/>
	<path clip-path="url(#SVGID_2_)" fill="#FFFFFF" d="M43.979,301.889c-0.536,0-0.97,0.435-0.97,0.971v7.758
		c0,0.536,0.434,0.969,0.97,0.969s0.97-0.433,0.97-0.969v-7.758C44.949,302.323,44.515,301.889,43.979,301.889"/>
	<path clip-path="url(#SVGID_2_)" fill="#FFFFFF" d="M44.035,187.076c-1.099-1.099-3.018-1.099-4.113,0l-1.143,1.142
		c-1.135,1.135-1.135,2.981,0,4.116l1.142,1.142c0.549,0.55,1.28,0.852,2.057,0.852s1.508-0.302,2.057-0.852l1.143-1.142
		c1.135-1.135,1.135-2.981,0-4.116L44.035,187.076z M43.807,190.963l-1.143,1.142c-0.367,0.369-1.003,0.367-1.371,0l-1.143-1.142
		c-0.379-0.379-0.379-0.994,0-1.374l1.144-1.142c0.183-0.184,0.425-0.283,0.684-0.283c0.259,0,0.502,0.1,0.686,0.283l1.143,1.142
		C44.186,189.969,44.186,190.584,43.807,190.963"/>
	<path clip-path="url(#SVGID_2_)" fill="#FFFFFF" d="M290.768,364.613h-11.636c-0.536,0-0.97,0.435-0.97,0.971
		c0,0.535,0.434,0.969,0.97,0.969h11.636c0.536,0,0.97-0.434,0.97-0.969C291.737,365.048,291.304,364.613,290.768,364.613"/>
	<path clip-path="url(#SVGID_2_)" fill="#FFFFFF" d="M244.224,364.613h-11.636c-0.536,0-0.971,0.435-0.971,0.971
		c0,0.535,0.435,0.969,0.971,0.969h11.636c0.536,0,0.97-0.434,0.97-0.969C245.193,365.048,244.76,364.613,244.224,364.613"/>
	<path clip-path="url(#SVGID_2_)" fill="#FFFFFF" d="M220.951,364.613h-11.636c-0.536,0-0.969,0.435-0.969,0.971
		c0,0.535,0.433,0.969,0.969,0.969h11.636c0.536,0,0.97-0.434,0.97-0.969C221.921,365.048,221.487,364.613,220.951,364.613"/>
	<path clip-path="url(#SVGID_2_)" fill="#FFFFFF" d="M267.496,364.613h-11.637c-0.536,0-0.97,0.435-0.97,0.971
		c0,0.535,0.434,0.969,0.97,0.969h11.637c0.535,0,0.97-0.434,0.97-0.969C268.466,365.048,268.031,364.613,267.496,364.613"/>
</g>
</svg>
