<?xml version="1.0" encoding="utf-8"?>
<!-- Generator: Adobe Illustrator 16.0.0, SVG Export Plug-In . SVG Version: 6.00 Build 0)  -->
<!DOCTYPE svg PUBLIC "-//W3C//DTD SVG 1.1//EN" "http://www.w3.org/Graphics/SVG/1.1/DTD/svg11.dtd">
<svg version="1.1" id="Layer_1" xmlns="http://www.w3.org/2000/svg" xmlns:xlink="http://www.w3.org/1999/xlink" x="0px" y="0px"
	viewBox="0 0 62 67.714" enable-background="new 0 0 62 67.714" xml:space="preserve">
<g>
	<defs>
		<rect id="SVGID_1_" y="0" width="62" height="67.714"/>
	</defs>
	<clipPath id="SVGID_2_">
		<use xlink:href="#SVGID_1_"  overflow="visible"/>
	</clipPath>
	
		<path clip-path="url(#SVGID_2_)" fill="none" stroke="#FFFFFF" stroke-width="2" stroke-linecap="round" stroke-linejoin="round" d="
		M15.962,59.73c3.377-2.758,6.237-3.025,9.301-3.025H41.28c4.342,0,10.006-5.713,16.855-11.52c2.526-2.141,3.861-4.113,1.979-6.153
		c-1.881-2.038-4.819-0.159-5.904,0.573l-11.426,7.712"/>
	
		<path clip-path="url(#SVGID_2_)" fill="none" stroke="#FFFFFF" stroke-width="2" stroke-linecap="round" stroke-linejoin="round" d="
		M32.703,49.563h6.854c4.597,0,4.597-7.142,0-7.142H22.404c-2.859,0-7.851,1.564-13.47,6.068"/>
	
		<path clip-path="url(#SVGID_2_)" fill="none" stroke="#FFFFFF" stroke-width="2" stroke-linecap="round" stroke-linejoin="round" d="
		M16.641,63.954l-4.02,2.516c-0.78,0.487-1.828,0.225-2.343-0.588L1.274,51.652c-0.505-0.798-0.293-1.836,0.472-2.313l4.045-2.53
		c0.789-0.495,1.849-0.229,2.37,0.594l8.965,14.169C17.646,62.392,17.429,63.461,16.641,63.954z"/>
	
		<path clip-path="url(#SVGID_2_)" fill="none" stroke="#FFDA68" stroke-width="2" stroke-linecap="round" stroke-linejoin="round" d="
		M44.635,18.14c0-0.88-0.093-1.738-0.26-2.571l3.76-2.7l-3.901-6.597l-4.284,1.833c-1.319-1.125-2.858-2.003-4.551-2.569L34.882,1
		H27.08l-0.513,4.523c-1.692,0.565-3.235,1.457-4.554,2.582l-4.284-1.833l-3.902,6.597l3.76,2.7c-0.167,0.833-0.26,1.691-0.26,2.571
		c0,0.881,0.093,1.739,0.26,2.571l-3.76,2.7l3.902,6.598l4.284-1.833c1.319,1.124,2.867,2.021,4.559,2.586l0.508,4.52h7.802
		l0.517-4.537c1.692-0.565,3.231-1.444,4.551-2.568l4.284,1.833l3.901-6.598l-3.76-2.7C44.542,19.878,44.635,19.021,44.635,18.14z"
		/>
	
		<circle clip-path="url(#SVGID_2_)" fill="none" stroke="#FFDA68" stroke-width="2" stroke-linecap="round" stroke-linejoin="round" cx="30.981" cy="18.14" r="5.718"/>
</g>
</svg>
