<?xml version="1.0" encoding="utf-8"?>
<!-- Generator: Adobe Illustrator 16.0.0, SVG Export Plug-In . SVG Version: 6.00 Build 0)  -->
<!DOCTYPE svg PUBLIC "-//W3C//DTD SVG 1.1//EN" "http://www.w3.org/Graphics/SVG/1.1/DTD/svg11.dtd">
<svg version="1.1" id="Layer_1" xmlns="http://www.w3.org/2000/svg" xmlns:xlink="http://www.w3.org/1999/xlink" x="0px" y="0px"
	viewBox="0 0 62 60.207" enable-background="new 0 0 62 60.207" xml:space="preserve">
<g>
	<defs>
		<rect id="SVGID_1_" y="0" width="62" height="60.207"/>
	</defs>
	<clipPath id="SVGID_2_">
		<use xlink:href="#SVGID_1_"  overflow="visible"/>
	</clipPath>
	
		<path clip-path="url(#SVGID_2_)" fill="none" stroke="#FFFFFF" stroke-width="2" stroke-linecap="round" stroke-linejoin="round" d="
		M8.826,59.207H2.305C1.584,59.207,1,58.623,1,57.902v-5.201c0-0.72,0.584-1.304,1.305-1.304h6.521c0.721,0,1.305,0.584,1.305,1.304
		v5.201C10.131,58.623,9.547,59.207,8.826,59.207z"/>
	
		<path clip-path="url(#SVGID_2_)" fill="none" stroke="#FFFFFF" stroke-width="2" stroke-linecap="round" stroke-linejoin="round" d="
		M59.695,59.207h-7.826c-0.72,0-1.304-0.584-1.304-1.305V21.381c0-0.721,0.584-1.305,1.304-1.305h7.826
		c0.721,0,1.305,0.584,1.305,1.305v36.521C61,58.623,60.416,59.207,59.695,59.207z"/>
	
		<path clip-path="url(#SVGID_2_)" fill="none" stroke="#FFFFFF" stroke-width="2" stroke-linecap="round" stroke-linejoin="round" d="
		M42.739,59.207h-7.826c-0.721,0-1.305-0.584-1.305-1.305V34.424c0-0.721,0.584-1.305,1.305-1.305h7.826
		c0.721,0,1.305,0.584,1.305,1.305v23.478C44.044,58.623,43.46,59.207,42.739,59.207z"/>
	
		<path clip-path="url(#SVGID_2_)" fill="none" stroke="#FFFFFF" stroke-width="2" stroke-linecap="round" stroke-linejoin="round" d="
		M25.782,59.207h-7.826c-0.72,0-1.304-0.584-1.304-1.305v-13.01c0-0.722,0.584-1.306,1.304-1.306h7.826
		c0.721,0,1.305,0.584,1.305,1.306v13.01C27.087,58.623,26.503,59.207,25.782,59.207z"/>
	
		<path clip-path="url(#SVGID_2_)" fill="none" stroke="#FFDA68" stroke-width="2" stroke-linecap="round" stroke-linejoin="round" d="
		M2.305,44.859c0,0,16.389-4.649,33.913-22.175C47.956,10.946,49.831,1.897,49.831,1.897"/>
	
		<polyline clip-path="url(#SVGID_2_)" fill="none" stroke="#FFDA68" stroke-width="2" stroke-linecap="round" stroke-linejoin="round" points="
		54.479,10.946 50.063,1 41.435,7.033 	"/>
</g>
</svg>
