<?xml version="1.0" encoding="utf-8"?>
<!-- Generator: Adobe Illustrator 16.0.0, SVG Export Plug-In . SVG Version: 6.00 Build 0)  -->
<!DOCTYPE svg PUBLIC "-//W3C//DTD SVG 1.1//EN" "http://www.w3.org/Graphics/SVG/1.1/DTD/svg11.dtd">
<svg version="1.1" id="Layer_1" xmlns="http://www.w3.org/2000/svg" xmlns:xlink="http://www.w3.org/1999/xlink" x="0px" y="0px"
	viewBox="0 0 444.707 411.12" enable-background="new 0 0 444.707 411.12"
	 xml:space="preserve">
<rect x="23.279" y="85.528" fill="none" stroke="#FFFFFF" stroke-width="2" stroke-miterlimit="10" width="168.846" height="290.143"/>
<rect x="37.836" y="100.084" fill="none" stroke="#FFFFFF" stroke-miterlimit="10" width="139.734" height="54.341"/>
<rect x="99.94" y="107.847" fill="none" stroke="#FFFFFF" stroke-miterlimit="10" width="54.341" height="23.289"/>
<rect x="162.043" y="123.373" fill="none" stroke="#FFFFFF" stroke-miterlimit="10" width="7.764" height="7.763"/>
<rect x="76.649" y="123.373" fill="none" stroke="#FFFFFF" stroke-miterlimit="10" width="7.764" height="7.763"/>
<rect x="61.124" y="123.373" fill="none" stroke="#FFFFFF" stroke-miterlimit="10" width="7.763" height="7.763"/>
<rect x="45.598" y="123.373" fill="none" stroke="#FFFFFF" stroke-miterlimit="10" width="7.763" height="7.763"/>
<rect x="146.518" y="138.899" fill="none" stroke="#FFFFFF" stroke-miterlimit="10" width="7.763" height="7.763"/>
<rect x="162.043" y="138.899" fill="none" stroke="#FFFFFF" stroke-miterlimit="10" width="7.764" height="7.763"/>
<rect x="130.991" y="138.899" fill="none" stroke="#FFFFFF" stroke-miterlimit="10" width="7.763" height="7.763"/>
<rect x="115.465" y="138.899" fill="none" stroke="#FFFFFF" stroke-miterlimit="10" width="7.764" height="7.763"/>
<rect x="99.939" y="138.899" fill="none" stroke="#FFFFFF" stroke-miterlimit="10" width="7.763" height="7.763"/>
<rect x="76.649" y="138.899" fill="none" stroke="#FFFFFF" stroke-miterlimit="10" width="7.764" height="7.763"/>
<rect x="61.124" y="138.899" fill="none" stroke="#FFDA68" stroke-miterlimit="10" width="7.763" height="7.763"/>
<rect x="45.598" y="138.899" fill="none" stroke="#FFFFFF" stroke-miterlimit="10" width="7.763" height="7.763"/>
<rect x="76.649" y="107.847" fill="none" stroke="#FFFFFF" stroke-miterlimit="10" width="7.764" height="7.763"/>
<rect x="162.043" y="107.847" fill="none" stroke="#FFFFFF" stroke-miterlimit="10" width="7.764" height="7.763"/>
<rect x="142.636" y="111.729" fill="none" stroke="#FFFFFF" stroke-miterlimit="10" width="5.822" height="5.822"/>
<rect x="142.636" y="121.432" fill="none" stroke="#FF687D" stroke-miterlimit="10" width="5.822" height="5.822"/>
<rect x="132.932" y="111.729" fill="none" stroke="#FFFFFF" stroke-miterlimit="10" width="5.822" height="5.822"/>
<rect x="132.932" y="121.432" fill="none" stroke="#FFFFFF" stroke-miterlimit="10" width="5.822" height="5.822"/>
<rect x="105.762" y="111.729" fill="none" stroke="#FFFFFF" stroke-miterlimit="10" width="23.289" height="5.822"/>
<rect x="105.762" y="121.432" fill="none" stroke="#FFFFFF" stroke-miterlimit="10" width="23.289" height="5.822"/>
<rect x="61.124" y="107.847" fill="none" stroke="#FFFFFF" stroke-miterlimit="10" width="7.763" height="7.763"/>
<rect x="45.598" y="107.847" fill="none" stroke="#FFDA68" stroke-miterlimit="10" width="7.763" height="7.763"/>
<rect x="37.836" y="168.981" fill="none" stroke="#FFFFFF" stroke-miterlimit="10" width="139.734" height="54.341"/>
<rect x="99.94" y="176.744" fill="none" stroke="#FFFFFF" stroke-miterlimit="10" width="54.341" height="23.289"/>
<rect x="162.043" y="192.27" fill="none" stroke="#FFFFFF" stroke-miterlimit="10" width="7.764" height="7.763"/>
<rect x="76.649" y="192.27" fill="none" stroke="#FFFFFF" stroke-miterlimit="10" width="7.764" height="7.763"/>
<rect x="61.124" y="192.27" fill="none" stroke="#FFFFFF" stroke-miterlimit="10" width="7.763" height="7.763"/>
<rect x="45.598" y="192.27" fill="none" stroke="#FFFFFF" stroke-miterlimit="10" width="7.763" height="7.763"/>
<rect x="146.518" y="207.796" fill="none" stroke="#FFFFFF" stroke-miterlimit="10" width="7.763" height="7.764"/>
<rect x="162.043" y="207.796" fill="none" stroke="#FFFFFF" stroke-miterlimit="10" width="7.764" height="7.764"/>
<rect x="130.991" y="207.796" fill="none" stroke="#FFFFFF" stroke-miterlimit="10" width="7.763" height="7.764"/>
<rect x="115.465" y="207.796" fill="none" stroke="#FFFFFF" stroke-miterlimit="10" width="7.764" height="7.764"/>
<rect x="99.939" y="207.796" fill="none" stroke="#FFFFFF" stroke-miterlimit="10" width="7.763" height="7.764"/>
<rect x="76.649" y="207.796" fill="none" stroke="#FFFFFF" stroke-miterlimit="10" width="7.764" height="7.764"/>
<rect x="61.124" y="207.796" fill="none" stroke="#FFDA68" stroke-miterlimit="10" width="7.763" height="7.764"/>
<rect x="45.598" y="207.796" fill="none" stroke="#FFFFFF" stroke-miterlimit="10" width="7.763" height="7.764"/>
<rect x="76.649" y="176.744" fill="none" stroke="#FFFFFF" stroke-miterlimit="10" width="7.764" height="7.763"/>
<rect x="162.043" y="176.744" fill="none" stroke="#FFFFFF" stroke-miterlimit="10" width="7.764" height="7.763"/>
<rect x="142.636" y="180.626" fill="none" stroke="#FFFFFF" stroke-miterlimit="10" width="5.822" height="5.822"/>
<rect x="142.636" y="190.329" fill="none" stroke="#FF687D" stroke-miterlimit="10" width="5.822" height="5.822"/>
<rect x="132.932" y="180.626" fill="none" stroke="#FFFFFF" stroke-miterlimit="10" width="5.822" height="5.822"/>
<rect x="132.932" y="190.329" fill="none" stroke="#FFFFFF" stroke-miterlimit="10" width="5.822" height="5.822"/>
<rect x="105.762" y="180.626" fill="none" stroke="#FFFFFF" stroke-miterlimit="10" width="23.289" height="5.822"/>
<rect x="105.762" y="190.329" fill="none" stroke="#FFFFFF" stroke-miterlimit="10" width="23.289" height="5.822"/>
<rect x="61.124" y="176.744" fill="none" stroke="#FFFFFF" stroke-miterlimit="10" width="7.763" height="7.763"/>
<rect x="45.598" y="176.744" fill="none" stroke="#FFDA68" stroke-miterlimit="10" width="7.763" height="7.763"/>
<rect x="37.836" y="237.878" fill="none" stroke="#FFFFFF" stroke-miterlimit="10" width="139.734" height="54.341"/>
<rect x="99.94" y="245.642" fill="none" stroke="#FFFFFF" stroke-miterlimit="10" width="54.341" height="23.288"/>
<rect x="162.043" y="261.167" fill="none" stroke="#FFFFFF" stroke-miterlimit="10" width="7.764" height="7.763"/>
<rect x="76.649" y="261.167" fill="none" stroke="#FFFFFF" stroke-miterlimit="10" width="7.764" height="7.763"/>
<rect x="61.124" y="261.167" fill="none" stroke="#FFFFFF" stroke-miterlimit="10" width="7.763" height="7.763"/>
<rect x="45.598" y="261.167" fill="none" stroke="#FFFFFF" stroke-miterlimit="10" width="7.763" height="7.763"/>
<rect x="146.518" y="276.693" fill="none" stroke="#FFFFFF" stroke-miterlimit="10" width="7.763" height="7.763"/>
<rect x="162.043" y="276.693" fill="none" stroke="#FFFFFF" stroke-miterlimit="10" width="7.764" height="7.763"/>
<rect x="130.991" y="276.693" fill="none" stroke="#FFFFFF" stroke-miterlimit="10" width="7.763" height="7.763"/>
<rect x="115.465" y="276.693" fill="none" stroke="#FFFFFF" stroke-miterlimit="10" width="7.764" height="7.763"/>
<rect x="99.939" y="276.693" fill="none" stroke="#FFFFFF" stroke-miterlimit="10" width="7.763" height="7.763"/>
<rect x="76.649" y="276.693" fill="none" stroke="#FFFFFF" stroke-miterlimit="10" width="7.764" height="7.763"/>
<rect x="61.124" y="276.693" fill="none" stroke="#FFDA68" stroke-miterlimit="10" width="7.763" height="7.763"/>
<rect x="45.598" y="276.693" fill="none" stroke="#FFFFFF" stroke-miterlimit="10" width="7.763" height="7.763"/>
<rect x="76.649" y="245.642" fill="none" stroke="#FFFFFF" stroke-miterlimit="10" width="7.764" height="7.763"/>
<rect x="162.043" y="245.642" fill="none" stroke="#FFFFFF" stroke-miterlimit="10" width="7.764" height="7.763"/>
<rect x="142.636" y="249.522" fill="none" stroke="#FFFFFF" stroke-miterlimit="10" width="5.822" height="5.821"/>
<rect x="142.636" y="259.227" fill="none" stroke="#FF687D" stroke-miterlimit="10" width="5.822" height="5.821"/>
<rect x="132.932" y="249.522" fill="none" stroke="#FFFFFF" stroke-miterlimit="10" width="5.822" height="5.821"/>
<rect x="132.932" y="259.227" fill="none" stroke="#FFFFFF" stroke-miterlimit="10" width="5.822" height="5.821"/>
<rect x="105.762" y="249.522" fill="none" stroke="#FFFFFF" stroke-miterlimit="10" width="23.289" height="5.821"/>
<rect x="105.762" y="259.227" fill="none" stroke="#FFFFFF" stroke-miterlimit="10" width="23.289" height="5.821"/>
<rect x="61.124" y="245.642" fill="none" stroke="#FFFFFF" stroke-miterlimit="10" width="7.763" height="7.763"/>
<rect x="45.598" y="245.642" fill="none" stroke="#FF687D" stroke-miterlimit="10" width="7.763" height="7.763"/>
<rect x="37.836" y="306.775" fill="none" stroke="#FFFFFF" stroke-miterlimit="10" width="139.734" height="54.341"/>
<rect x="99.94" y="314.538" fill="none" stroke="#FFFFFF" stroke-miterlimit="10" width="54.341" height="23.289"/>
<rect x="162.043" y="330.064" fill="none" stroke="#FFFFFF" stroke-miterlimit="10" width="7.764" height="7.763"/>
<rect x="76.649" y="330.064" fill="none" stroke="#FFFFFF" stroke-miterlimit="10" width="7.764" height="7.763"/>
<rect x="61.124" y="330.064" fill="none" stroke="#FFFFFF" stroke-miterlimit="10" width="7.763" height="7.763"/>
<rect x="45.598" y="330.064" fill="none" stroke="#FFFFFF" stroke-miterlimit="10" width="7.763" height="7.763"/>
<rect x="146.518" y="345.589" fill="none" stroke="#FFFFFF" stroke-miterlimit="10" width="7.763" height="7.765"/>
<rect x="162.043" y="345.589" fill="none" stroke="#FFFFFF" stroke-miterlimit="10" width="7.764" height="7.765"/>
<rect x="130.991" y="345.589" fill="none" stroke="#FFFFFF" stroke-miterlimit="10" width="7.763" height="7.765"/>
<rect x="115.465" y="345.589" fill="none" stroke="#FFFFFF" stroke-miterlimit="10" width="7.764" height="7.765"/>
<rect x="99.939" y="345.589" fill="none" stroke="#FFFFFF" stroke-miterlimit="10" width="7.763" height="7.765"/>
<rect x="76.649" y="345.589" fill="none" stroke="#FFFFFF" stroke-miterlimit="10" width="7.764" height="7.765"/>
<rect x="61.124" y="345.589" fill="none" stroke="#FFDA68" stroke-miterlimit="10" width="7.763" height="7.765"/>
<rect x="45.598" y="345.589" fill="none" stroke="#FFFFFF" stroke-miterlimit="10" width="7.763" height="7.765"/>
<rect x="76.649" y="314.537" fill="none" stroke="#FFFFFF" stroke-miterlimit="10" width="7.764" height="7.763"/>
<rect x="162.043" y="314.537" fill="none" stroke="#FFFFFF" stroke-miterlimit="10" width="7.764" height="7.763"/>
<rect x="142.636" y="318.42" fill="none" stroke="#FFFFFF" stroke-miterlimit="10" width="5.822" height="5.822"/>
<rect x="142.636" y="328.123" fill="none" stroke="#FFDA68" stroke-miterlimit="10" width="5.822" height="5.822"/>
<rect x="132.932" y="318.42" fill="none" stroke="#FFFFFF" stroke-miterlimit="10" width="5.822" height="5.822"/>
<rect x="132.932" y="328.123" fill="none" stroke="#FFFFFF" stroke-miterlimit="10" width="5.822" height="5.822"/>
<rect x="105.762" y="318.42" fill="none" stroke="#FFFFFF" stroke-miterlimit="10" width="23.289" height="5.822"/>
<rect x="105.762" y="328.123" fill="none" stroke="#FFFFFF" stroke-miterlimit="10" width="23.289" height="5.822"/>
<rect x="61.124" y="314.537" fill="none" stroke="#FFFFFF" stroke-miterlimit="10" width="7.763" height="7.763"/>
<rect x="45.598" y="314.537" fill="none" stroke="#FFDA68" stroke-miterlimit="10" width="7.763" height="7.763"/>
<rect x="252.288" y="85.528" fill="none" stroke="#FFFFFF" stroke-width="2" stroke-miterlimit="10" width="168.847" height="290.143"/>
<rect x="266.844" y="100.084" fill="none" stroke="#FFFFFF" stroke-miterlimit="10" width="139.735" height="54.341"/>
<rect x="328.948" y="107.847" fill="none" stroke="#FFFFFF" stroke-miterlimit="10" width="54.342" height="23.289"/>
<rect x="391.053" y="123.373" fill="none" stroke="#FFFFFF" stroke-miterlimit="10" width="7.764" height="7.763"/>
<rect x="305.659" y="123.373" fill="none" stroke="#FFFFFF" stroke-miterlimit="10" width="7.764" height="7.763"/>
<rect x="290.133" y="123.373" fill="none" stroke="#FFFFFF" stroke-miterlimit="10" width="7.765" height="7.763"/>
<rect x="274.607" y="123.373" fill="none" stroke="#FFFFFF" stroke-miterlimit="10" width="7.763" height="7.763"/>
<rect x="375.526" y="138.899" fill="none" stroke="#FFFFFF" stroke-miterlimit="10" width="7.764" height="7.763"/>
<rect x="391.053" y="138.899" fill="none" stroke="#FFFFFF" stroke-miterlimit="10" width="7.764" height="7.763"/>
<rect x="360.001" y="138.899" fill="none" stroke="#FFFFFF" stroke-miterlimit="10" width="7.763" height="7.763"/>
<rect x="344.475" y="138.899" fill="none" stroke="#FFFFFF" stroke-miterlimit="10" width="7.764" height="7.763"/>
<rect x="328.948" y="138.899" fill="none" stroke="#FFFFFF" stroke-miterlimit="10" width="7.764" height="7.763"/>
<rect x="305.659" y="138.899" fill="none" stroke="#FFFFFF" stroke-miterlimit="10" width="7.764" height="7.763"/>
<rect x="290.133" y="138.899" fill="none" stroke="#FF687D" stroke-miterlimit="10" width="7.765" height="7.763"/>
<rect x="274.607" y="138.899" fill="none" stroke="#FFFFFF" stroke-miterlimit="10" width="7.763" height="7.763"/>
<rect x="305.659" y="107.847" fill="none" stroke="#FFFFFF" stroke-miterlimit="10" width="7.764" height="7.763"/>
<rect x="391.053" y="107.847" fill="none" stroke="#FFFFFF" stroke-miterlimit="10" width="7.764" height="7.763"/>
<rect x="371.646" y="111.729" fill="none" stroke="#FFFFFF" stroke-miterlimit="10" width="5.821" height="5.822"/>
<rect x="371.646" y="121.432" fill="none" stroke="#FFDA68" stroke-miterlimit="10" width="5.821" height="5.822"/>
<rect x="361.942" y="111.729" fill="none" stroke="#FFFFFF" stroke-miterlimit="10" width="5.821" height="5.822"/>
<rect x="361.942" y="121.432" fill="none" stroke="#FFFFFF" stroke-miterlimit="10" width="5.821" height="5.822"/>
<rect x="334.771" y="111.729" fill="none" stroke="#FFFFFF" stroke-miterlimit="10" width="23.288" height="5.822"/>
<rect x="334.771" y="121.432" fill="none" stroke="#FFFFFF" stroke-miterlimit="10" width="23.288" height="5.822"/>
<rect x="290.133" y="107.847" fill="none" stroke="#FFFFFF" stroke-miterlimit="10" width="7.765" height="7.763"/>
<rect x="274.607" y="107.847" fill="none" stroke="#FF687D" stroke-miterlimit="10" width="7.763" height="7.763"/>
<rect x="266.844" y="168.981" fill="none" stroke="#FFFFFF" stroke-miterlimit="10" width="139.735" height="54.341"/>
<rect x="328.948" y="176.744" fill="none" stroke="#FFFFFF" stroke-miterlimit="10" width="54.342" height="23.289"/>
<rect x="391.053" y="192.27" fill="none" stroke="#FFFFFF" stroke-miterlimit="10" width="7.764" height="7.763"/>
<rect x="305.659" y="192.27" fill="none" stroke="#FFFFFF" stroke-miterlimit="10" width="7.764" height="7.763"/>
<rect x="290.133" y="192.27" fill="none" stroke="#FFFFFF" stroke-miterlimit="10" width="7.765" height="7.763"/>
<rect x="274.607" y="192.27" fill="none" stroke="#FFFFFF" stroke-miterlimit="10" width="7.763" height="7.763"/>
<rect x="375.526" y="207.796" fill="none" stroke="#FFFFFF" stroke-miterlimit="10" width="7.764" height="7.764"/>
<rect x="391.053" y="207.796" fill="none" stroke="#FFFFFF" stroke-miterlimit="10" width="7.764" height="7.764"/>
<rect x="360.001" y="207.796" fill="none" stroke="#FFFFFF" stroke-miterlimit="10" width="7.763" height="7.764"/>
<rect x="344.475" y="207.796" fill="none" stroke="#FFFFFF" stroke-miterlimit="10" width="7.764" height="7.764"/>
<rect x="328.948" y="207.796" fill="none" stroke="#FFFFFF" stroke-miterlimit="10" width="7.764" height="7.764"/>
<rect x="305.659" y="207.796" fill="none" stroke="#FFFFFF" stroke-miterlimit="10" width="7.764" height="7.764"/>
<rect x="290.133" y="207.796" fill="none" stroke="#FF687D" stroke-miterlimit="10" width="7.765" height="7.764"/>
<rect x="274.607" y="207.796" fill="none" stroke="#FFFFFF" stroke-miterlimit="10" width="7.763" height="7.764"/>
<rect x="305.659" y="176.744" fill="none" stroke="#FFFFFF" stroke-miterlimit="10" width="7.764" height="7.763"/>
<rect x="391.053" y="176.744" fill="none" stroke="#FFFFFF" stroke-miterlimit="10" width="7.764" height="7.763"/>
<rect x="371.646" y="180.626" fill="none" stroke="#FFFFFF" stroke-miterlimit="10" width="5.821" height="5.822"/>
<rect x="371.646" y="190.329" fill="none" stroke="#FFDA68" stroke-miterlimit="10" width="5.821" height="5.822"/>
<rect x="361.942" y="180.626" fill="none" stroke="#FFFFFF" stroke-miterlimit="10" width="5.821" height="5.822"/>
<rect x="361.942" y="190.329" fill="none" stroke="#FFFFFF" stroke-miterlimit="10" width="5.821" height="5.822"/>
<rect x="334.771" y="180.626" fill="none" stroke="#FFFFFF" stroke-miterlimit="10" width="23.288" height="5.822"/>
<rect x="334.771" y="190.329" fill="none" stroke="#FFFFFF" stroke-miterlimit="10" width="23.288" height="5.822"/>
<rect x="290.133" y="176.744" fill="none" stroke="#FFFFFF" stroke-miterlimit="10" width="7.765" height="7.763"/>
<rect x="274.607" y="176.744" fill="none" stroke="#FF687D" stroke-miterlimit="10" width="7.763" height="7.763"/>
<rect x="266.844" y="237.878" fill="none" stroke="#FFFFFF" stroke-miterlimit="10" width="139.735" height="54.341"/>
<rect x="328.948" y="245.642" fill="none" stroke="#FFFFFF" stroke-miterlimit="10" width="54.342" height="23.288"/>
<rect x="391.053" y="261.167" fill="none" stroke="#FFFFFF" stroke-miterlimit="10" width="7.764" height="7.763"/>
<rect x="305.659" y="261.167" fill="none" stroke="#FFFFFF" stroke-miterlimit="10" width="7.764" height="7.763"/>
<rect x="290.133" y="261.167" fill="none" stroke="#FFFFFF" stroke-miterlimit="10" width="7.765" height="7.763"/>
<rect x="274.607" y="261.167" fill="none" stroke="#FFFFFF" stroke-miterlimit="10" width="7.763" height="7.763"/>
<rect x="375.526" y="276.693" fill="none" stroke="#FFFFFF" stroke-miterlimit="10" width="7.764" height="7.763"/>
<rect x="391.053" y="276.693" fill="none" stroke="#FFFFFF" stroke-miterlimit="10" width="7.764" height="7.763"/>
<rect x="360.001" y="276.693" fill="none" stroke="#FFFFFF" stroke-miterlimit="10" width="7.763" height="7.763"/>
<rect x="344.475" y="276.693" fill="none" stroke="#FFFFFF" stroke-miterlimit="10" width="7.764" height="7.763"/>
<rect x="328.948" y="276.693" fill="none" stroke="#FFFFFF" stroke-miterlimit="10" width="7.764" height="7.763"/>
<rect x="305.659" y="276.693" fill="none" stroke="#FFFFFF" stroke-miterlimit="10" width="7.764" height="7.763"/>
<rect x="290.133" y="276.693" fill="none" stroke="#FF687D" stroke-miterlimit="10" width="7.765" height="7.763"/>
<rect x="274.607" y="276.693" fill="none" stroke="#FFFFFF" stroke-miterlimit="10" width="7.763" height="7.763"/>
<rect x="305.659" y="245.642" fill="none" stroke="#FFFFFF" stroke-miterlimit="10" width="7.764" height="7.763"/>
<rect x="391.053" y="245.642" fill="none" stroke="#FFFFFF" stroke-miterlimit="10" width="7.764" height="7.763"/>
<rect x="371.646" y="249.522" fill="none" stroke="#FFFFFF" stroke-miterlimit="10" width="5.821" height="5.821"/>
<rect x="371.646" y="259.227" fill="none" stroke="#FFDA68" stroke-miterlimit="10" width="5.821" height="5.821"/>
<rect x="361.942" y="249.522" fill="none" stroke="#FFFFFF" stroke-miterlimit="10" width="5.821" height="5.821"/>
<rect x="361.942" y="259.227" fill="none" stroke="#FFFFFF" stroke-miterlimit="10" width="5.821" height="5.821"/>
<rect x="334.771" y="249.522" fill="none" stroke="#FFFFFF" stroke-miterlimit="10" width="23.288" height="5.821"/>
<rect x="334.771" y="259.227" fill="none" stroke="#FFFFFF" stroke-miterlimit="10" width="23.288" height="5.821"/>
<rect x="290.133" y="245.642" fill="none" stroke="#FFFFFF" stroke-miterlimit="10" width="7.765" height="7.763"/>
<rect x="274.607" y="245.642" fill="none" stroke="#FFDA68" stroke-miterlimit="10" width="7.763" height="7.763"/>
<rect x="266.844" y="306.775" fill="none" stroke="#FFFFFF" stroke-miterlimit="10" width="139.735" height="54.341"/>
<rect x="328.948" y="314.538" fill="none" stroke="#FFFFFF" stroke-miterlimit="10" width="54.342" height="23.289"/>
<rect x="391.053" y="330.064" fill="none" stroke="#FFFFFF" stroke-miterlimit="10" width="7.764" height="7.763"/>
<rect x="305.659" y="330.064" fill="none" stroke="#FFFFFF" stroke-miterlimit="10" width="7.764" height="7.763"/>
<rect x="290.133" y="330.064" fill="none" stroke="#FFFFFF" stroke-miterlimit="10" width="7.765" height="7.763"/>
<rect x="274.607" y="330.064" fill="none" stroke="#FFFFFF" stroke-miterlimit="10" width="7.763" height="7.763"/>
<rect x="375.526" y="345.589" fill="none" stroke="#FFFFFF" stroke-miterlimit="10" width="7.764" height="7.765"/>
<rect x="391.053" y="345.589" fill="none" stroke="#FFFFFF" stroke-miterlimit="10" width="7.764" height="7.765"/>
<rect x="360.001" y="345.589" fill="none" stroke="#FFFFFF" stroke-miterlimit="10" width="7.763" height="7.765"/>
<rect x="344.475" y="345.589" fill="none" stroke="#FFFFFF" stroke-miterlimit="10" width="7.764" height="7.765"/>
<rect x="328.948" y="345.589" fill="none" stroke="#FFFFFF" stroke-miterlimit="10" width="7.764" height="7.765"/>
<rect x="305.659" y="345.589" fill="none" stroke="#FFFFFF" stroke-miterlimit="10" width="7.764" height="7.765"/>
<rect x="290.133" y="345.589" fill="none" stroke="#FF687D" stroke-miterlimit="10" width="7.765" height="7.765"/>
<rect x="274.607" y="345.589" fill="none" stroke="#FFFFFF" stroke-miterlimit="10" width="7.763" height="7.765"/>
<rect x="305.659" y="314.537" fill="none" stroke="#FFFFFF" stroke-miterlimit="10" width="7.764" height="7.763"/>
<rect x="391.053" y="314.537" fill="none" stroke="#FFFFFF" stroke-miterlimit="10" width="7.764" height="7.763"/>
<rect x="371.646" y="318.42" fill="none" stroke="#FFFFFF" stroke-miterlimit="10" width="5.821" height="5.822"/>
<rect x="371.646" y="328.123" fill="none" stroke="#FF687D" stroke-miterlimit="10" width="5.821" height="5.822"/>
<rect x="361.942" y="318.42" fill="none" stroke="#FFFFFF" stroke-miterlimit="10" width="5.821" height="5.822"/>
<rect x="361.942" y="328.123" fill="none" stroke="#FFFFFF" stroke-miterlimit="10" width="5.821" height="5.822"/>
<rect x="334.771" y="318.42" fill="none" stroke="#FFFFFF" stroke-miterlimit="10" width="23.288" height="5.822"/>
<rect x="334.771" y="328.123" fill="none" stroke="#FFFFFF" stroke-miterlimit="10" width="23.288" height="5.822"/>
<rect x="290.133" y="314.537" fill="none" stroke="#FFFFFF" stroke-miterlimit="10" width="7.765" height="7.763"/>
<rect x="274.607" y="314.537" fill="none" stroke="#FF687D" stroke-miterlimit="10" width="7.763" height="7.763"/>
<rect x="130.021" y="51.08" fill="#1E222F" width="184.372" height="359.04"/>
<g>
	<defs>
		<rect id="SVGID_1_" width="444.707" height="411.12"/>
	</defs>
	<clipPath id="SVGID_2_">
		<use xlink:href="#SVGID_1_"  overflow="visible"/>
	</clipPath>
	
		<rect x="130.021" y="51.08" clip-path="url(#SVGID_2_)" fill="none" stroke="#FFDA68" stroke-width="2" stroke-miterlimit="10" width="184.372" height="359.04"/>
</g>
<rect x="144.576" y="65.636" fill="none" stroke="#FFFFFF" stroke-miterlimit="10" width="155.261" height="54.341"/>
<rect x="222.207" y="73.399" fill="none" stroke="#FFFFFF" stroke-miterlimit="10" width="54.341" height="23.289"/>
<rect x="284.311" y="88.925" fill="none" stroke="#FFFFFF" stroke-miterlimit="10" width="7.765" height="7.763"/>
<rect x="198.918" y="88.925" fill="none" stroke="#FFFFFF" stroke-miterlimit="10" width="7.763" height="7.763"/>
<rect x="183.392" y="88.925" fill="none" stroke="#FFFFFF" stroke-miterlimit="10" width="7.763" height="7.763"/>
<rect x="167.865" y="88.925" fill="none" stroke="#FFFFFF" stroke-miterlimit="10" width="7.764" height="7.763"/>
<rect x="152.34" y="88.925" fill="none" stroke="#FFFFFF" stroke-miterlimit="10" width="7.763" height="7.763"/>
<rect x="268.785" y="104.45" fill="none" stroke="#FFFFFF" stroke-miterlimit="10" width="7.763" height="7.763"/>
<rect x="284.311" y="104.45" fill="none" stroke="#FFFFFF" stroke-miterlimit="10" width="7.765" height="7.763"/>
<rect x="253.259" y="104.45" fill="none" stroke="#FFFFFF" stroke-miterlimit="10" width="7.764" height="7.763"/>
<rect x="237.732" y="104.45" fill="none" stroke="#FFFFFF" stroke-miterlimit="10" width="7.764" height="7.763"/>
<rect x="222.207" y="104.45" fill="none" stroke="#FFFFFF" stroke-miterlimit="10" width="7.763" height="7.763"/>
<rect x="198.918" y="104.45" fill="none" stroke="#FFFFFF" stroke-miterlimit="10" width="7.763" height="7.763"/>
<rect x="183.392" y="104.45" fill="none" stroke="#FFDA68" stroke-miterlimit="10" width="7.763" height="7.763"/>
<rect x="167.865" y="104.45" fill="none" stroke="#FFFFFF" stroke-miterlimit="10" width="7.764" height="7.763"/>
<rect x="152.34" y="104.45" fill="none" stroke="#FFFFFF" stroke-miterlimit="10" width="7.763" height="7.763"/>
<rect x="198.918" y="73.399" fill="none" stroke="#FFFFFF" stroke-miterlimit="10" width="7.763" height="7.763"/>
<rect x="284.311" y="73.399" fill="none" stroke="#FFFFFF" stroke-miterlimit="10" width="7.765" height="7.763"/>
<rect x="264.904" y="77.28" fill="none" stroke="#FFFFFF" stroke-miterlimit="10" width="5.821" height="5.822"/>
<rect x="264.904" y="86.984" fill="none" stroke="#FFDA68" stroke-miterlimit="10" width="5.821" height="5.822"/>
<rect x="255.2" y="77.28" fill="none" stroke="#FFFFFF" stroke-miterlimit="10" width="5.822" height="5.822"/>
<rect x="255.2" y="86.984" fill="none" stroke="#FFFFFF" stroke-miterlimit="10" width="5.822" height="5.822"/>
<rect x="228.03" y="77.28" fill="none" stroke="#FFFFFF" stroke-miterlimit="10" width="23.289" height="5.822"/>
<rect x="228.03" y="86.984" fill="none" stroke="#FFFFFF" stroke-miterlimit="10" width="23.289" height="5.822"/>
<rect x="183.392" y="73.399" fill="none" stroke="#FFFFFF" stroke-miterlimit="10" width="7.763" height="7.763"/>
<rect x="167.865" y="73.399" fill="none" stroke="#FFDA68" stroke-miterlimit="10" width="7.764" height="7.763"/>
<rect x="152.34" y="73.399" fill="none" stroke="#FFFFFF" stroke-miterlimit="10" width="7.763" height="7.763"/>
<rect x="144.576" y="134.533" fill="none" stroke="#FFFFFF" stroke-miterlimit="10" width="155.261" height="54.341"/>
<rect x="222.207" y="142.296" fill="none" stroke="#FFFFFF" stroke-miterlimit="10" width="54.341" height="23.289"/>
<rect x="284.311" y="157.822" fill="none" stroke="#FFFFFF" stroke-miterlimit="10" width="7.765" height="7.763"/>
<rect x="198.918" y="157.822" fill="none" stroke="#FFFFFF" stroke-miterlimit="10" width="7.763" height="7.763"/>
<rect x="183.392" y="157.822" fill="none" stroke="#FFFFFF" stroke-miterlimit="10" width="7.763" height="7.763"/>
<rect x="167.865" y="157.822" fill="none" stroke="#FFFFFF" stroke-miterlimit="10" width="7.764" height="7.763"/>
<rect x="152.34" y="157.822" fill="none" stroke="#FFFFFF" stroke-miterlimit="10" width="7.763" height="7.763"/>
<rect x="268.785" y="173.347" fill="none" stroke="#FFFFFF" stroke-miterlimit="10" width="7.763" height="7.763"/>
<rect x="284.311" y="173.347" fill="none" stroke="#FFFFFF" stroke-miterlimit="10" width="7.765" height="7.763"/>
<rect x="253.259" y="173.347" fill="none" stroke="#FFFFFF" stroke-miterlimit="10" width="7.764" height="7.763"/>
<rect x="237.732" y="173.347" fill="none" stroke="#FFFFFF" stroke-miterlimit="10" width="7.764" height="7.763"/>
<rect x="222.207" y="173.347" fill="none" stroke="#FFFFFF" stroke-miterlimit="10" width="7.763" height="7.763"/>
<rect x="198.918" y="173.347" fill="none" stroke="#FFFFFF" stroke-miterlimit="10" width="7.763" height="7.763"/>
<rect x="183.392" y="173.347" fill="none" stroke="#FFDA68" stroke-miterlimit="10" width="7.763" height="7.763"/>
<rect x="167.865" y="173.347" fill="none" stroke="#FFFFFF" stroke-miterlimit="10" width="7.764" height="7.763"/>
<rect x="152.34" y="173.347" fill="none" stroke="#FFFFFF" stroke-miterlimit="10" width="7.763" height="7.763"/>
<rect x="198.918" y="142.295" fill="none" stroke="#FFFFFF" stroke-miterlimit="10" width="7.763" height="7.763"/>
<rect x="284.311" y="142.295" fill="none" stroke="#FFFFFF" stroke-miterlimit="10" width="7.765" height="7.763"/>
<rect x="264.904" y="146.177" fill="none" stroke="#FFFFFF" stroke-miterlimit="10" width="5.821" height="5.822"/>
<rect x="264.904" y="155.881" fill="none" stroke="#FFDA68" stroke-miterlimit="10" width="5.821" height="5.822"/>
<rect x="255.2" y="146.177" fill="none" stroke="#FFFFFF" stroke-miterlimit="10" width="5.822" height="5.822"/>
<rect x="255.2" y="155.881" fill="none" stroke="#FFFFFF" stroke-miterlimit="10" width="5.822" height="5.822"/>
<rect x="228.03" y="146.177" fill="none" stroke="#FFFFFF" stroke-miterlimit="10" width="23.289" height="5.822"/>
<rect x="228.03" y="155.881" fill="none" stroke="#FFFFFF" stroke-miterlimit="10" width="23.289" height="5.822"/>
<rect x="183.392" y="142.295" fill="none" stroke="#FFFFFF" stroke-miterlimit="10" width="7.763" height="7.763"/>
<rect x="167.865" y="142.295" fill="none" stroke="#FFDA68" stroke-miterlimit="10" width="7.764" height="7.763"/>
<rect x="152.34" y="142.295" fill="none" stroke="#FFFFFF" stroke-miterlimit="10" width="7.763" height="7.763"/>
<rect x="144.576" y="203.43" fill="none" stroke="#FFFFFF" stroke-miterlimit="10" width="155.261" height="54.341"/>
<rect x="222.207" y="211.193" fill="none" stroke="#FFFFFF" stroke-miterlimit="10" width="54.341" height="23.289"/>
<rect x="284.311" y="226.719" fill="none" stroke="#FFFFFF" stroke-miterlimit="10" width="7.765" height="7.764"/>
<rect x="198.918" y="226.719" fill="none" stroke="#FFFFFF" stroke-miterlimit="10" width="7.763" height="7.764"/>
<rect x="183.392" y="226.719" fill="none" stroke="#FFFFFF" stroke-miterlimit="10" width="7.763" height="7.764"/>
<rect x="167.865" y="226.719" fill="none" stroke="#FFFFFF" stroke-miterlimit="10" width="7.764" height="7.764"/>
<rect x="152.34" y="226.719" fill="none" stroke="#FFFFFF" stroke-miterlimit="10" width="7.763" height="7.764"/>
<rect x="268.785" y="242.244" fill="none" stroke="#FFFFFF" stroke-miterlimit="10" width="7.763" height="7.763"/>
<rect x="284.311" y="242.244" fill="none" stroke="#FFFFFF" stroke-miterlimit="10" width="7.765" height="7.763"/>
<rect x="253.259" y="242.244" fill="none" stroke="#FFFFFF" stroke-miterlimit="10" width="7.764" height="7.763"/>
<rect x="237.732" y="242.244" fill="none" stroke="#FFFFFF" stroke-miterlimit="10" width="7.764" height="7.763"/>
<rect x="222.207" y="242.244" fill="none" stroke="#FFFFFF" stroke-miterlimit="10" width="7.763" height="7.763"/>
<rect x="198.918" y="242.244" fill="none" stroke="#FFFFFF" stroke-miterlimit="10" width="7.763" height="7.763"/>
<rect x="183.392" y="242.244" fill="none" stroke="#FFDA68" stroke-miterlimit="10" width="7.763" height="7.763"/>
<rect x="167.865" y="242.244" fill="none" stroke="#FFFFFF" stroke-miterlimit="10" width="7.764" height="7.763"/>
<rect x="152.34" y="242.244" fill="none" stroke="#FFFFFF" stroke-miterlimit="10" width="7.763" height="7.763"/>
<rect x="198.918" y="211.192" fill="none" stroke="#FFFFFF" stroke-miterlimit="10" width="7.763" height="7.763"/>
<rect x="284.311" y="211.192" fill="none" stroke="#FFFFFF" stroke-miterlimit="10" width="7.765" height="7.763"/>
<rect x="264.904" y="215.074" fill="none" stroke="#FFFFFF" stroke-miterlimit="10" width="5.821" height="5.822"/>
<rect x="264.904" y="224.778" fill="none" stroke="#FFDA68" stroke-miterlimit="10" width="5.821" height="5.822"/>
<rect x="255.2" y="215.074" fill="none" stroke="#FFFFFF" stroke-miterlimit="10" width="5.822" height="5.822"/>
<rect x="255.2" y="224.778" fill="none" stroke="#FFFFFF" stroke-miterlimit="10" width="5.822" height="5.822"/>
<rect x="228.03" y="215.074" fill="none" stroke="#FFFFFF" stroke-miterlimit="10" width="23.289" height="5.822"/>
<rect x="228.03" y="224.778" fill="none" stroke="#FFFFFF" stroke-miterlimit="10" width="23.289" height="5.822"/>
<rect x="183.392" y="211.192" fill="none" stroke="#FFFFFF" stroke-miterlimit="10" width="7.763" height="7.763"/>
<rect x="167.865" y="211.192" fill="none" stroke="#FF687D" stroke-miterlimit="10" width="7.764" height="7.763"/>
<rect x="152.34" y="211.192" fill="none" stroke="#FFFFFF" stroke-miterlimit="10" width="7.763" height="7.763"/>
<rect x="144.576" y="272.327" fill="none" stroke="#FFFFFF" stroke-miterlimit="10" width="155.261" height="54.341"/>
<rect x="222.207" y="280.088" fill="none" stroke="#FFFFFF" stroke-miterlimit="10" width="54.341" height="23.29"/>
<rect x="284.311" y="295.615" fill="none" stroke="#FFFFFF" stroke-miterlimit="10" width="7.765" height="7.763"/>
<rect x="198.918" y="295.615" fill="none" stroke="#FFFFFF" stroke-miterlimit="10" width="7.763" height="7.763"/>
<rect x="183.392" y="295.615" fill="none" stroke="#FFFFFF" stroke-miterlimit="10" width="7.763" height="7.763"/>
<rect x="167.865" y="295.615" fill="none" stroke="#FFFFFF" stroke-miterlimit="10" width="7.764" height="7.763"/>
<rect x="152.34" y="295.615" fill="none" stroke="#FFFFFF" stroke-miterlimit="10" width="7.763" height="7.763"/>
<rect x="268.785" y="311.142" fill="none" stroke="#FFFFFF" stroke-miterlimit="10" width="7.763" height="7.763"/>
<rect x="284.311" y="311.142" fill="none" stroke="#FFFFFF" stroke-miterlimit="10" width="7.765" height="7.763"/>
<rect x="253.259" y="311.142" fill="none" stroke="#FFFFFF" stroke-miterlimit="10" width="7.764" height="7.763"/>
<rect x="237.732" y="311.142" fill="none" stroke="#FFFFFF" stroke-miterlimit="10" width="7.764" height="7.763"/>
<rect x="222.207" y="311.142" fill="none" stroke="#FFFFFF" stroke-miterlimit="10" width="7.763" height="7.763"/>
<rect x="198.918" y="311.142" fill="none" stroke="#FFFFFF" stroke-miterlimit="10" width="7.763" height="7.763"/>
<rect x="183.392" y="311.142" fill="none" stroke="#FFDA68" stroke-miterlimit="10" width="7.763" height="7.763"/>
<rect x="167.865" y="311.142" fill="none" stroke="#FFFFFF" stroke-miterlimit="10" width="7.764" height="7.763"/>
<rect x="152.34" y="311.142" fill="none" stroke="#FFFFFF" stroke-miterlimit="10" width="7.763" height="7.763"/>
<rect x="198.918" y="280.089" fill="none" stroke="#FFFFFF" stroke-miterlimit="10" width="7.763" height="7.764"/>
<rect x="284.311" y="280.089" fill="none" stroke="#FFFFFF" stroke-miterlimit="10" width="7.765" height="7.764"/>
<rect x="264.904" y="283.971" fill="none" stroke="#FFFFFF" stroke-miterlimit="10" width="5.821" height="5.822"/>
<rect x="264.904" y="293.675" fill="none" stroke="#FF687D" stroke-miterlimit="10" width="5.821" height="5.822"/>
<rect x="255.2" y="283.971" fill="none" stroke="#FFFFFF" stroke-miterlimit="10" width="5.822" height="5.822"/>
<rect x="255.2" y="293.675" fill="none" stroke="#FFFFFF" stroke-miterlimit="10" width="5.822" height="5.822"/>
<rect x="228.03" y="283.971" fill="none" stroke="#FFFFFF" stroke-miterlimit="10" width="23.289" height="5.822"/>
<rect x="228.03" y="293.675" fill="none" stroke="#FFFFFF" stroke-miterlimit="10" width="23.289" height="5.822"/>
<rect x="183.392" y="280.089" fill="none" stroke="#FFFFFF" stroke-miterlimit="10" width="7.763" height="7.764"/>
<rect x="167.865" y="280.089" fill="none" stroke="#FFDA68" stroke-miterlimit="10" width="7.764" height="7.764"/>
<rect x="152.34" y="280.089" fill="none" stroke="#FFFFFF" stroke-miterlimit="10" width="7.763" height="7.764"/>
<rect x="144.576" y="341.223" fill="none" stroke="#FFFFFF" stroke-miterlimit="10" width="155.261" height="54.342"/>
<rect x="222.207" y="348.986" fill="none" stroke="#FFFFFF" stroke-miterlimit="10" width="54.341" height="23.289"/>
<rect x="284.311" y="364.512" fill="none" stroke="#FFFFFF" stroke-miterlimit="10" width="7.765" height="7.764"/>
<rect x="198.918" y="364.512" fill="none" stroke="#FFFFFF" stroke-miterlimit="10" width="7.763" height="7.764"/>
<rect x="183.392" y="364.512" fill="none" stroke="#FFFFFF" stroke-miterlimit="10" width="7.763" height="7.764"/>
<rect x="167.865" y="364.512" fill="none" stroke="#FFFFFF" stroke-miterlimit="10" width="7.764" height="7.764"/>
<rect x="152.34" y="364.512" fill="none" stroke="#FFFFFF" stroke-miterlimit="10" width="7.763" height="7.764"/>
<rect x="268.785" y="380.038" fill="none" stroke="#FFFFFF" stroke-miterlimit="10" width="7.763" height="7.763"/>
<rect x="284.311" y="380.038" fill="none" stroke="#FFFFFF" stroke-miterlimit="10" width="7.765" height="7.763"/>
<rect x="253.259" y="380.038" fill="none" stroke="#FFFFFF" stroke-miterlimit="10" width="7.764" height="7.763"/>
<rect x="237.732" y="380.038" fill="none" stroke="#FFFFFF" stroke-miterlimit="10" width="7.764" height="7.763"/>
<rect x="222.207" y="380.038" fill="none" stroke="#FFFFFF" stroke-miterlimit="10" width="7.763" height="7.763"/>
<rect x="198.918" y="380.038" fill="none" stroke="#FFFFFF" stroke-miterlimit="10" width="7.763" height="7.763"/>
<rect x="183.392" y="380.038" fill="none" stroke="#FFDA68" stroke-miterlimit="10" width="7.763" height="7.763"/>
<rect x="167.865" y="380.038" fill="none" stroke="#FFFFFF" stroke-miterlimit="10" width="7.764" height="7.763"/>
<rect x="152.34" y="380.038" fill="none" stroke="#FFFFFF" stroke-miterlimit="10" width="7.763" height="7.763"/>
<rect x="198.918" y="348.986" fill="none" stroke="#FFFFFF" stroke-miterlimit="10" width="7.763" height="7.764"/>
<rect x="284.311" y="348.986" fill="none" stroke="#FFFFFF" stroke-miterlimit="10" width="7.765" height="7.764"/>
<rect x="264.904" y="352.868" fill="none" stroke="#FFFFFF" stroke-miterlimit="10" width="5.821" height="5.822"/>
<rect x="264.904" y="362.572" fill="none" stroke="#FFDA68" stroke-miterlimit="10" width="5.821" height="5.822"/>
<rect x="255.2" y="352.868" fill="none" stroke="#FFFFFF" stroke-miterlimit="10" width="5.822" height="5.822"/>
<rect x="255.2" y="362.572" fill="none" stroke="#FFFFFF" stroke-miterlimit="10" width="5.822" height="5.822"/>
<rect x="228.03" y="352.868" fill="none" stroke="#FFFFFF" stroke-miterlimit="10" width="23.289" height="5.822"/>
<rect x="228.03" y="362.572" fill="none" stroke="#FFFFFF" stroke-miterlimit="10" width="23.289" height="5.822"/>
<rect x="183.392" y="348.986" fill="none" stroke="#FFFFFF" stroke-miterlimit="10" width="7.763" height="7.764"/>
<rect x="167.865" y="348.986" fill="none" stroke="#FFDA68" stroke-miterlimit="10" width="7.764" height="7.764"/>
<rect x="152.34" y="348.986" fill="none" stroke="#FFFFFF" stroke-miterlimit="10" width="7.763" height="7.764"/>
<g>
	<defs>
		<rect id="SVGID_3_" width="444.707" height="411.12"/>
	</defs>
	<clipPath id="SVGID_4_">
		<use xlink:href="#SVGID_3_"  overflow="visible"/>
	</clipPath>
	
		<line clip-path="url(#SVGID_4_)" fill="none" stroke="#FFFFFF" stroke-width="2" stroke-miterlimit="10" x1="241.147" y1="0" x2="241.147" y2="9.704"/>
</g>
<line fill="none" stroke="#FFFFFF" stroke-width="2" stroke-miterlimit="10" x1="241.147" y1="15.526" x2="241.147" y2="25.23"/>
<line fill="none" stroke="#FFFFFF" stroke-width="2" stroke-miterlimit="10" x1="253.763" y1="12.615" x2="244.059" y2="12.615"/>
<line fill="none" stroke="#FFFFFF" stroke-width="2" stroke-miterlimit="10" x1="238.236" y1="12.615" x2="228.533" y2="12.615"/>
<line fill="none" stroke="#FFFFFF" stroke-width="2" stroke-miterlimit="10" x1="437.914" y1="94.237" x2="437.914" y2="99.089"/>
<line fill="none" stroke="#FFFFFF" stroke-width="2" stroke-miterlimit="10" x1="437.914" y1="102.97" x2="437.914" y2="107.822"/>
<g>
	<defs>
		<rect id="SVGID_5_" width="444.707" height="411.12"/>
	</defs>
	<clipPath id="SVGID_6_">
		<use xlink:href="#SVGID_5_"  overflow="visible"/>
	</clipPath>
	
		<line clip-path="url(#SVGID_6_)" fill="none" stroke="#FFFFFF" stroke-width="2" stroke-miterlimit="10" x1="444.707" y1="101.03" x2="439.854" y2="101.03"/>
</g>
<line fill="none" stroke="#FFFFFF" stroke-width="2" stroke-miterlimit="10" x1="435.974" y1="101.03" x2="431.121" y2="101.03"/>
<line fill="none" stroke="#FFFFFF" stroke-width="2" stroke-miterlimit="10" x1="174.155" y1="26.583" x2="174.155" y2="29.495"/>
<line fill="none" stroke="#FFFFFF" stroke-width="2" stroke-miterlimit="10" x1="174.155" y1="31.436" x2="174.155" y2="34.347"/>
<line fill="none" stroke="#FFFFFF" stroke-width="2" stroke-miterlimit="10" x1="178.036" y1="30.465" x2="175.125" y2="30.465"/>
<line fill="none" stroke="#FFFFFF" stroke-width="2" stroke-miterlimit="10" x1="173.184" y1="30.465" x2="170.273" y2="30.465"/>
<line fill="none" stroke="#FFFFFF" stroke-width="2" stroke-miterlimit="10" x1="10.155" y1="224.584" x2="10.155" y2="227.495"/>
<line fill="none" stroke="#FFFFFF" stroke-width="2" stroke-miterlimit="10" x1="10.155" y1="229.436" x2="10.155" y2="232.347"/>
<line fill="none" stroke="#FFFFFF" stroke-width="2" stroke-miterlimit="10" x1="14.036" y1="228.465" x2="11.125" y2="228.465"/>
<line fill="none" stroke="#FFFFFF" stroke-width="2" stroke-miterlimit="10" x1="9.184" y1="228.465" x2="6.273" y2="228.465"/>
<line fill="none" stroke="#FFDA68" stroke-width="2" stroke-miterlimit="10" x1="327.825" y1="26.303" x2="327.825" y2="36.978"/>
<line fill="none" stroke="#FFDA68" stroke-width="2" stroke-miterlimit="10" x1="333.162" y1="31.64" x2="322.488" y2="31.64"/>
<line fill="none" stroke="#FB667F" stroke-width="2" stroke-miterlimit="10" x1="13.698" y1="70.898" x2="9.058" y2="75.539"/>
<g>
	<defs>
		<rect id="SVGID_7_" width="444.707" height="411.12"/>
	</defs>
	<clipPath id="SVGID_8_">
		<use xlink:href="#SVGID_7_"  overflow="visible"/>
	</clipPath>
	
		<line clip-path="url(#SVGID_8_)" fill="none" stroke="#FB667F" stroke-width="2" stroke-miterlimit="10" x1="5.346" y1="79.25" x2="0.707" y2="83.889"/>
</g>
<line fill="none" stroke="#FB667F" stroke-width="2" stroke-miterlimit="10" x1="13.698" y1="83.889" x2="9.058" y2="79.25"/>
<g>
	<defs>
		<rect id="SVGID_9_" width="444.707" height="411.12"/>
	</defs>
	<clipPath id="SVGID_10_">
		<use xlink:href="#SVGID_9_"  overflow="visible"/>
	</clipPath>
	
		<line clip-path="url(#SVGID_10_)" fill="none" stroke="#FB667F" stroke-width="2" stroke-miterlimit="10" x1="5.346" y1="75.538" x2="0.707" y2="70.898"/>
</g>
<polygon fill="none" stroke="#FFFFFF" stroke-width="2" stroke-miterlimit="10" points="99.412,52.87 94.667,61.604 104.155,61.604 
	"/>
<g>
	<defs>
		<rect id="SVGID_11_" width="444.707" height="411.12"/>
	</defs>
	<clipPath id="SVGID_12_">
		<use xlink:href="#SVGID_11_"  overflow="visible"/>
	</clipPath>
	
		<circle clip-path="url(#SVGID_12_)" fill="none" stroke="#FFFFFF" stroke-width="2" stroke-miterlimit="10" cx="382.561" cy="55.417" r="1.826"/>
	
		<circle clip-path="url(#SVGID_12_)" fill="none" stroke="#FFFFFF" stroke-width="2" stroke-miterlimit="10" cx="432.561" cy="335.417" r="1.826"/>
	
		<circle clip-path="url(#SVGID_12_)" fill="none" stroke="#FFFFFF" stroke-width="2" stroke-miterlimit="10" cx="59.269" cy="24.8" r="1.456"/>
</g>
</svg>
