<?xml version="1.0" encoding="utf-8"?>
<!-- Generator: Adobe Illustrator 16.0.0, SVG Export Plug-In . SVG Version: 6.00 Build 0)  -->
<!DOCTYPE svg PUBLIC "-//W3C//DTD SVG 1.1//EN" "http://www.w3.org/Graphics/SVG/1.1/DTD/svg11.dtd">
<svg version="1.1" id="Layer_1" xmlns="http://www.w3.org/2000/svg" xmlns:xlink="http://www.w3.org/1999/xlink" x="0px" y="0px"
viewBox="0 0 24.414 24.414" enable-background="new 0 0 24.414 24.414" xml:space="preserve">
<g>
	<defs>
		<rect id="SVGID_1_" width="24.414" height="24.414"/>
	</defs>
	<clipPath id="SVGID_2_">
		<use xlink:href="#SVGID_1_"  overflow="visible"/>
	</clipPath>
	
		<rect x="0.191" y="9.394" transform="matrix(0.7071 0.7071 -0.7071 0.7071 12.6275 -4.0419)" clip-path="url(#SVGID_2_)" fill="none" stroke="#FF687D" stroke-miterlimit="10" width="22.004" height="7.654"/>
	
		<rect x="6.5" y="6.433" transform="matrix(0.7071 0.7071 -0.7071 0.7071 10.8059 -8.4383)" clip-path="url(#SVGID_2_)" fill="none" stroke="#FF687D" stroke-miterlimit="10" width="18.177" height="4.783"/>
</g>
<line fill="none" stroke="#FF687D" stroke-miterlimit="10" x1="6.12" y1="7.472" x2="3.074" y2="10.516"/>
<line fill="none" stroke="#FF687D" stroke-miterlimit="10" x1="8.283" y1="9.637" x2="5.239" y2="12.681"/>
<line fill="none" stroke="#FF687D" stroke-miterlimit="10" x1="10.449" y1="11.801" x2="7.404" y2="14.845"/>
<line fill="none" stroke="#FF687D" stroke-miterlimit="10" x1="12.612" y1="13.966" x2="9.568" y2="17.01"/>
<line fill="none" stroke="#FF687D" stroke-miterlimit="10" x1="14.777" y1="16.131" x2="11.733" y2="19.175"/>
<line fill="none" stroke="#FF687D" stroke-miterlimit="10" x1="16.942" y1="18.295" x2="13.898" y2="21.339"/>
<line fill="none" stroke="#FF687D" stroke-miterlimit="10" x1="12.884" y1="2.736" x2="11.53" y2="4.089"/>
<line fill="none" stroke="#FF687D" stroke-miterlimit="10" x1="15.082" y1="4.935" x2="13.729" y2="6.288"/>
<line fill="none" stroke="#FF687D" stroke-miterlimit="10" x1="17.28" y1="7.134" x2="15.928" y2="8.487"/>
<line fill="none" stroke="#FF687D" stroke-miterlimit="10" x1="19.479" y1="9.332" x2="18.126" y2="10.685"/>
<line fill="none" stroke="#FF687D" stroke-miterlimit="10" x1="21.678" y1="11.531" x2="20.324" y2="12.884"/>
</svg>
