<?xml version="1.0" encoding="utf-8"?>
<!-- Generator: Adobe Illustrator 16.0.0, SVG Export Plug-In . SVG Version: 6.00 Build 0)  -->
<!DOCTYPE svg PUBLIC "-//W3C//DTD SVG 1.1//EN" "http://www.w3.org/Graphics/SVG/1.1/DTD/svg11.dtd">
<svg version="1.1" id="Layer_1" xmlns="http://www.w3.org/2000/svg" xmlns:xlink="http://www.w3.org/1999/xlink" x="0px" y="0px"
	viewBox="193.65 229.855 229.778 111.705"
	 enable-background="new 193.65 229.855 229.778 111.705" xml:space="preserve">
<g>
	<path fill="#FFFFFF" d="M337.746,244.398c4.813-2.201,10.2-2.556,15.415-2.224c1.948,0.229,3.977,0.378,5.821,1.123
		c-0.068,4.642,0,9.283-0.034,13.902c-3.553-1.215-7.587-2.063-11.151-0.458c-2.728,1.238-4.011,4.31-4.126,7.163
		c-0.034,2.499-0.08,5.008,0.035,7.507c4.4-0.138,8.824-0.035,13.214,0c0,4.355-0.058,8.733,0.034,13.1
		c3.782-7.037,10.934-11.885,18.681-13.558c7.151-1.49,14.75-1.444,21.775,0.756c6.854,2.178,12.722,7.22,15.815,13.718
		c3.072,6.258,3.37,13.455,2.591,20.286c-0.917,6.957-4.126,13.753-9.593,18.28c-5.387,4.676-12.606,6.705-19.621,6.991
		c-8.068,0.344-16.709-1.18-23.093-6.441c-5.673-4.424-9.031-11.346-9.891-18.406c-0.825-7.243-0.206-14.899,3.231-21.431
		c-4.412-0.023-8.824-0.023-13.214,0c0.023,14.933,0,29.889,0,44.834c-5.959,0-11.953,0-17.936,0c0-14.956-0.035-29.913,0-44.834
		c-3.267-0.035-6.533,0-9.811-0.023c0.022-4.47,0-8.939,0-13.409c3.231,0.184,6.464-0.023,9.685,0.161
		c0.4-4.287-0.344-8.665,0.688-12.905c1.237-6.212,5.73-11.552,11.461-14.143 M381.652,284.075
		c-3.278,0.665-6.155,2.865-7.771,5.776c-2.315,4.126-2.556,9.054-2.224,13.707c0.344,3.954,1.513,8.16,4.619,10.842
		c3.174,2.75,7.678,3.14,11.689,2.521c3.415-0.504,6.395-2.888,7.873-5.994c1.948-4.08,2.121-8.71,1.983-13.134
		c-0.275-4.011-1.261-8.366-4.321-11.197c-3.174-2.865-7.793-3.254-11.839-2.544L381.652,284.075z M240.33,244.261
		c3.862-1.032,8.504-0.688,11.541,2.177c3.977,3.667,3.438,10.979-1.123,13.925c-4.607,3.094-11.782,2.521-15.197-2.063
		c-1.879-2.407-2.178-5.776-1.227-8.618c0.952-2.659,3.324-4.619,5.994-5.433L240.33,244.261z M285.829,272.374
		c5.203-2.728,11.484-3.071,17.111-1.524c4.045,1.111,7.564,3.931,9.466,7.679c2.521,4.813,3.163,10.395,3.071,15.781
		c0,11.747,0,23.494,0,35.241c-5.959,0-11.918,0-17.878,0c0-10.28,0-20.56,0-30.829c0-3.507-0.08-7.197-1.719-10.383
		c-2.247-4.951-9.226-5.845-13.409-2.922c-3.461,2.349-5.123,6.624-5.157,10.693c0,11.151,0,22.302,0,33.465
		c-5.982,0-11.977,0-17.97,0c0.023-19.426-0.023-38.852,0.023-58.266c5.982,0.115,11.965,0,17.958,0.092
		c0,3.095-0.068,6.189,0.023,9.283c2.143-3.347,4.859-6.464,8.458-8.309H285.829z M235.036,271.399c6.005,0,12.034-0.114,18.027,0
		c0,19.392,0,38.76,0,58.14c-5.994,0.034-12.011,0.023-18.016,0.023c0-19.369,0-38.76,0-58.151L235.036,271.399z M209.845,302.561
		c3.187-0.527,6.613-0.436,9.547,1.054c4.034,2.04,7.404,5.868,8.045,10.452c0.229,2.327,0.207,4.733-0.688,6.934
		c-1.696,4.527-5.959,7.977-10.716,8.756c-2.773,0.31-5.662,0.206-8.251-0.94c-4.791-2.108-8.321-7.128-8.103-12.446
		C199.335,310.183,203.748,303.971,209.845,302.561L209.845,302.561z"/>
	<path fill="#745984" d="M215.541,229.935c11.002-0.172,22.004,0,33.007-0.068c50.461,0,100.934,0,151.396,0
		c6.716,0.114,13.317,3.209,17.649,8.332c4.011,4.607,6.017,10.773,5.822,16.847c0,20.446,0,40.915,0,61.361
		c0.194,6.04-1.8,12.194-5.788,16.767c-4.24,5.043-10.658,8.114-17.226,8.367c-60.489,0-120.956,0-181.422,0
		c-5.123,0.206-10.314-1.089-14.555-3.966c-6.762-4.355-10.842-12.309-10.773-20.285c0.046-21.5,0-42.978,0.046-64.478
		c0.298-4.997,2.029-9.948,5.192-13.868c4.011-5.123,10.2-8.423,16.664-8.974 M337.746,244.41
		c-5.73,2.59-10.223,7.931-11.461,14.143c-1.031,4.24-0.286,8.618-0.688,12.905c-3.231-0.184-6.464,0.022-9.685-0.149
		c-0.022,4.47,0,8.917,0,13.386c3.267,0,6.533,0,9.811,0.023c-0.034,14.933,0,29.878,0,44.812c5.96,0.034,11.954,0,17.937,0.022
		c-0.023-14.956,0-29.912,0-44.845c4.389-0.023,8.79-0.023,13.202,0c-3.438,6.532-4.057,14.188-3.231,21.431
		c0.859,7.071,4.217,13.982,9.891,18.406c6.383,5.272,15.013,6.785,23.093,6.418c7.025-0.275,14.211-2.292,19.621-6.991
		c5.455-4.527,8.687-11.3,9.592-18.28c0.803-6.796,0.481-13.982-2.59-20.263c-3.095-6.487-8.962-11.541-15.815-13.707
		c-7.025-2.201-14.624-2.258-21.775-0.757c-7.747,1.673-14.898,6.51-18.681,13.558c-0.092-4.378-0.023-8.745-0.034-13.123
		c-4.401,0-8.825-0.114-13.215,0.023c-0.114-2.499-0.068-5.008-0.034-7.507c0.114-2.865,1.398-5.925,4.126-7.163
		c3.553-1.604,7.609-0.757,11.151,0.458c0.034-4.641-0.034-9.283,0.034-13.913c-1.834-0.745-3.862-0.882-5.822-1.123
		c-5.203-0.344-10.612,0.023-15.403,2.224 M240.353,244.249c-2.659,0.802-5.042,2.751-5.994,5.421
		c-0.963,2.831-0.653,6.189,1.226,8.596c3.416,4.584,10.59,5.157,15.186,2.086c4.539-2.945,5.1-10.269,1.112-13.914
		c-3.037-2.865-7.679-3.209-11.541-2.177 M285.841,272.374c-3.599,1.834-6.304,4.962-8.458,8.321c-0.092-3.095,0-6.212-0.035-9.306
		c-6.005-0.092-11.988,0.023-17.97-0.115c-0.046,19.426,0,38.852-0.023,58.266c5.994,0,11.988,0,17.993,0
		c0-11.151-0.023-22.314,0-33.465c0-4.057,1.673-8.332,5.123-10.658c4.195-2.934,11.174-2.04,13.432,2.911
		c1.604,3.186,1.719,6.876,1.696,10.372c0,10.292,0.023,20.572,0,30.852c5.96,0,11.919,0,17.878,0c0-11.747,0-23.494,0-35.241
		c0.092-5.387-0.538-10.968-3.094-15.793c-1.902-3.748-5.409-6.567-9.455-7.679c-5.616-1.547-11.896-1.203-17.111,1.524
		 M235.024,271.388c0,19.391,0,38.771,0,58.151c6.005,0,12.034,0,18.028,0c0-19.392,0-38.76,0-58.14
		c-5.994-0.137-12.011-0.023-18.016-0.023 M209.845,302.55c-6.097,1.398-10.509,7.598-10.166,13.798
		c-0.229,5.318,3.324,10.338,8.114,12.446c2.59,1.146,5.478,1.261,8.251,0.952c4.779-0.768,9.02-4.218,10.728-8.745
		c0.882-2.201,0.894-4.607,0.688-6.934c-0.653-4.584-4.011-8.412-8.057-10.463c-2.934-1.49-6.361-1.604-9.547-1.066L209.845,302.55z
		 M381.675,284.086c4.034-0.71,8.664-0.321,11.839,2.544c3.071,2.842,4.046,7.174,4.32,11.197c0.138,4.424-0.022,9.054-1.982,13.123
		c-1.49,3.095-4.47,5.479-7.885,5.994c-3.988,0.596-8.504,0.206-11.69-2.521c-3.094-2.693-4.263-6.911-4.584-10.853
		c-0.344-4.642-0.114-9.57,2.212-13.719c1.604-2.922,4.493-5.123,7.771-5.788V284.086z"/>
</g>
</svg>
