<?xml version="1.0" encoding="utf-8"?>
<!-- Generator: Adobe Illustrator 16.0.0, SVG Export Plug-In . SVG Version: 6.00 Build 0)  -->
<!DOCTYPE svg PUBLIC "-//W3C//DTD SVG 1.1//EN" "http://www.w3.org/Graphics/SVG/1.1/DTD/svg11.dtd">
<svg version="1.1" id="Layer_1" xmlns="http://www.w3.org/2000/svg" xmlns:xlink="http://www.w3.org/1999/xlink" x="0px" y="0px"
	viewBox="-789 322.931 611.883 146.139"
	 enable-background="new -789 322.931 611.883 146.139" xml:space="preserve">
<title>logo.com.no-verisign</title>
<g id="Layer_2">
	<g id="art">
		<path fill="#FF687D" stroke="#FFFFFF" stroke-miterlimit="10" d="M-554.076,412.537c-7.389,31.081-34.834,56.532-71.896,56.532
			c-41.519,0-73.304-32.605-73.304-73.304c0-40.229,31.433-72.835,72.366-72.835c36.241,0,65.68,23.926,72.6,57.47h-41.52
			c-4.339-9.383-12.549-19.235-29.673-19.235c-8.914-0.586-17.71,2.932-23.692,9.617c-5.629,6.451-8.914,15.248-8.914,25.217
			c0,19.938,13.136,34.834,32.605,34.834c17.007,0,25.217-9.852,29.673-18.297H-554.076z"/>
		<path fill="#FF687D" stroke="#FFFFFF" stroke-miterlimit="10" d="M-545.865,395.766c0-33.31,23.926-72.601,73.772-72.601
			c49.847,0,73.773,39.291,73.773,72.835s-23.927,72.835-73.773,72.835c-49.846,0-73.772-39.291-73.772-72.835V395.766
			L-545.865,395.766z M-504.933,396.234c0,19.704,15.013,34.365,32.84,34.365c17.828,0,32.841-14.544,32.841-34.6
			c0-20.056-15.013-34.6-32.841-34.6c-17.827,0-32.84,14.543-32.84,34.6V396.234z"/>
		<path fill="#FF687D" stroke="#FFFFFF" stroke-miterlimit="10" d="M-387.412,327.622h38.236v14.543
			c2.11-3.753,4.926-7.037,8.327-9.618c6.099-4.926,15.716-9.617,30.025-9.617c9.383,0,21.229,2.463,31.315,13.136
			c3.283,3.401,5.981,7.154,8.093,11.376c2.697-4.339,6.099-8.327,9.852-11.846c8.327-7.506,19.353-12.667,33.661-12.667
			c9.617,0,24.982,2.229,36.007,13.84c12.784,13.605,14.778,22.753,14.778,53.013v74.829h-40.933v-72.717
			c0-5.63,0-13.019-2.698-19.235c-2.463-6.451-7.623-11.143-18.296-11.143c-11.377,0-17.007,5.161-19.704,11.377
			c-2.933,6.216-2.933,13.136-2.933,17.006v74.829h-41.05v-74.594c0-3.753,0-10.908-2.464-17.007
			c-2.697-6.451-7.623-11.611-18.062-11.611c-11.611,0-17.241,5.396-20.291,12.081c-3.049,6.686-2.932,14.075-2.932,18.297v72.834
			h-41.051V327.622H-387.412z"/>
		<path fill="#FF687D" stroke="#FFFFFF" stroke-miterlimit="10" d="M-789,396.938c0,17.358,14.074,31.433,31.433,31.433
			s31.433-14.074,31.433-31.433s-14.074-31.433-31.433-31.433l0,0C-774.926,365.505-789,379.58-789,396.938"/>
		<g>
			<g>
				<defs>
					<path id="SVGID_1_" d="M-789,396.938c0,17.358,14.074,31.433,31.433,31.433s31.433-14.074,31.433-31.433
						s-14.074-31.433-31.433-31.433l0,0C-774.926,365.505-789,379.58-789,396.938"/>
				</defs>
				<use xlink:href="#SVGID_1_"  overflow="visible" fill="#FF687D"/>
				<clipPath id="SVGID_2_">
					<use xlink:href="#SVGID_1_"  overflow="visible"/>
				</clipPath>
				<g clip-path="url(#SVGID_2_)">
					<rect x="-789" y="365.505" fill="#FF687D" stroke="#FFFFFF" stroke-miterlimit="10" width="62.748" height="62.749"/>
				</g>
				<use xlink:href="#SVGID_1_"  overflow="visible" fill="none" stroke="#FFFFFF" stroke-miterlimit="10"/>
			</g>
		</g>
	</g>
</g>
</svg>
