<?xml version="1.0" encoding="utf-8"?>
<!-- Generator: Adobe Illustrator 16.0.0, SVG Export Plug-In . SVG Version: 6.00 Build 0)  -->
<!DOCTYPE svg PUBLIC "-//W3C//DTD SVG 1.1//EN" "http://www.w3.org/Graphics/SVG/1.1/DTD/svg11.dtd">
<svg version="1.1" id="Layer_1" xmlns="http://www.w3.org/2000/svg" xmlns:xlink="http://www.w3.org/1999/xlink" x="0px" y="0px"
	viewBox="0 0 189.5 189.5" enable-background="new 0 0 189.5 189.5" xml:space="preserve">
<g>
	<defs>
		<rect id="SVGID_1_" width="189.5" height="189.5"/>
	</defs>
	<clipPath id="SVGID_2_">
		<use xlink:href="#SVGID_1_"  overflow="visible"/>
	</clipPath>
	
		<circle clip-path="url(#SVGID_2_)" fill="none" stroke="#181B22" stroke-width="1.5" stroke-linecap="round" stroke-linejoin="round" cx="40.75" cy="40.75" r="40"/>
	
		<path clip-path="url(#SVGID_2_)" fill="none" stroke="#181B22" stroke-width="1.5" stroke-linecap="round" stroke-linejoin="round" d="
		M40.75,0.75c-18.824,23.529-18.824,56.47,0,80"/>
	
		<path clip-path="url(#SVGID_2_)" fill="none" stroke="#181B22" stroke-width="1.5" stroke-linecap="round" stroke-linejoin="round" d="
		M40.75,0.75c18.823,23.529,18.823,56.47,0,80"/>
	
		<path clip-path="url(#SVGID_2_)" fill="none" stroke="#181B22" stroke-width="1.5" stroke-linecap="round" stroke-linejoin="round" d="
		M10.162,14.868c0,9.412,61.177,9.412,61.177,0"/>
	
		<line clip-path="url(#SVGID_2_)" fill="none" stroke="#181B22" stroke-width="1.5" stroke-linecap="round" stroke-linejoin="round" x1="0.75" y1="40.75" x2="80.75" y2="40.75"/>
	
		<path clip-path="url(#SVGID_2_)" fill="none" stroke="#181B22" stroke-width="1.5" stroke-linecap="round" stroke-linejoin="round" d="
		M10.162,66.632c0-9.412,61.177-9.412,61.177,0"/>
	
		<circle clip-path="url(#SVGID_2_)" fill="none" stroke="#CB6686" stroke-width="1.5" stroke-linecap="round" stroke-linejoin="round" cx="133.75" cy="133.749" r="55"/>
	
		<path clip-path="url(#SVGID_2_)" fill="none" stroke="#CB6686" stroke-width="1.5" stroke-linecap="round" stroke-linejoin="round" d="
		M133.75,78.75c-25.882,32.354-25.882,77.647,0,110"/>
	
		<path clip-path="url(#SVGID_2_)" fill="none" stroke="#CB6686" stroke-width="1.5" stroke-linecap="round" stroke-linejoin="round" d="
		M133.75,78.75c25.882,32.354,25.882,77.647,0,110"/>
	
		<path clip-path="url(#SVGID_2_)" fill="none" stroke="#CB6686" stroke-width="1.5" stroke-linecap="round" stroke-linejoin="round" d="
		M91.691,98.162c0,12.94,84.118,12.94,84.118,0"/>
	
		<line clip-path="url(#SVGID_2_)" fill="none" stroke="#CB6686" stroke-width="1.5" stroke-linecap="round" stroke-linejoin="round" x1="78.75" y1="133.749" x2="188.75" y2="133.749"/>
	
		<path clip-path="url(#SVGID_2_)" fill="none" stroke="#CB6686" stroke-width="1.5" stroke-linecap="round" stroke-linejoin="round" d="
		M91.691,169.339c0-12.941,84.118-12.941,84.118,0"/>
	
		<polyline clip-path="url(#SVGID_2_)" fill="none" stroke="#181B22" stroke-width="1.5" stroke-linecap="round" stroke-linejoin="round" points="
		68.75,148.749 40.75,148.749 40.75,90.75 	"/>
	
		<polyline clip-path="url(#SVGID_2_)" fill="none" stroke="#CB6686" stroke-width="1.5" stroke-linecap="round" stroke-linejoin="round" points="
		90.75,40.75 148.75,40.75 148.75,68.75 	"/>
</g>
</svg>
