<?xml version="1.0" encoding="utf-8"?>
<!-- Generator: Adobe Illustrator 16.0.0, SVG Export Plug-In . SVG Version: 6.00 Build 0)  -->
<!DOCTYPE svg PUBLIC "-//W3C//DTD SVG 1.1//EN" "http://www.w3.org/Graphics/SVG/1.1/DTD/svg11.dtd">
<svg version="1.1" id="Layer_1" xmlns="http://www.w3.org/2000/svg" xmlns:xlink="http://www.w3.org/1999/xlink" x="0px" y="0px"
	viewBox="-0.194 272.915 612.389 245.991"
	 enable-background="new -0.194 272.915 612.389 245.991" xml:space="preserve">
<title>logo.net.no-verisign</title>
<g id="Layer_2">
	<g id="art">
		<path fill="#CB6686" d="M81.483,477.095c0,22.559-18.28,40.839-40.839,40.839s-40.839-18.28-40.839-40.839
			s18.28-40.839,40.839-40.839l0,0C63.203,436.256,81.483,454.536,81.483,477.095"/>
		<path fill="#CB6686" d="M275.371,495.958c0,11.862-5.834,17.697-17.697,17.697h-26.059c-11.863,0-17.697-5.835-17.697-17.697
			V390.36c0.194-14.196-4.862-23.92-21.392-23.92c-12.057,0.194-23.92,3.695-34.033,9.918v119.6
			c0,11.862-5.834,17.697-17.697,17.697h-25.865c-11.862,0-17.697-5.835-17.697-17.697v-156.16c0-11.863,5.834-17.697,17.697-17.697
			h9.529c8.362,0,11.863,4.278,17.308,13.808c20.03-12.252,43.172-18.864,66.703-19.253c52.118,0,67.093,27.615,67.093,64.37
			L275.371,495.958z"/>
		<path fill="#CB6686" d="M448.45,438.2h-95.291c-1.556,24.893,11.474,32.088,41.422,32.088c24.893,0,34.811-3.501,42.979-5.445
			c15.363-3.501,24.114,5.834,24.114,17.308v7.195c0,10.308-3.89,16.919-13.808,20.226c-19.836,6.223-40.449,9.334-61.258,9.14
			c-63.203,0-93.93-32.282-93.93-101.125c0-68.842,30.338-101.125,89.651-101.125c73.898,0,85.372,49.785,83.816,103.847
			C466.146,431.978,460.313,438.2,448.45,438.2 M353.354,400.667h54.452c3.5-21.002-1.167-37.921-24.504-37.921
			C362.494,362.746,353.354,376.553,353.354,400.667"/>
		<path fill="#CB6686" d="M503.291,298.765c0-11.085,4.667-15.363,18.475-19.253l19.836-5.445
			c16.141-4.279,22.947,3.889,22.947,15.752v32.088h29.949c11.862,0,17.696,5.834,17.696,17.697v15.752
			c0,11.863-5.834,17.697-17.696,17.697h-29.949v73.122c0,14.974,5.834,23.336,25.281,23.336h3.89c8.751,0,16.53,6.224,16.53,16.142
			v12.641c0.194,9.334-6.418,17.502-15.752,19.058c-5.641,0.973-11.475,1.556-17.309,1.556c-54.451,0-73.898-22.559-73.898-67.87
			v-77.983h-14.975c-11.862,0-17.697-5.834-17.697-17.697v-8.751c0-9.918,4.279-14.975,15.363-17.892l17.309-4.667V298.765z"/>
	</g>
</g>
</svg>
