<?xml version="1.0" encoding="UTF-8"?>
<!DOCTYPE svg PUBLIC "-//W3C//DTD SVG 1.1//EN" "http://www.w3.org/Graphics/SVG/1.1/DTD/svg11.dtd">
<!-- Creator: CorelDRAW X7 -->
<svg xmlns="http://www.w3.org/2000/svg" xml:space="preserve" width="500mm" height="500mm" version="1.1" style="shape-rendering:geometricPrecision; text-rendering:geometricPrecision; image-rendering:optimizeQuality; fill-rule:evenodd; clip-rule:evenodd"
viewBox="0 0 50000 50000"
 xmlns:xlink="http://www.w3.org/1999/xlink">
 <defs>
  <style type="text/css">
   <![CDATA[
    .str0 {stroke:#2B2A29;stroke-width:20}
    .fil0 {fill:#C5C6C6}
    .fil1 {fill:#727271}
    .fil6 {fill:#1487E3;fill-rule:nonzero}
    .fil23 {fill:#1A598C;fill-rule:nonzero}
    .fil34 {fill:#202338;fill-rule:nonzero}
    .fil24 {fill:#2273B5;fill-rule:nonzero}
    .fil10 {fill:#292C47;fill-rule:nonzero}
    .fil28 {fill:#2B3B57;fill-rule:nonzero}
    .fil27 {fill:#2D314F;fill-rule:nonzero}
    .fil37 {fill:#325BB3;fill-rule:nonzero}
    .fil30 {fill:#353A3D;fill-rule:nonzero}
    .fil25 {fill:#3788CC;fill-rule:nonzero}
    .fil26 {fill:#414773;fill-rule:nonzero}
    .fil9 {fill:#424773;fill-rule:nonzero}
    .fil35 {fill:#464240;fill-rule:nonzero}
    .fil22 {fill:#4AAFFF;fill-rule:nonzero}
    .fil17 {fill:#4D78EB;fill-rule:nonzero}
    .fil39 {fill:#5E5853;fill-rule:nonzero}
    .fil33 {fill:#6069A8;fill-rule:nonzero}
    .fil42 {fill:#6E6760;fill-rule:nonzero}
    .fil12 {fill:#754836;fill-rule:nonzero}
    .fil5 {fill:#78C2FF;fill-rule:nonzero}
    .fil40 {fill:#91887F;fill-rule:nonzero}
    .fil38 {fill:#A77860;fill-rule:nonzero}
    .fil31 {fill:#D4D8E8;fill-rule:nonzero}
    .fil4 {fill:#E0E0E0;fill-rule:nonzero}
    .fil13 {fill:#E2D2CA;fill-rule:nonzero}
    .fil32 {fill:#E55353;fill-rule:nonzero}
    .fil36 {fill:#EB4747;fill-rule:nonzero}
    .fil41 {fill:#EDDAD3;fill-rule:nonzero}
    .fil11 {fill:#EEA886;fill-rule:nonzero}
    .fil18 {fill:#FDFDFD;fill-rule:nonzero}
    .fil8 {fill:#FF7E55;fill-rule:nonzero}
    .fil7 {fill:#FF8761;fill-rule:nonzero}
    .fil29 {fill:#FFC655;fill-rule:nonzero}
    .fil15 {fill:white;fill-rule:nonzero}
    .fil3 {fill:url(#id0)}
    .fil14 {fill:url(#id1)}
    .fil20 {fill:url(#id2)}
    .fil19 {fill:url(#id3)}
    .fil2 {fill:url(#id4)}
    .fil21 {fill:url(#id5)}
    .fil16 {fill:url(#id6)}
   ]]>
  </style>
  <linearGradient id="id0" gradientUnits="userSpaceOnUse" x1="11502.5" y1="22381.8" x2="44487.9" y2="22381.8">
   <stop offset="0" style="stop-opacity:1; stop-color:#404B61"/>
   <stop offset="0.690196" style="stop-opacity:1; stop-color:#38455F"/>
   <stop offset="1" style="stop-opacity:1; stop-color:#2F3E5C"/>
  </linearGradient>
  <linearGradient id="id1" gradientUnits="userSpaceOnUse" x1="28032.1" y1="33712.1" x2="28032.1" y2="48531.7">
   <stop offset="0" style="stop-opacity:1; stop-color:#40D5E6"/>
   <stop offset="1" style="stop-opacity:1; stop-color:#5577FF"/>
  </linearGradient>
  <linearGradient id="id2" gradientUnits="userSpaceOnUse" x1="33443.9" y1="24587.1" x2="44487.9" y2="24587.1">
   <stop offset="0" style="stop-opacity:1; stop-color:#D1D4D9"/>
   <stop offset="0.690196" style="stop-opacity:1; stop-color:#CFD3D9"/>
   <stop offset="1" style="stop-opacity:1; stop-color:#CDD1D8"/>
  </linearGradient>
  <linearGradient id="id3" gradientUnits="userSpaceOnUse" x1="44487.9" y1="24587.1" x2="45807.9" y2="24587.1">
   <stop offset="0" style="stop-opacity:1; stop-color:#D1F5F9"/>
   <stop offset="1" style="stop-opacity:1; stop-color:#D6DEFF"/>
  </linearGradient>
  <linearGradient id="id4" gradientUnits="userSpaceOnUse" xlink:href="#id1" x1="10245.4" y1="24164.3" x2="45808" y2="24164.3">
  </linearGradient>
  <linearGradient id="id5" gradientUnits="userSpaceOnUse" x1="49355.8" y1="28682.3" x2="49870.5" y2="28682.3">
   <stop offset="0" style="stop-opacity:1; stop-color:#CDDEE9"/>
   <stop offset="1" style="stop-opacity:1; stop-color:#DAE7CF"/>
  </linearGradient>
  <linearGradient id="id6" gradientUnits="userSpaceOnUse" xlink:href="#id1" x1="16766.6" y1="49108.7" x2="39297.6" y2="49108.7">
  </linearGradient>
 </defs>
 <g id="Layer_x0020_1">
  <metadata id="CorelCorpID_0Corel-Layer"/>
  <g id="_2901202666144">
   <polygon class="fil0 str0" points="30525,7185 34125,7185 34125,10685 30525,10685 "/>
   <polygon class="fil1 str0" points="95,-54 50095,-54 50095,49946 95,49946 "/>
   <g>
    <path class="fil2" d="M45808 37588l-35563 0 0 -25578c0,-701 558,-1270 1246,-1270l33071 0c688,0 1246,569 1246,1270l0 6609 -1320 0 0 -6564 -32985 0 0 20653 32985 0 0 -2153 1320 0 0 7033z"/>
    <path class="fil3" d="M44488 32708l-32985 0 0 -20653 32985 0 0 6564 -10516 0c-292,0 -528,241 -528,538l0 10860c0,297 236,538 528,538l10516 0 0 2153z"/>
    <polygon class="fil4" points="13730,14191 17404,14191 17404,13808 13730,13808 "/>
    <polygon class="fil5" points="18119,14191 20728,14191 20728,13808 18119,13808 "/>
    <polygon class="fil5" points="31186,14191 33795,14191 33795,13808 31186,13808 "/>
    <polygon class="fil5" points="34607,14191 36353,14191 36353,13808 34607,13808 "/>
    <polygon class="fil6" points="21430,14191 24754,14191 24754,13808 21430,13808 "/>
    <polygon class="fil7" points="27212,14191 30535,14191 30535,13808 27212,13808 "/>
    <polygon class="fil4" points="25368,14191 26585,14191 26585,13808 25368,13808 "/>
    <g>
     <polygon class="fil6" points="10406,29444 13730,29444 13730,29060 10406,29060 "/>
     <path class="fil8" d="M1463 27641c0,0 -151,2150 261,2408 259,161 1288,705 1258,807 -31,102 -582,907 -582,907 0,0 -1978,-1327 -2041,-1746 -63,-408 97,-3149 369,-3275 204,-95 311,-16 568,178 360,272 167,721 167,721z"/>
     <path class="fil9" d="M1233 43292c0,0 -62,436 -69,501 -8,65 -685,-39 -685,-39l-55 -518c0,0 724,-5 809,56z"/>
     <path class="fil10" d="M1171 43738c0,0 214,262 421,376 208,114 533,160 656,278 89,86 322,453 -539,446 -861,-8 -1276,52 -1368,-89 -92,-141 133,-1041 133,-1041 0,0 204,75 697,30z"/>
     <path class="fil9" d="M4619 43292c0,0 -62,436 -70,501 -7,65 -684,-39 -684,-39l-54 -518c0,0 723,-5 808,56z"/>
     <path class="fil10" d="M4557 43738c0,0 214,262 421,376 208,114 971,208 1093,327 89,85 236,429 -975,397 -861,-23 -1277,52 -1369,-89 -92,-141 133,-1041 133,-1041 0,0 193,80 697,30z"/>
     <path class="fil10" d="M1475 32110c0,0 -635,1030 -588,1960 47,931 -57,1925 -152,2897 -107,1084 -397,3339 -412,3919 -16,580 20,2761 20,2761l1103 -8c0,0 391,-4407 581,-4865 190,-457 969,-3768 1000,-4134 32,-366 -1552,-2530 -1552,-2530z"/>
     <path class="fil10" d="M4822 32250c0,0 251,2530 314,3099 64,570 20,3038 52,3394 32,356 -211,4121 -271,4838l-1212 -8c0,0 -84,-3046 -84,-4525 0,-1480 -372,-3203 -799,-4179 -427,-977 -1404,-1000 -1667,-2811 0,0 3312,-383 3667,192z"/>
     <path class="fil11" d="M2147 23430c0,0 757,-515 1289,37 532,552 794,1851 412,2111 -382,259 -1030,327 -1338,-25 -307,-352 -636,-888 -716,-1280 -81,-392 161,-678 353,-843z"/>
     <path class="fil11" d="M3590 25665c0,0 -10,543 49,658 59,116 -1105,119 -1105,119 0,0 -95,-629 -274,-1161 -180,-531 1330,384 1330,384z"/>
     <path class="fil12" d="M2289 25273c0,0 109,112 416,-15 307,-128 597,-655 719,-734 123,-80 105,-160 105,-160l112 105 144 -25c0,0 -219,-357 -60,-561 158,-205 -492,-1205 -1432,-595 0,0 -735,410 -601,859 134,449 368,941 597,1126z"/>
     <path class="fil13" d="M3708 26310c0,0 -4,-221 -102,-243 -98,-21 -1085,-118 -1206,-69l0 257c0,0 233,146 1308,55z"/>
     <path class="fil11" d="M3470 24204c-36,-73 -277,-245 -296,6 -19,252 237,522 333,471 96,-52 53,-295 -37,-477z"/>
     <path class="fil12" d="M1928 23563c0,0 -1083,296 317,1667l-317 -1667z"/>
     <path class="fil11" d="M11607 29434l-1104 -11c95,-56 249,-158 215,-204 -49,-66 -361,79 -488,92 -117,12 -312,-3 -460,52l-349 151 320 302c0,0 577,84 746,96 275,20 1116,-314 1130,-364 25,-91 -10,-114 -10,-114z"/>
     <path class="fil8" d="M5149 26616c-702,-126 -1441,-306 -1441,-306l-1308 -55c0,0 -1200,269 -1672,487 -45,21 -45,1091 -168,1372l392 842c0,0 226,1669 273,2412 21,340 -467,3195 -467,3195 0,0 523,157 1416,257 892,100 3122,-36 3136,-143 14,-108 -432,-4001 -452,-4202 -30,-310 88,-1739 88,-1739 168,230 1140,1093 1615,1368 338,195 1166,76 1410,50 527,-55 1986,-161 2014,-214 23,-32 -84,-574 -145,-594 -53,-18 -1936,-113 -2408,-88 -191,10 -816,-702 -816,-702 0,0 -1079,-1763 -1467,-1940z"/>
     <polygon class="fil14" points="45807,33712 10258,33712 6368,48532 49697,48532 "/>
     <path class="fil15" d="M11603 36312l2184 0c91,0 160,72 143,150l-212 969c-13,60 -73,103 -143,103l-2221 0c-93,0 -163,-75 -142,-155l249 -968c14,-58 73,-99 142,-99z"/>
     <polygon class="fil15" points="14788,36312 16439,36312 16220,37534 14537,37534 "/>
     <polygon class="fil15" points="17265,36312 18916,36312 18743,37534 17061,37535 "/>
     <polygon class="fil15" points="19742,36312 21393,36312 21267,37534 19585,37534 "/>
     <polygon class="fil15" points="22218,36312 23870,36312 23791,37534 22109,37534 "/>
     <polygon class="fil15" points="24695,36312 26346,36312 26315,37534 24632,37535 "/>
     <polygon class="fil15" points="44515,36312 42038,36312 42305,37534 44829,37534 "/>
     <polygon class="fil15" points="41212,36312 39561,36312 39781,37534 41463,37534 "/>
     <polygon class="fil15" points="38736,36312 37084,36312 37257,37534 38940,37535 "/>
     <polygon class="fil15" points="36259,36312 34608,36312 34733,37534 36416,37534 "/>
     <polygon class="fil15" points="33782,36312 32131,36312 32209,37534 33892,37534 "/>
     <polygon class="fil15" points="31305,36312 29654,36312 29686,37534 31368,37535 "/>
     <polygon class="fil15" points="27172,36312 28823,36312 28850,37534 27172,37534 "/>
     <polygon class="fil15" points="10876,38444 14327,38444 14130,39704 10614,39704 "/>
     <polygon class="fil15" points="45053,38444 40788,38444 41031,39704 45377,39704 "/>
     <polygon class="fil15" points="39935,38444 38229,38444 38424,39704 40162,39704 "/>
     <polygon class="fil15" points="37377,38444 35671,38444 35816,39704 37555,39704 "/>
     <polygon class="fil15" points="34818,38444 33112,38444 33209,39704 34947,39704 "/>
     <polygon class="fil15" points="32259,38444 30553,38444 30601,39704 32340,39704 "/>
     <polygon class="fil15" points="10361,40690 13888,40690 13631,41942 10039,41942 "/>
     <polygon class="fil15" points="14770,40690 16534,40690 16325,41942 14529,41942 "/>
     <polygon class="fil15" points="17416,40690 30642,40690 30691,41942 17223,41942 "/>
     <polygon class="fil15" points="31525,40690 33288,40690 33385,41942 31589,41942 "/>
     <polygon class="fil15" points="34170,40690 35934,40690 36079,41942 34283,41942 "/>
     <polygon class="fil15" points="36816,40690 38579,40690 38773,41942 36977,41942 "/>
     <polygon class="fil15" points="39461,40690 41225,40690 41466,41942 39671,41942 "/>
     <polygon class="fil15" points="42107,40690 45634,40690 45956,41942 42364,41942 "/>
     <polygon class="fil15" points="29703,38444 28011,38444 28011,39704 29736,39704 "/>
     <polygon class="fil15" points="27145,38444 25439,38444 25390,39704 27128,39704 "/>
     <polygon class="fil15" points="24586,38444 22880,38444 22783,39704 24521,39704 "/>
     <polygon class="fil15" points="22027,38444 20321,38444 20175,39704 21913,39704 "/>
     <polygon class="fil15" points="19468,38444 17762,38444 17567,39704 19306,39704 "/>
     <polygon class="fil15" points="16909,38444 15203,38444 14960,39704 16698,39704 "/>
     <polygon class="fil15" points="11683,35544 11964,34454 12765,34454 12504,35544 "/>
     <polygon class="fil15" points="13567,34454 15170,34454 14946,35544 13315,35544 "/>
     <polygon class="fil15" points="15972,34454 17575,34454 17393,35544 15762,35544 "/>
     <polygon class="fil15" points="18377,34454 19981,34454 19840,35544 18209,35544 "/>
     <polygon class="fil15" points="20782,34454 22386,34454 22288,35544 20656,35544 "/>
     <polygon class="fil15" points="23187,34454 24791,34454 24735,35544 23103,35544 "/>
     <polygon class="fil15" points="25592,34454 27196,34454 27182,35544 25550,35544 "/>
     <polygon class="fil15" points="27997,34454 29601,34454 29629,35544 27997,35544 "/>
     <polygon class="fil15" points="30403,34454 32006,34454 32076,35544 30445,35544 "/>
     <polygon class="fil15" points="32808,34454 34411,34454 34523,35544 32892,35544 "/>
     <polygon class="fil15" points="35213,34454 36816,34454 36970,35544 35339,35544 "/>
     <polygon class="fil15" points="37618,34454 39221,34454 39417,35544 37786,35544 "/>
     <polygon class="fil15" points="40023,34454 41626,34454 41865,35544 40233,35544 "/>
     <polygon class="fil15" points="42428,34454 44031,34454 44312,35544 42680,35544 "/>
     <path class="fil16" d="M48565 49686l-41065 0c-626,0 -1132,-517 -1132,-1154l43329 0c0,637 -507,1154 -1132,1154z"/>
     <path class="fil17" d="M33069 43743c-42,-261 -264,-452 -523,-452l-9028 0c-259,0 -480,191 -523,452l-564 3478c-53,330 196,629 523,629l10156 0c327,0 576,-299 523,-629l-564 -3478z"/>
     <polygon class="fil4" points="18433,17079 21086,17079 21086,16695 18433,16695 "/>
     <polygon class="fil6" points="21499,17079 23260,17079 23260,16695 21499,16695 "/>
     <polygon class="fil6" points="13771,24340 15532,24340 15532,23957 13771,23957 "/>
     <polygon class="fil4" points="23608,17079 27859,17079 27859,16695 23608,16695 "/>
     <polygon class="fil4" points="13771,22886 16503,22886 16503,22502 13771,22502 "/>
     <polygon class="fil4" points="17579,25784 19246,25784 19246,25401 17579,25401 "/>
     <polygon class="fil6" points="13771,25784 17075,25784 17075,25401 13771,25401 "/>
     <polygon class="fil4" points="13771,27228 15594,27228 15594,26844 13771,26844 "/>
     <polygon class="fil6" points="18119,18523 20728,18523 20728,18139 18119,18139 "/>
     <polygon class="fil4" points="16815,19966 17929,19966 17929,19583 16815,19583 "/>
     <polygon class="fil5" points="15700,21431 18204,21431 18204,21048 15700,21048 "/>
     <polygon class="fil6" points="18582,21431 22038,21431 22038,21048 18582,21048 "/>
     <polygon class="fil6" points="13771,19977 16380,19977 16380,19594 13771,19594 "/>
     <polygon class="fil6" points="13771,21431 15319,21431 15319,21048 13771,21048 "/>
     <polygon class="fil7" points="18455,19977 19915,19977 19915,19594 18455,19594 "/>
     <polygon class="fil7" points="13815,28672 15275,28672 15275,28288 13815,28288 "/>
     <polygon class="fil5" points="13761,17079 16370,17079 16370,16695 13761,16695 "/>
     <polygon class="fil5" points="16068,24340 18677,24340 18677,23957 16068,23957 "/>
     <polygon class="fil5" points="16100,27228 18709,27228 18709,26844 16100,26844 "/>
     <polygon class="fil5" points="20734,27228 23343,27228 23343,26844 20734,26844 "/>
     <polygon class="fil5" points="13761,18523 17480,18523 17480,18139 13761,18139 "/>
     <polygon class="fil5" points="21894,28672 24502,28672 24502,28288 21894,28288 "/>
     <polygon class="fil5" points="40515,15635 42261,15635 42261,15251 40515,15251 "/>
     <polygon class="fil6" points="34380,15635 37703,15635 37703,15251 34380,15251 "/>
     <polygon class="fil6" points="30303,17079 33627,17079 33627,16695 30303,16695 "/>
     <polygon class="fil6" points="25976,18523 29300,18523 29300,18139 25976,18139 "/>
     <polygon class="fil5" points="34045,17079 36408,17079 36408,16695 34045,16695 "/>
     <polygon class="fil7" points="23419,18523 25368,18523 25368,18139 23419,18139 "/>
     <polygon class="fil7" points="21894,24362 23842,24362 23842,23978 21894,23978 "/>
     <polygon class="fil4" points="21430,18523 22647,18523 22647,18139 21430,18139 "/>
     <polygon class="fil4" points="38504,15635 39721,15635 39721,15251 38504,15251 "/>
     <polygon class="fil6" points="13730,15635 15633,15635 15633,15251 13730,15251 "/>
     <polygon class="fil6" points="18808,22897 20310,22897 20310,22513 18808,22513 "/>
     <polygon class="fil6" points="16100,15635 16714,15635 16714,15251 16100,15251 "/>
     <polygon class="fil4" points="28716,15635 33795,15635 33795,15251 28716,15251 "/>
     <polygon class="fil4" points="23842,27228 28922,27228 28922,26844 23842,26844 "/>
     <polygon class="fil7" points="17166,15635 17793,15635 17793,15251 17166,15251 "/>
     <polygon class="fil6" points="26585,15635 28246,15635 28246,15251 26585,15251 "/>
     <polygon class="fil7" points="28246,17079 29908,17079 29908,16695 28246,16695 "/>
     <polygon class="fil7" points="19702,28672 21363,28672 21363,28288 19702,28288 "/>
     <polygon class="fil6" points="22609,15635 26145,15635 26145,15251 22609,15251 "/>
     <polygon class="fil6" points="19318,24362 21384,24362 21384,23978 19318,23978 "/>
     <polygon class="fil6" points="19185,27228 20218,27228 20218,26844 19185,26844 "/>
     <polygon class="fil5" points="20891,15635 22108,15635 22108,15251 20891,15251 "/>
     <polygon class="fil7" points="16796,17079 18013,17079 18013,16695 16796,16695 "/>
     <polygon class="fil7" points="17039,22897 18255,22897 18255,22513 17039,22513 "/>
     <polygon class="fil6" points="18307,15635 20427,15635 20427,15251 18307,15251 "/>
     <path class="fil18" d="M45808 30555l3535 0 3 0c80,0 156,-19 223,-52 314,-1150 -129,-1987 -207,-2781 -51,-520 207,-803 509,-861l0 -4997 -2924 0 0 -128 2924 0 0 -2579c0,-297 -237,-538 -528,-538l-3535 0 0 11936z"/>
     <polygon class="fil19" points="44488,30555 45808,30555 45808,18619 44488,18619 "/>
     <path class="fil20" d="M44488 30555l-10516 0c-292,0 -528,-241 -528,-538l0 -10860c0,-297 236,-538 528,-538l10516 0 0 11936z"/>
     <path class="fil21" d="M49569 30503c314,-1150 -129,-1987 -207,-2781 -51,-520 207,-803 509,-861l0 3156c0,215 -124,400 -302,486z"/>
     <path class="fil22" d="M48097 25591l-2647 0c-112,0 -203,-92 -203,-206l0 -417c0,-114 91,-206 203,-206l2647 0c112,0 202,92 202,206l0 417c0,114 -90,206 -202,206z"/>
     <path class="fil22" d="M48097 27144l-2647 0c-112,0 -203,-92 -203,-206l0 -417c0,-114 91,-206 203,-206l2647 0c112,0 202,92 202,206l0 417c0,114 -90,206 -202,206z"/>
     <path class="fil22" d="M48097 28697l-2647 0c-112,0 -203,-92 -203,-206l0 -417c0,-114 91,-206 203,-206l2647 0c112,0 202,92 202,206l0 417c0,114 -90,206 -202,206z"/>
     <path class="fil22" d="M40648 27731c-1370,499 -2846,48 -3735,-1018 -212,-254 -391,-543 -527,-862 -30,-71 -58,-143 -84,-216 -259,-738 -257,-1506 -44,-2199 307,-1002 1056,-1850 2100,-2230 345,-126 696,-191 1043,-202 1433,-44 2794,847 3303,2297 632,1802 -289,3785 -2056,4430zm3124 -4819c-679,-1935 -2493,-3123 -4405,-3064 -463,14 -931,101 -1391,269 -1392,507 -2391,1638 -2801,2974 -285,926 -287,1950 59,2933 34,98 71,194 111,288 182,426 420,812 703,1151 1187,1421 3155,2022 4982,1357 2358,-860 3585,-3505 2742,-5908z"/>
     <path class="fil23" d="M36258 23436l-1083 -345c410,-1336 1409,-2467 2801,-2974 460,-168 928,-255 1391,-269l34 1156c-347,11 -698,76 -1043,202 -1044,380 -1793,1228 -2100,2230z"/>
     <path class="fil24" d="M36386 25851l-1041 461c-40,-94 -77,-190 -111,-288 -346,-983 -344,-2007 -59,-2933l1083 345c-213,693 -215,1461 44,2199 26,73 54,145 84,216z"/>
     <path class="fil25" d="M36048 27463c-283,-339 -521,-725 -703,-1151l1041 -461c136,319 315,608 527,862l-865 750z"/>
     <path class="fil11" d="M41016 27209c0,0 -219,-392 129,-1442 337,-1015 1503,-923 1874,-272 370,650 245,1054 -301,1789 -545,734 -1475,261 -1702,-75z"/>
     <path class="fil11" d="M43725 45272c0,0 58,431 65,496 7,64 642,-38 642,-38l51 -514c0,0 -679,-5 -758,56z"/>
     <path class="fil26" d="M43783 45713c0,0 -201,260 -396,373 -194,113 -500,158 -615,275 -83,85 -302,449 506,442 807,-7 1197,51 1283,-88 87,-140 -125,-1031 -125,-1031 0,0 -197,57 -653,29z"/>
     <path class="fil11" d="M39330 45272c0,0 58,431 65,496 7,64 642,-38 642,-38l51 -514c0,0 -678,-5 -758,56z"/>
     <path class="fil26" d="M39389 45713c0,0 -202,260 -396,373 -195,113 -910,206 -1025,323 -83,85 -222,426 915,394 808,-23 1197,51 1284,-88 86,-140 -125,-1031 -125,-1031 0,0 -251,45 -653,29z"/>
     <path class="fil27" d="M43511 34536c0,0 326,1031 283,1919 -43,888 168,1860 254,2788 97,1034 490,3483 504,4037 15,553 -61,2320 -61,2320l-788 19c0,0 -662,-4281 -833,-4718 -172,-437 -1022,-3551 -1050,-3900 -29,-350 1691,-2465 1691,-2465z"/>
     <path class="fil27" d="M40243 34429c0,0 -478,2725 -536,3269 -56,543 -95,2630 -123,2970 -29,340 -191,4446 -343,4951l879 0c0,0 902,-2985 902,-4398 0,-1412 598,-3070 983,-4002 386,-932 1269,-954 1506,-2683 0,0 -2947,-656 -3268,-107z"/>
     <path class="fil11" d="M41335 27486c0,0 99,294 0,504 -99,210 1267,84 1267,84 0,0 -62,-434 116,-790 179,-357 -1383,202 -1383,202z"/>
     <path class="fil28" d="M43574 34761c0,0 -491,514 -3375,-81l44 -251 3279 126 52 206z"/>
     <path class="fil11" d="M41128 28058c0,0 -504,53 -648,81 -144,28 -1114,-177 -1313,-198 -200,-21 -1048,-614 -1076,-684 -27,-70 -516,-1331 -543,-1604 -28,-273 -476,-132 -438,56 72,352 164,1205 215,1453 55,267 201,872 284,946 82,75 846,667 1594,919 749,252 1312,623 1312,623l3686 0c0,0 1434,-2090 1465,-2404 31,-315 -1001,-2407 -1207,-2670 -206,-262 -504,86 -504,86 0,0 617,1845 699,2107 83,263 -717,1415 -937,1419 -220,3 -783,-70 -1034,-81 -251,-10 -515,-122 -515,-122l-1040 73z"/>
     <path class="fil29" d="M39540 29454c0,0 451,306 492,830 41,525 206,1354 288,1637 83,283 -72,2340 -92,2487 -21,147 2853,496 3294,147 0,0 123,-1921 175,-2466 51,-546 298,-1868 381,-2046 82,-179 1081,-1606 1122,-1794 0,0 -517,-840 -887,-850 0,0 -589,703 -781,734 -192,32 -1368,-188 -1368,-190 0,0 -129,179 -811,-31 0,0 -813,93 -945,110 -160,21 -1273,-142 -1273,-142 0,0 -447,768 -369,1156l774 418z"/>
     <path class="fil11" d="M37574 25817c0,0 -101,-486 20,-626 69,-79 235,-290 250,-321 16,-31 194,-135 194,-185 0,-51 -175,-112 -326,31 -152,143 -247,174 -307,158 -61,-15 -148,-529 -156,-657 -8,-127 -56,-464 -134,-440 -78,23 -74,170 -74,170 0,0 -91,-256 -152,-205 -61,50 -53,174 -53,174 0,0 -114,-143 -144,-39 -31,104 0,197 0,197 0,0 -118,-66 -125,97 -8,162 34,637 117,807 83,171 396,615 433,789 37,174 457,50 457,50z"/>
     <path class="fil11" d="M44055 24963c0,0 -343,-588 -459,-640 -117,-53 -282,-82 -426,-187 -144,-105 -334,-193 -324,-228 10,-35 180,-21 362,60 182,80 262,41 279,-1 17,-42 -97,-338 -152,-408 -55,-70 -446,-471 -381,-530 65,-60 319,161 360,206 0,0 -202,-434 -123,-455 79,-21 226,133 226,133 0,0 -17,-370 374,231 0,0 -82,-199 38,-133 120,67 237,441 275,630 37,189 209,790 355,935 146,146 -404,387 -404,387z"/>
     <path class="fil30" d="M42718 27284c0,0 -180,16 -565,-119 -384,-136 -413,-820 -496,-739 -169,165 -330,51 -394,-47 0,0 188,-252 101,-373 -87,-121 -228,-210 -228,-210 0,0 270,-1328 1500,-723 1441,709 82,2211 82,2211z"/>
     <path class="fil31" d="M41335 27990l44 -192c0,0 785,-16 1213,47l45 230c0,0 -549,253 -1302,-85z"/>
     <path class="fil11" d="M41529 26258c71,-121 335,-203 366,139 24,266 -472,556 -476,308 -5,-247 62,-367 110,-447z"/>
     <path class="fil32" d="M37555 25707c0,0 -283,7 -421,133 0,0 -9,81 23,144 0,0 246,-117 434,-139 0,0 -3,-105 -36,-138z"/>
     <path class="fil30" d="M37221 25779c-26,63 3,136 65,162 62,27 133,-3 159,-66 26,-63 -2,-136 -65,-163 -61,-26 -133,3 -159,67z"/>
     <path class="fil33" d="M30263 15517c0,0 404,700 575,814 233,155 87,312 -23,312 -110,0 -673,41 -797,-102 -124,-144 -186,-573 -301,-686 -115,-112 -234,-559 56,-668 257,-96 490,330 490,330z"/>
     <path class="fil34" d="M30087 15210c0,0 464,819 544,940 80,121 -151,121 -294,63 -142,-57 -501,-645 -553,-752 -61,-128 -11,-274 -11,-274l314 23z"/>
     <polygon class="fil33" points="29617,15650 29724,16490 29781,16493 29763,15889 "/>
     <path class="fil33" d="M26247 15517c0,0 405,700 576,814 232,155 87,312 -24,312 -110,0 -673,41 -797,-102 -124,-144 -185,-573 -300,-686 -116,-112 -239,-571 56,-668 258,-85 489,330 489,330z"/>
     <path class="fil34" d="M26096 15211c0,0 439,818 519,939 80,121 -150,121 -293,63 -143,-57 -502,-645 -553,-752 -62,-128 -11,-274 -11,-274l338 24z"/>
     <polygon class="fil33" points="25602,15650 25709,16490 25766,16493 25748,15889 "/>
    </g>
    <path class="fil34" d="M24451 9150l3664 1702c0,0 409,135 455,598 143,1445 1203,3737 1203,3737 340,170 314,23 314,23 -214,-702 -475,-3593 -568,-4755 -20,-247 -32,-415 -35,-469 -2,-37 -41,-85 -109,-141 -503,-415 -2572,-1276 -2572,-1276 -1553,-40 -2352,581 -2352,581z"/>
    <path class="fil34" d="M23760 9881c113,1009 1527,894 1527,894l1714 0c0,0 -450,1020 -624,1881 -185,914 -619,2531 -619,2531 0,0 28,55 338,24 0,0 1345,-2732 1860,-3419 111,-148 428,-950 483,-1429 18,-161 7,-285 -52,-336 -60,-51 -196,-146 -378,-263 -537,-345 -1469,-876 -1989,-995 -695,-160 -1795,-458 -1795,-458 0,0 -578,560 -465,1570z"/>
    <path class="fil35" d="M24926 2105c0,0 -256,-496 -131,-1025 125,-528 606,-1055 1310,-813 705,242 1274,800 852,1445 -422,645 382,936 177,1243 -205,307 -127,627 -40,699 86,71 366,325 336,627 -31,301 -1367,-878 -1367,-878 0,0 -728,-1491 -1137,-1298z"/>
    <path class="fil36" d="M27073 8448c0,0 -106,526 -2842,-138 0,0 917,-310 2842,138z"/>
    <path class="fil37" d="M24199 8458c-42,82 -84,165 -127,247 1001,30 2001,60 3001,89 -158,-540 -107,-1271 -79,-1826 34,-678 401,-1150 362,-1836 198,33 232,39 431,70 -304,-880 -407,-1316 -1349,-1655 -307,-110 -508,-132 -840,-104 -1090,91 -1419,104 -1955,1112 839,136 700,443 955,1293 124,414 253,877 187,1314 -66,431 -586,903 -586,1296z"/>
    <path class="fil11" d="M25940 3760c-447,-86 -352,-339 -352,-339 0,0 21,-142 29,-323 2,-46 3,-95 3,-144 0,-75 -4,-152 -12,-224 -37,-305 810,-123 810,-123 0,0 -49,618 68,803 117,185 -100,436 -546,350z"/>
    <path class="fil11" d="M25088 3420c0,0 901,1059 1233,1305 0,0 383,-352 147,-1282 0,0 -435,-222 -1380,-23z"/>
    <path class="fil11" d="M25113 870c0,0 -468,918 -4,1788 464,869 1375,-379 1434,-526 59,-146 371,-975 -250,-1226 -622,-252 -1048,-285 -1180,-36z"/>
    <path class="fil35" d="M25268 1196c0,0 -322,430 -360,749 0,0 -128,-602 235,-1181 362,-578 1283,-27 1406,204 124,231 485,435 -122,1428 0,0 -1093,-774 -1159,-1200z"/>
    <path class="fil38" d="M26015 2749c0,0 -81,181 -398,349 2,-46 3,-95 3,-144 0,0 215,-27 395,-205z"/>
    <path class="fil11" d="M21290 7631c0,0 -222,101 -328,56 -105,-46 -268,-55 -319,-55 -69,0 -284,-79 -281,7 4,86 350,146 421,172 70,27 -212,186 -238,256 -26,70 292,532 472,401 180,-132 277,-395 314,-411 36,-17 135,-91 135,-91l-176 -335z"/>
    <path class="fil11" d="M20579 8026c0,0 -521,440 -530,500 -8,59 20,87 70,48 51,-39 517,-410 517,-410 0,0 -522,628 -540,675 -10,27 40,84 69,66 29,-19 585,-611 585,-611 0,0 -487,588 -489,632 -3,39 56,80 95,39 40,-41 524,-559 524,-559 0,0 -326,451 -306,491 13,24 54,75 134,-44 80,-119 300,-379 300,-379l-429 -448z"/>
    <path class="fil8" d="M26822 10775l-1535 0c0,0 -1414,115 -1527,-894 -113,-1010 465,-1570 465,-1570 0,0 747,202 1399,363 326,-71 720,-117 1179,-105 0,0 2765,931 2681,1421 0,0 -1156,-630 -2662,785z"/>
    <polygon class="fil39" points="25823,9027 28749,8983 27272,9747 "/>
    <path class="fil37" d="M26732 8646c0,0 -658,259 -1465,24l-38 -307 1661 95 -158 188z"/>
    <polygon class="fil40" points="27272,9747 25823,9175 25823,9027 27386,9601 "/>
    <path class="fil41" d="M26722 8788c-8,110 101,189 201,146l170 -74c51,-22 81,-77 72,-133 -71,-451 -223,-2207 -1,-2508 82,-112 133,-209 162,-295 147,385 329,881 401,1148l1383 1874 463 120c-578,-1421 -1043,-2173 -1043,-2173 -90,-248 -350,-997 -580,-1665 -145,-421 -278,-810 -349,-1019 -37,-106 -108,-195 -203,-253 -214,-130 -571,-336 -894,-496l-4 -2 -31 -15 -1 0 0 0c615,948 375,3628 254,5341l0 4z"/>
    <path class="fil41" d="M24438 3524c-197,31 -686,514 -945,1002 -296,557 -598,1191 -824,1400 -415,384 -1578,1740 -1633,1707 -22,-13 319,405 362,424 21,10 1911,-1659 2093,-1913 172,-241 632,-1253 770,-1231l0 1 0 0c11,23 178,393 337,934l8 27c109,377 99,786 40,1247 -45,347 -299,915 -453,1191 -18,33 -13,96 6,145l0 0c12,28 30,52 51,60l555 209 130 49c94,36 192,17 266,-37 60,-45 104,-114 114,-197 124,-967 280,-1955 404,-2327 546,-1634 -213,-2861 -213,-2861 0,0 -895,104 -1068,170z"/>
    <polygon class="fil42" points="27272,9747 28142,7325 30948,7372 30118,9604 "/>
    <path class="fil35" d="M26082 1784c0,0 180,285 14,531 -166,246 42,488 77,748 37,260 -693,952 118,1300 811,348 1069,-227 862,-544 -206,-317 -353,-574 -371,-1025 -17,-452 -163,-1156 -700,-1010z"/>
   </g>
  </g>
 </g>
</svg>
