<?xml version="1.0" encoding="utf-8"?>
<!-- Generator: Adobe Illustrator 16.0.0, SVG Export Plug-In . SVG Version: 6.00 Build 0)  -->
<!DOCTYPE svg PUBLIC "-//W3C//DTD SVG 1.1//EN" "http://www.w3.org/Graphics/SVG/1.1/DTD/svg11.dtd">
<svg version="1.1" id="Layer_1" xmlns="http://www.w3.org/2000/svg" xmlns:xlink="http://www.w3.org/1999/xlink" x="0px" y="0px"
	viewBox="0 0 62 62" enable-background="new 0 0 62 62" xml:space="preserve">
<g>
	<defs>
		<rect id="SVGID_1_" width="62" height="62"/>
	</defs>
	<clipPath id="SVGID_2_">
		<use xlink:href="#SVGID_1_"  overflow="visible"/>
	</clipPath>
	
		<path clip-path="url(#SVGID_2_)" fill="none" stroke="#FF687D" stroke-width="2" stroke-linecap="round" stroke-linejoin="round" d="
		M45.062,34.888c1.341-2.808,2.093-5.953,2.093-9.272c0-11.895-9.644-21.539-21.539-21.539S4.078,13.721,4.078,25.616
		s9.643,21.538,21.538,21.538c3.305,0,6.436-0.744,9.235-2.074"/>
	
		<line clip-path="url(#SVGID_2_)" fill="none" stroke="#FF687D" stroke-width="2" stroke-linecap="round" stroke-linejoin="round" x1="25.615" y1="50.231" x2="25.615" y2="44.077"/>
	
		<line clip-path="url(#SVGID_2_)" fill="none" stroke="#FF687D" stroke-width="2" stroke-linecap="round" stroke-linejoin="round" x1="25.615" y1="7.154" x2="25.615" y2="1"/>
	
		<line clip-path="url(#SVGID_2_)" fill="none" stroke="#FF687D" stroke-width="2" stroke-linecap="round" stroke-linejoin="round" x1="50.23" y1="25.615" x2="44.077" y2="25.615"/>
	
		<line clip-path="url(#SVGID_2_)" fill="none" stroke="#FF687D" stroke-width="2" stroke-linecap="round" stroke-linejoin="round" x1="7.154" y1="25.615" x2="1" y2="25.615"/>
	
		<path clip-path="url(#SVGID_2_)" fill="none" stroke="#FF687D" stroke-width="2" stroke-linecap="round" stroke-linejoin="round" d="
		M37.532,28.703c0.255-0.987,0.391-2.021,0.391-3.088c0-6.797-5.511-12.308-12.308-12.308s-12.308,5.511-12.308,12.308
		c0,6.797,5.511,12.308,12.308,12.308c1.075,0,2.117-0.138,3.111-0.396"/>
	
		<path clip-path="url(#SVGID_2_)" fill="none" stroke="#FF687D" stroke-width="2" stroke-linecap="round" stroke-linejoin="round" d="
		M29.046,22.528C28.201,21.59,26.977,21,25.615,21C23.067,21,21,23.067,21,25.615c0,1.36,0.588,2.582,1.523,3.427"/>
	
		<line clip-path="url(#SVGID_2_)" fill="none" stroke="#FF687D" stroke-width="2" stroke-linecap="round" stroke-linejoin="round" x1="27.154" y1="27.154" x2="45.615" y2="45.615"/>
	
		<polygon clip-path="url(#SVGID_2_)" fill="none" stroke="#FF687D" stroke-width="2" stroke-linecap="round" stroke-linejoin="round" points="
		54.846,54.847 53.308,61 45.615,53.308 45.615,45.615 53.308,45.615 61,53.308 	"/>
</g>
</svg>
