<?xml version="1.0" encoding="utf-8"?>
<!-- Generator: Adobe Illustrator 16.0.0, SVG Export Plug-In . SVG Version: 6.00 Build 0)  -->
<!DOCTYPE svg PUBLIC "-//W3C//DTD SVG 1.1//EN" "http://www.w3.org/Graphics/SVG/1.1/DTD/svg11.dtd">
<svg version="1.1" id="Layer_1" xmlns="http://www.w3.org/2000/svg" xmlns:xlink="http://www.w3.org/1999/xlink" x="0px" y="0px"
	viewBox="0 0 62 62" enable-background="new 0 0 62 62" xml:space="preserve">
<g>
	<defs>
		<rect id="SVGID_1_" width="62" height="62"/>
	</defs>
	<clipPath id="SVGID_2_">
		<use xlink:href="#SVGID_1_"  overflow="visible"/>
	</clipPath>
	
		<path clip-path="url(#SVGID_2_)" fill="none" stroke="#FF687D" stroke-width="2" stroke-linecap="round" stroke-linejoin="round" d="
		M58.322,1H3.678C2.199,1,1,2.199,1,3.679v54.642C1,59.801,2.199,61,3.678,61h54.644C59.801,61,61,59.801,61,58.321V3.679
		C61,2.199,59.801,1,58.322,1z"/>
	
		<line clip-path="url(#SVGID_2_)" fill="none" stroke="#FF687D" stroke-width="2" stroke-linecap="round" stroke-linejoin="round" x1="7.522" y1="9" x2="12.739" y2="9"/>
	
		<line clip-path="url(#SVGID_2_)" fill="none" stroke="#FF687D" stroke-width="2" stroke-linecap="round" stroke-linejoin="round" x1="7.522" y1="20" x2="55.783" y2="20"/>
	
		<line clip-path="url(#SVGID_2_)" fill="none" stroke="#FF687D" stroke-width="2" stroke-linecap="round" stroke-linejoin="round" x1="54.479" y1="9" x2="55.783" y2="9"/>
	
		<line clip-path="url(#SVGID_2_)" fill="none" stroke="#FF687D" stroke-width="2" stroke-linecap="round" stroke-linejoin="round" x1="47.957" y1="9" x2="49.261" y2="9"/>
	
		<line clip-path="url(#SVGID_2_)" fill="none" stroke="#FF687D" stroke-width="2" stroke-linecap="round" stroke-linejoin="round" x1="7.522" y1="30" x2="12.739" y2="30"/>
	
		<line clip-path="url(#SVGID_2_)" fill="none" stroke="#FF687D" stroke-width="2" stroke-linecap="round" stroke-linejoin="round" x1="7.522" y1="41" x2="55.783" y2="41"/>
	
		<line clip-path="url(#SVGID_2_)" fill="none" stroke="#FF687D" stroke-width="2" stroke-linecap="round" stroke-linejoin="round" x1="54.479" y1="30" x2="55.783" y2="30"/>
	
		<line clip-path="url(#SVGID_2_)" fill="none" stroke="#FF687D" stroke-width="2" stroke-linecap="round" stroke-linejoin="round" x1="47.957" y1="30" x2="49.261" y2="30"/>
	
		<line clip-path="url(#SVGID_2_)" fill="none" stroke="#FF687D" stroke-width="2" stroke-linecap="round" stroke-linejoin="round" x1="7.522" y1="51" x2="12.739" y2="51"/>
	
		<line clip-path="url(#SVGID_2_)" fill="none" stroke="#FF687D" stroke-width="2" stroke-linecap="round" stroke-linejoin="round" x1="54.479" y1="51" x2="55.783" y2="51"/>
	
		<line clip-path="url(#SVGID_2_)" fill="none" stroke="#FF687D" stroke-width="2" stroke-linecap="round" stroke-linejoin="round" x1="47.957" y1="51" x2="49.261" y2="51"/>
</g>
</svg>
