<?xml version="1.0" encoding="utf-8"?>
<!-- Generator: Adobe Illustrator 16.0.0, SVG Export Plug-In . SVG Version: 6.00 Build 0)  -->
<!DOCTYPE svg PUBLIC "-//W3C//DTD SVG 1.1//EN" "http://www.w3.org/Graphics/SVG/1.1/DTD/svg11.dtd">
<svg version="1.1" id="Layer_1" xmlns="http://www.w3.org/2000/svg" xmlns:xlink="http://www.w3.org/1999/xlink" x="0px" y="0px"
	viewBox="0 0 62 62" enable-background="new 0 0 62 62" xml:space="preserve">
<line fill="none" stroke="#CB6686" stroke-width="2" stroke-linecap="round" stroke-linejoin="round" x1="15.347" y1="31" x2="46.652" y2="31"/>
<g>
	<defs>
		<rect id="SVGID_1_" width="62" height="62"/>
	</defs>
	<clipPath id="SVGID_2_">
		<use xlink:href="#SVGID_1_"  overflow="visible"/>
	</clipPath>
	
		<path clip-path="url(#SVGID_2_)" fill="none" stroke="#CB6686" stroke-width="2" stroke-linecap="round" stroke-linejoin="round" d="
		M58.322,1H3.678C2.199,1,1,2.199,1,3.679v16.642C1,21.801,2.199,23,3.678,23h54.644C59.801,23,61,21.801,61,20.321V3.679
		C61,2.199,59.801,1,58.322,1z"/>
	
		<line clip-path="url(#SVGID_2_)" fill="none" stroke="#CB6686" stroke-width="2" stroke-linecap="round" stroke-linejoin="round" x1="7.522" y1="12" x2="12.739" y2="12"/>
	
		<line clip-path="url(#SVGID_2_)" fill="none" stroke="#CB6686" stroke-width="2" stroke-linecap="round" stroke-linejoin="round" x1="54.479" y1="12" x2="55.783" y2="12"/>
	
		<line clip-path="url(#SVGID_2_)" fill="none" stroke="#CB6686" stroke-width="2" stroke-linecap="round" stroke-linejoin="round" x1="47.957" y1="12" x2="49.261" y2="12"/>
	
		<path clip-path="url(#SVGID_2_)" fill="none" stroke="#CB6686" stroke-width="2" stroke-linecap="round" stroke-linejoin="round" d="
		M58.322,39H3.678C2.199,39,1,40.199,1,41.679v16.643C1,59.801,2.199,61,3.678,61h54.644C59.801,61,61,59.801,61,58.321V41.679
		C61,40.199,59.801,39,58.322,39z"/>
	
		<line clip-path="url(#SVGID_2_)" fill="none" stroke="#CB6686" stroke-width="2" stroke-linecap="round" stroke-linejoin="round" x1="7.522" y1="50" x2="12.739" y2="50"/>
	
		<line clip-path="url(#SVGID_2_)" fill="none" stroke="#CB6686" stroke-width="2" stroke-linecap="round" stroke-linejoin="round" x1="54.479" y1="50" x2="55.783" y2="50"/>
	
		<line clip-path="url(#SVGID_2_)" fill="none" stroke="#CB6686" stroke-width="2" stroke-linecap="round" stroke-linejoin="round" x1="47.957" y1="50" x2="49.261" y2="50"/>
</g>
</svg>
