<?xml version="1.0" encoding="utf-8"?>
<!-- Generator: Adobe Illustrator 16.0.0, SVG Export Plug-In . SVG Version: 6.00 Build 0)  -->
<!DOCTYPE svg PUBLIC "-//W3C//DTD SVG 1.1//EN" "http://www.w3.org/Graphics/SVG/1.1/DTD/svg11.dtd">
<svg version="1.1" id="Layer_1" xmlns="http://www.w3.org/2000/svg" xmlns:xlink="http://www.w3.org/1999/xlink" x="0px" y="0px"
	viewBox="0 0 67.328 60" enable-background="new 0 0 67.328 60" xml:space="preserve">
<g>
	<defs>
		<rect id="SVGID_1_" width="67.328" height="60"/>
	</defs>
	<clipPath id="SVGID_2_">
		<use xlink:href="#SVGID_1_"  overflow="visible"/>
	</clipPath>
	<path clip-path="url(#SVGID_2_)" fill="#745984" d="M42.423,35.247H8.734C3.918,35.247,0,31.328,0,26.512s3.919-8.735,8.735-8.735
		c1.132,0,2.246,0.221,3.286,0.646c0.665-5.376,5.26-9.55,10.813-9.55c1.057,0,2.095,0.151,3.1,0.45C27.625,3.86,32.774,0,38.568,0
		c6.643,0,12.159,4.883,13.079,11.332c1.124-0.334,2.287-0.502,3.472-0.502c6.732,0,12.208,5.477,12.208,12.208
		c0,2.102-0.543,4.174-1.569,5.993c-0.264,0.468-0.854,0.634-1.32,0.368c-0.467-0.262-0.631-0.854-0.369-1.32
		c0.864-1.529,1.321-3.273,1.321-5.041c0-5.663-4.607-10.27-10.271-10.27c-1.362,0-2.69,0.266-3.946,0.79
		c-0.292,0.122-0.625,0.093-0.893-0.077c-0.267-0.17-0.434-0.458-0.448-0.774C49.555,6.668,44.607,1.938,38.568,1.938
		c-5.257,0-9.892,3.725-11.021,8.857c-0.062,0.279-0.243,0.517-0.497,0.65c-0.254,0.133-0.553,0.149-0.817,0.038
		c-1.085-0.445-2.229-0.672-3.4-0.672c-4.938,0-8.957,4.018-8.957,8.957c0.001,0.016,0.01,0.172,0.011,0.189
		c0.007,0.357-0.184,0.69-0.496,0.865c-0.313,0.176-0.696,0.163-0.997-0.029c-1.099-0.704-2.365-1.077-3.66-1.077
		c-3.748,0-6.795,3.049-6.795,6.796c0,3.749,3.047,6.796,6.795,6.796h33.688c0.535,0,0.97,0.433,0.97,0.969
		S42.958,35.247,42.423,35.247"/>
	<path clip-path="url(#SVGID_2_)" fill="#745984" d="M44.361,35.247h-1.938c-0.536,0-0.97-0.434-0.97-0.97s0.434-0.969,0.97-0.969
		h1.938c0.536,0,0.97,0.433,0.97,0.969S44.897,35.247,44.361,35.247"/>
	<path clip-path="url(#SVGID_2_)" fill="#745984" d="M55.12,35.247h-2.479c-0.535,0-0.968-0.434-0.968-0.97s0.433-0.969,0.968-0.969
		h2.479c0.506,0,1.016-0.038,1.516-0.111c0.525-0.085,1.021,0.288,1.1,0.818c0.077,0.528-0.288,1.021-0.817,1.1
		C56.324,35.202,55.72,35.247,55.12,35.247"/>
	<path clip-path="url(#SVGID_2_)" fill="#745984" d="M63.819,31.124c-0.217,0-0.435-0.071-0.614-0.22
		c-0.414-0.339-0.475-0.949-0.136-1.364c0.375-0.457,0.711-0.948,1-1.461c0.264-0.467,0.854-0.632,1.32-0.368
		c0.467,0.264,0.631,0.854,0.367,1.32c-0.343,0.611-0.743,1.195-1.188,1.738C64.378,31.003,64.099,31.124,63.819,31.124"/>
	<path clip-path="url(#SVGID_2_)" fill="#745984" d="M16.158,25.2c-0.414,0-0.798-0.268-0.926-0.686
		c-0.881-2.869-3.492-4.797-6.498-4.797c-0.535,0-0.97-0.433-0.97-0.969s0.435-0.97,0.97-0.97c3.862,0,7.219,2.479,8.352,6.169
		c0.157,0.511-0.131,1.054-0.643,1.211C16.348,25.187,16.253,25.2,16.158,25.2"/>
	<path clip-path="url(#SVGID_2_)" fill="#745984" d="M27.272,18.972c-0.378,0-0.737-0.222-0.894-0.592
		c-0.69-1.632-1.04-3.364-1.04-5.15c0-2.701,0.809-5.3,2.339-7.514c0.305-0.441,0.907-0.552,1.35-0.246
		c0.44,0.304,0.551,0.908,0.246,1.348c-1.306,1.889-1.996,4.107-1.996,6.412c0,1.525,0.299,3.004,0.887,4.394
		c0.209,0.494-0.022,1.063-0.515,1.271C27.526,18.947,27.398,18.972,27.272,18.972"/>
	<path clip-path="url(#SVGID_2_)" fill="#745984" d="M45.875,17.615c-0.189,0-0.384-0.057-0.552-0.173
		c-0.439-0.305-0.55-0.909-0.243-1.348c2.281-3.296,6.035-5.263,10.04-5.263c0.534,0,0.97,0.433,0.97,0.969
		c0,0.536-0.436,0.969-0.97,0.969c-3.368,0-6.526,1.656-8.447,4.428C46.484,17.469,46.183,17.615,45.875,17.615"/>
	<path clip-path="url(#SVGID_2_)" fill="#745984" d="M39.249,60H28.08c-1.649,0-2.991-1.342-2.991-2.99V45.842
		c0-1.649,1.342-2.991,2.991-2.991h11.169c1.647,0,2.99,1.342,2.99,2.991V57.01C42.239,58.658,40.896,60,39.249,60 M28.08,44.788
		c-0.58,0-1.053,0.474-1.053,1.054V57.01c0,0.581,0.473,1.051,1.053,1.051h11.169c0.579,0,1.051-0.47,1.051-1.051V45.842
		c0-0.58-0.472-1.054-1.051-1.054H28.08z"/>
	<path clip-path="url(#SVGID_2_)" fill="#745984" d="M33.664,44.788c-0.535,0-0.97-0.434-0.97-0.969v-9.542
		c0-0.536,0.435-0.969,0.97-0.969s0.97,0.433,0.97,0.969v9.542C34.634,44.354,34.199,44.788,33.664,44.788"/>
	<path clip-path="url(#SVGID_2_)" fill="#745984" d="M66.358,52.394H41.27c-0.535,0-0.971-0.433-0.971-0.969
		s0.436-0.969,0.971-0.969h25.089c0.536,0,0.97,0.433,0.97,0.969S66.895,52.394,66.358,52.394"/>
	<path clip-path="url(#SVGID_2_)" fill="#745984" d="M26.058,52.394H0.969c-0.535,0-0.97-0.433-0.97-0.969s0.435-0.969,0.97-0.969
		h25.089c0.535,0,0.969,0.433,0.969,0.969S26.593,52.394,26.058,52.394"/>
	<path clip-path="url(#SVGID_2_)" fill="#745984" d="M33.664,56.297c-2.688,0-4.872-2.186-4.872-4.872c0-0.535,0.434-0.97,0.97-0.97
		c0.535,0,0.968,0.435,0.968,0.97c0,1.617,1.317,2.935,2.934,2.935c1.618,0,2.934-1.317,2.934-2.935
		c0-1.616-1.315-2.933-2.934-2.933c-0.535,0-0.97-0.433-0.97-0.969c0-0.537,0.435-0.971,0.97-0.971c2.687,0,4.872,2.186,4.872,4.872
		S36.351,56.297,33.664,56.297"/>
</g>
</svg>
