<?xml version="1.0" encoding="utf-8"?>
<!-- Generator: Adobe Illustrator 16.0.0, SVG Export Plug-In . SVG Version: 6.00 Build 0)  -->
<!DOCTYPE svg PUBLIC "-//W3C//DTD SVG 1.1//EN" "http://www.w3.org/Graphics/SVG/1.1/DTD/svg11.dtd">
<svg version="1.1" id="Layer_1" xmlns="http://www.w3.org/2000/svg" xmlns:xlink="http://www.w3.org/1999/xlink" x="0px" y="0px"
	viewBox="0 0 50.647 58" enable-background="new 0 0 50.647 58" xml:space="preserve">
<g>
	<defs>
		<rect id="SVGID_1_" width="50.647" height="58"/>
	</defs>
	<clipPath id="SVGID_2_">
		<use xlink:href="#SVGID_1_"  overflow="visible"/>
	</clipPath>
	<path clip-path="url(#SVGID_2_)" fill="#FF687D" d="M49.882,33.487c-0.423,0-0.767-0.343-0.767-0.767v-1.531
		c0-0.424,0.344-0.766,0.767-0.766s0.766,0.342,0.766,0.766v1.531C50.647,33.145,50.305,33.487,49.882,33.487"/>
	<path clip-path="url(#SVGID_2_)" fill="#FF687D" d="M49.882,26.386c-0.423,0-0.767-0.343-0.767-0.766v-2.785
		c0-0.424,0.344-0.765,0.767-0.765s0.766,0.341,0.766,0.765v2.785C50.647,26.042,50.305,26.386,49.882,26.386"/>
	<path clip-path="url(#SVGID_2_)" fill="#FF687D" d="M49.882,18.03c-0.423,0-0.767-0.343-0.767-0.766v-1.532
		c0-0.423,0.344-0.765,0.767-0.765s0.766,0.342,0.766,0.765v1.532C50.647,17.687,50.305,18.03,49.882,18.03"/>
	<path clip-path="url(#SVGID_2_)" fill="#FF687D" d="M44.842,40.728H5.805C2.604,40.728,0,38.123,0,34.923V3.858
		C0,1.73,1.731,0,3.859,0h14.345c0.208,0,0.407,0.085,0.551,0.235l8.733,9.045h19.3c2.128,0,3.859,1.731,3.859,3.858v2.595
		c0,0.424-0.344,0.766-0.766,0.766c-0.423,0-0.767-0.342-0.767-0.766v-2.595c0-1.282-1.044-2.326-2.327-2.326H27.163
		c-0.207,0-0.406-0.085-0.55-0.234L17.88,1.532H3.859c-1.283,0-2.327,1.044-2.327,2.326v31.064c0,2.356,1.917,4.273,4.273,4.273
		h39.037c2.356,0,4.273-1.917,4.273-4.273v-2.201c0-0.424,0.344-0.767,0.767-0.767c0.422,0,0.766,0.343,0.766,0.767v2.201
		C50.647,38.123,48.043,40.728,44.842,40.728"/>
	<path clip-path="url(#SVGID_2_)" fill="#FF687D" d="M27.163,10.812H9.885c-0.423,0-0.766-0.343-0.766-0.766
		c0-0.423,0.343-0.766,0.766-0.766h17.278c0.423,0,0.767,0.343,0.767,0.766C27.93,10.468,27.586,10.812,27.163,10.812"/>
	<path clip-path="url(#SVGID_2_)" fill="#FF687D" d="M5.862,3.981c-0.904,0-1.638,0.733-1.638,1.639
		c0,0.904,0.734,1.637,1.638,1.637c0.905,0,1.639-0.733,1.639-1.637C7.501,4.714,6.768,3.981,5.862,3.981"/>
	<path clip-path="url(#SVGID_2_)" fill="#FF687D" d="M11.119,3.981c-0.905,0-1.638,0.733-1.638,1.639
		c0,0.904,0.733,1.637,1.638,1.637c0.905,0,1.638-0.733,1.638-1.637C12.757,4.714,12.024,3.981,11.119,3.981"/>
	<path clip-path="url(#SVGID_2_)" fill="#FF687D" d="M16.375,3.981c-0.905,0-1.639,0.733-1.639,1.639
		c0,0.904,0.734,1.637,1.639,1.637c0.905,0,1.638-0.733,1.638-1.637C18.013,4.714,17.28,3.981,16.375,3.981"/>
	<path clip-path="url(#SVGID_2_)" fill="#FF687D" d="M48.416,58H28.669c-0.423,0-0.766-0.343-0.766-0.766V46.394
		c0-0.423,0.343-0.766,0.766-0.766h19.747c0.423,0,0.766,0.343,0.766,0.766v10.841C49.182,57.657,48.839,58,48.416,58
		 M29.435,56.469h18.217V47.16H29.435V56.469z"/>
	<path clip-path="url(#SVGID_2_)" fill="#FF687D" d="M21.978,58H2.231c-0.423,0-0.766-0.343-0.766-0.766V46.394
		c0-0.423,0.343-0.766,0.766-0.766h19.747c0.423,0,0.766,0.343,0.766,0.766v10.841C22.744,57.657,22.401,58,21.978,58 M2.997,56.469
		h18.215V47.16H2.997V56.469z"/>
	<path clip-path="url(#SVGID_2_)" fill="#FF687D" d="M33.287,50.176c-0.905,0-1.64,0.732-1.64,1.639c0,0.904,0.734,1.637,1.64,1.637
		c0.903,0,1.638-0.732,1.638-1.637C34.925,50.908,34.19,50.176,33.287,50.176"/>
	<path clip-path="url(#SVGID_2_)" fill="#FF687D" d="M38.543,50.176c-0.905,0-1.639,0.732-1.639,1.639
		c0,0.904,0.733,1.637,1.639,1.637c0.904,0,1.638-0.732,1.638-1.637C40.181,50.908,39.447,50.176,38.543,50.176"/>
	<path clip-path="url(#SVGID_2_)" fill="#FF687D" d="M43.799,50.176c-0.905,0-1.639,0.732-1.639,1.639
		c0,0.904,0.733,1.637,1.639,1.637c0.904,0,1.638-0.732,1.638-1.637C45.437,50.908,44.703,50.176,43.799,50.176"/>
	<path clip-path="url(#SVGID_2_)" fill="#FF687D" d="M6.848,50.176c-0.905,0-1.638,0.732-1.638,1.639
		c0,0.904,0.733,1.637,1.638,1.637c0.905,0,1.638-0.732,1.638-1.637C8.486,50.908,7.753,50.176,6.848,50.176"/>
	<path clip-path="url(#SVGID_2_)" fill="#FF687D" d="M12.104,50.176c-0.905,0-1.638,0.732-1.638,1.639
		c0,0.904,0.733,1.637,1.638,1.637c0.905,0,1.638-0.732,1.638-1.637C13.743,50.908,13.01,50.176,12.104,50.176"/>
	<path clip-path="url(#SVGID_2_)" fill="#FF687D" d="M17.36,50.176c-0.905,0-1.638,0.732-1.638,1.639
		c0,0.904,0.733,1.637,1.638,1.637c0.905,0,1.638-0.732,1.638-1.637C18.999,50.908,18.266,50.176,17.36,50.176"/>
	<path clip-path="url(#SVGID_2_)" fill="#FF687D" d="M12.658,47.16c-0.423,0-0.766-0.343-0.766-0.767v-6.432
		c0-0.423,0.343-0.766,0.766-0.766c0.423,0,0.766,0.343,0.766,0.766v6.432C13.424,46.817,13.082,47.16,12.658,47.16"/>
	<path clip-path="url(#SVGID_2_)" fill="#FF687D" d="M38.543,47.16c-0.424,0-0.767-0.343-0.767-0.767v-6.432
		c0-0.423,0.343-0.766,0.767-0.766c0.423,0,0.766,0.343,0.766,0.766v6.432C39.309,46.817,38.966,47.16,38.543,47.16"/>
</g>
</svg>
