<?xml version="1.0" encoding="utf-8"?>
<!-- Generator: Adobe Illustrator 16.0.0, SVG Export Plug-In . SVG Version: 6.00 Build 0)  -->
<!DOCTYPE svg PUBLIC "-//W3C//DTD SVG 1.1//EN" "http://www.w3.org/Graphics/SVG/1.1/DTD/svg11.dtd">
<svg version="1.1" id="Layer_1" xmlns="http://www.w3.org/2000/svg" xmlns:xlink="http://www.w3.org/1999/xlink" x="0px" y="0px"
	viewBox="0 0 49.362 56.695" enable-background="new 0 0 49.362 56.695" xml:space="preserve">
<g>
	<defs>
		<rect id="SVGID_1_" y="0" width="49.363" height="56.695"/>
	</defs>
	<clipPath id="SVGID_2_">
		<use xlink:href="#SVGID_1_"  overflow="visible"/>
	</clipPath>
	<path clip-path="url(#SVGID_2_)" fill="#CB6686" d="M48.597,18.42c-0.423,0-0.766-0.343-0.766-0.767v-3.332
		c0-1.141-0.928-2.07-2.069-2.07c-0.423,0-0.766-0.342-0.766-0.766c0-0.422,0.343-0.765,0.766-0.765
		c1.985,0,3.602,1.615,3.602,3.601v3.332C49.363,18.078,49.02,18.42,48.597,18.42"/>
	<path clip-path="url(#SVGID_2_)" fill="#CB6686" d="M48.597,38.51c-0.423,0-0.766-0.343-0.766-0.768v-1.53
		c0-0.425,0.343-0.766,0.766-0.766s0.767,0.341,0.767,0.766v1.53C49.363,38.167,49.02,38.51,48.597,38.51"/>
	<path clip-path="url(#SVGID_2_)" fill="#CB6686" d="M48.597,30.168c-0.423,0-0.766-0.343-0.766-0.767v-3.405
		c0-0.424,0.343-0.766,0.766-0.766s0.767,0.342,0.767,0.766v3.405C49.363,29.825,49.02,30.168,48.597,30.168"/>
	<path clip-path="url(#SVGID_2_)" fill="#CB6686" d="M48.597,19.952c-0.423,0-0.766-0.343-0.766-0.766v-1.532
		c0-0.423,0.343-0.765,0.766-0.765s0.767,0.342,0.767,0.765v1.532C49.363,19.609,49.02,19.952,48.597,19.952"/>
	<path clip-path="url(#SVGID_2_)" fill="#CB6686" d="M45.762,46.81H3.601C1.616,46.81,0,45.194,0,43.208V14.322
		c0-1.987,1.616-3.602,3.601-3.602c0.423,0,0.766,0.343,0.766,0.766c0,0.424-0.343,0.765-0.766,0.765
		c-1.141,0-2.069,0.929-2.069,2.071v28.886c0,1.142,0.928,2.07,2.069,2.07h42.161c1.142,0,2.069-0.929,2.069-2.07v-5.465
		c0-0.423,0.343-0.766,0.766-0.766s0.767,0.343,0.767,0.766v5.465C49.363,45.194,47.747,46.81,45.762,46.81"/>
	<path clip-path="url(#SVGID_2_)" fill="#CB6686" d="M48.597,41.688H0.766C0.343,41.688,0,41.347,0,40.922
		c0-0.422,0.343-0.765,0.766-0.765h47.831c0.423,0,0.767,0.343,0.767,0.765C49.363,41.347,49.02,41.688,48.597,41.688"/>
	<path clip-path="url(#SVGID_2_)" fill="#CB6686" d="M32.04,56.694H17.322c-0.423,0-0.766-0.342-0.766-0.765v-3.438
		c0-0.424,0.343-0.767,0.766-0.767h1.974v-5.682c0-0.424,0.344-0.767,0.767-0.767H29.3c0.424,0,0.767,0.343,0.767,0.767v5.682h1.974
		c0.423,0,0.767,0.343,0.767,0.767v3.438C32.807,56.353,32.463,56.694,32.04,56.694 M18.088,55.164h13.186v-1.906H29.3
		c-0.423,0-0.766-0.342-0.766-0.766V46.81h-7.706v5.683c0,0.424-0.343,0.766-0.765,0.766h-1.975V55.164z"/>
	<path clip-path="url(#SVGID_2_)" fill="#CB6686" d="M25.942,53.258h-5.879c-0.423,0-0.767-0.343-0.767-0.767
		c0-0.422,0.344-0.765,0.767-0.765h5.879c0.423,0,0.766,0.343,0.766,0.765C26.708,52.915,26.365,53.258,25.942,53.258"/>
	<path clip-path="url(#SVGID_2_)" fill="#CB6686" d="M48.597,56.695H0.766C0.343,56.695,0,56.353,0,55.929
		c0-0.422,0.343-0.765,0.766-0.765h47.831c0.423,0,0.767,0.343,0.767,0.765C49.363,56.353,49.02,56.695,48.597,56.695"/>
	<path clip-path="url(#SVGID_2_)" fill="#CB6686" d="M24.682,39.175c-10.801,0-19.587-8.788-19.587-19.588
		C5.094,8.786,13.88,0,24.682,0c10.8,0,19.587,8.786,19.587,19.587C44.269,30.387,35.481,39.175,24.682,39.175 M24.682,1.532
		c-9.956,0-18.056,8.1-18.056,18.055c0,9.956,8.1,18.056,18.056,18.056s18.056-8.1,18.056-18.056
		C42.737,9.632,34.638,1.532,24.682,1.532"/>
	<path clip-path="url(#SVGID_2_)" fill="#CB6686" d="M24.682,39.175c-5.488,0-9.788-8.604-9.788-19.588
		C14.894,8.604,19.193,0,24.682,0c5.487,0,9.788,8.604,9.788,19.587C34.47,30.571,30.169,39.175,24.682,39.175 M24.682,1.532
		c-4.476,0-8.256,8.268-8.256,18.055s3.78,18.056,8.256,18.056c4.475,0,8.256-8.269,8.256-18.056S29.156,1.532,24.682,1.532"/>
	<path clip-path="url(#SVGID_2_)" fill="#CB6686" d="M24.682,29.375c-10.983,0-19.587-4.299-19.587-9.788
		c0-5.488,8.604-9.787,19.587-9.787c10.982,0,19.587,4.299,19.587,9.787C44.269,25.076,35.664,29.375,24.682,29.375 M24.682,11.332
		c-9.787,0-18.056,3.78-18.056,8.255c0,4.475,8.269,8.257,18.056,8.257s18.056-3.782,18.056-8.257
		C42.737,15.112,34.469,11.332,24.682,11.332"/>
	<path clip-path="url(#SVGID_2_)" fill="#CB6686" d="M24.682,39.175c-0.423,0-0.766-0.344-0.766-0.767V0.766
		C23.916,0.342,24.259,0,24.682,0s0.766,0.343,0.766,0.766v37.643C25.447,38.831,25.104,39.175,24.682,39.175"/>
	<path clip-path="url(#SVGID_2_)" fill="#CB6686" d="M43.503,20.353H5.86c-0.423,0-0.766-0.342-0.766-0.766
		c0-0.422,0.343-0.765,0.766-0.765h37.643c0.423,0,0.766,0.343,0.766,0.765C44.269,20.01,43.926,20.353,43.503,20.353"/>
</g>
</svg>
