<?xml version="1.0" encoding="utf-8"?>
<!-- Generator: Adobe Illustrator 16.0.0, SVG Export Plug-In . SVG Version: 6.00 Build 0)  -->
<!DOCTYPE svg PUBLIC "-//W3C//DTD SVG 1.1//EN" "http://www.w3.org/Graphics/SVG/1.1/DTD/svg11.dtd">
<svg version="1.1" id="Layer_1" xmlns="http://www.w3.org/2000/svg" xmlns:xlink="http://www.w3.org/1999/xlink" x="0px" y="0px"
	viewBox="0 0 62 62" enable-background="new 0 0 62 62" xml:space="preserve">
<g>
	<defs>
		<rect id="SVGID_1_" width="62" height="62"/>
	</defs>
	<clipPath id="SVGID_2_">
		<use xlink:href="#SVGID_1_"  overflow="visible"/>
	</clipPath>
	
		<path clip-path="url(#SVGID_2_)" fill="none" stroke="#FF687D" stroke-width="2" stroke-linecap="round" stroke-linejoin="round" d="
		M46,24.729c0,6.712-2.79,7.921-5,10.169c-3.333,3.39-3.333,6.779-3.333,6.779H31c0,0,0-3.39-3.333-6.779
		c-2.211-2.248-5-3.457-5-10.169c0-6.78,5-11.865,11.666-11.865C41,12.864,46,17.949,46,24.729z"/>
	
		<polyline clip-path="url(#SVGID_2_)" fill="none" stroke="#FF687D" stroke-width="2" stroke-linecap="round" stroke-linejoin="round" points="
		31,24.729 34.333,26.424 34.333,31.508 	"/>
	
		<line clip-path="url(#SVGID_2_)" fill="none" stroke="#FF687D" stroke-width="2" stroke-linecap="round" stroke-linejoin="round" x1="34.334" y1="6.085" x2="34.334" y2="1"/>
	
		<line clip-path="url(#SVGID_2_)" fill="none" stroke="#FF687D" stroke-width="2" stroke-linecap="round" stroke-linejoin="round" x1="44.334" y1="9.475" x2="49.334" y2="2.695"/>
	
		<line clip-path="url(#SVGID_2_)" fill="none" stroke="#FF687D" stroke-width="2" stroke-linecap="round" stroke-linejoin="round" x1="51" y1="16.254" x2="54.333" y2="14.56"/>
	
		<line clip-path="url(#SVGID_2_)" fill="none" stroke="#FF687D" stroke-width="2" stroke-linecap="round" stroke-linejoin="round" x1="52.666" y1="23.034" x2="57.666" y2="23.034"/>
	
		<line clip-path="url(#SVGID_2_)" fill="none" stroke="#FF687D" stroke-width="2" stroke-linecap="round" stroke-linejoin="round" x1="37.666" y1="24.729" x2="34.334" y2="26.424"/>
	
		<line clip-path="url(#SVGID_2_)" fill="none" stroke="#FF687D" stroke-width="2" stroke-linecap="round" stroke-linejoin="round" x1="24.333" y1="9.475" x2="19.333" y2="2.695"/>
	
		<line clip-path="url(#SVGID_2_)" fill="none" stroke="#FF687D" stroke-width="2" stroke-linecap="round" stroke-linejoin="round" x1="17.667" y1="16.254" x2="14.333" y2="14.56"/>
	
		<line clip-path="url(#SVGID_2_)" fill="none" stroke="#FF687D" stroke-width="2" stroke-linecap="round" stroke-linejoin="round" x1="16" y1="23.034" x2="11" y2="23.034"/>
	
		<path clip-path="url(#SVGID_2_)" fill="none" stroke="#FF687D" stroke-width="2" stroke-linecap="round" stroke-linejoin="round" d="
		M1,61c8.333-5.085,16.667-1.695,20-1.695h20c5.063,0,8.675-4.975,16.661-11.863c2.945-2.541,4.502-4.882,2.306-7.304
		c-2.192-2.42-5.618-0.189-6.883,0.682l-10.759,7.004"/>
	
		<path clip-path="url(#SVGID_2_)" fill="none" stroke="#FF687D" stroke-width="2" stroke-linecap="round" stroke-linejoin="round" d="
		M30.142,50.86h8.333c5.358,0,5.358-8.46,0-8.475c-10.809-0.029-14.142-1.725-20.809-1.725c-5,0-6.666,5.084-15,6.78"/>
</g>
</svg>
